<svg width="42" height="42" viewBox="0 0 42 42" fill="none" xmlns="http://www.w3.org/2000/svg">
<path d="M37.4453 30.2394V22.6178C37.4453 21.8312 37.1329 21.0769 36.5767 20.5207C36.0206 19.9646 35.2662 19.6521 34.4797 19.6521H22.6172V12.0305C24.015 11.6696 25.2332 10.8113 26.0434 9.61645C26.8536 8.42163 27.2003 6.97233 27.0184 5.54021C26.8365 4.10809 26.1385 2.79147 25.0553 1.83715C23.9721 0.882829 22.578 0.356323 21.1344 0.356323C19.6908 0.356323 18.2967 0.882829 17.2135 1.83715C16.1303 2.79147 15.4323 4.10809 15.2504 5.54021C15.0685 6.97233 15.4152 8.42163 16.2254 9.61645C17.0356 10.8113 18.2538 11.6696 19.6516 12.0305V19.6521H7.78908C7.00254 19.6521 6.24823 19.9646 5.69206 20.5207C5.1359 21.0769 4.82345 21.8312 4.82345 22.6178V30.2394C3.42567 30.6003 2.20749 31.4586 1.39726 32.6534C0.587036 33.8483 0.240385 35.2976 0.422288 36.7297C0.604192 38.1618 1.30216 39.4784 2.38536 40.4327C3.46857 41.3871 4.86264 41.9136 6.30626 41.9136C7.74989 41.9136 9.14396 41.3871 10.2272 40.4327C11.3104 39.4784 12.0083 38.1618 12.1902 36.7297C12.3721 35.2976 12.0255 33.8483 11.2153 32.6534C10.405 31.4586 9.18686 30.6003 7.78908 30.2394V22.6178H34.4797V30.2394C33.0819 30.6003 31.8637 31.4586 31.0535 32.6534C30.2433 33.8483 29.8966 35.2976 30.0785 36.7297C30.2604 38.1618 30.9584 39.4784 32.0416 40.4327C33.1248 41.3871 34.5189 41.9136 35.9625 41.9136C37.4061 41.9136 38.8002 41.3871 39.8834 40.4327C40.9666 39.4784 41.6646 38.1618 41.8465 36.7297C42.0284 35.2976 41.6817 33.8483 40.8715 32.6534C40.0613 31.4586 38.8431 30.6003 37.4453 30.2394ZM9.27189 35.9631C9.27189 36.5496 9.09796 37.123 8.77209 37.6107C8.44622 38.0984 7.98306 38.4785 7.44116 38.703C6.89926 38.9274 6.30297 38.9861 5.7277 38.8717C5.15242 38.7573 4.624 38.4748 4.20925 38.0601C3.7945 37.6453 3.51205 37.1169 3.39762 36.5416C3.28319 35.9664 3.34192 35.3701 3.56638 34.8282C3.79084 34.2863 4.17096 33.8231 4.65865 33.4972C5.14635 33.1714 5.71972 32.9974 6.30626 32.9974C7.0928 32.9974 7.84712 33.3099 8.40328 33.8661C8.95944 34.4222 9.27189 35.1765 9.27189 35.9631ZM18.1688 6.30682C18.1688 5.72028 18.3427 5.14691 18.6686 4.65921C18.9944 4.17152 19.4576 3.79141 19.9995 3.56694C20.5414 3.34248 21.1377 3.28375 21.713 3.39818C22.2882 3.51261 22.8167 3.79506 23.2314 4.20981C23.6462 4.62456 23.9286 5.15299 24.043 5.72826C24.1575 6.30353 24.0987 6.89982 23.8743 7.44172C23.6498 7.98362 23.2697 8.44678 22.782 8.77265C22.2943 9.09852 21.7209 9.27245 21.1344 9.27245C20.3479 9.27245 19.5935 8.96 19.0374 8.40384C18.4812 7.84768 18.1688 7.09336 18.1688 6.30682ZM35.9625 38.9287C35.376 38.9287 34.8026 38.7548 34.3149 38.4289C33.8272 38.103 33.4471 37.6399 33.2226 37.098C32.9982 36.5561 32.9394 35.9598 33.0539 35.3845C33.1683 34.8092 33.4508 34.2808 33.8655 33.8661C34.2803 33.4513 34.8087 33.1689 35.3839 33.0544C35.9592 32.94 36.5555 32.9987 37.0974 33.2232C37.6393 33.4477 38.1025 33.8278 38.4283 34.3155C38.7542 34.8032 38.9281 35.3765 38.9281 35.9631C38.9281 36.7496 38.6157 37.5039 38.0595 38.0601C37.5034 38.6162 36.749 38.9287 35.9625 38.9287Z" fill="white"/>
</svg>
