<svg width="24" height="20" viewBox="0 0 24 20" fill="none" xmlns="http://www.w3.org/2000/svg">
<path d="M22.1538 0H1.84615C1.35652 0 0.886947 0.191558 0.540726 0.532533C0.194505 0.873508 0 1.33597 0 1.81818V18.1818C0 18.664 0.194505 19.1265 0.540726 19.4675C0.886947 19.8084 1.35652 20 1.84615 20H22.1538C22.6435 20 23.1131 19.8084 23.4593 19.4675C23.8055 19.1265 24 18.664 24 18.1818V1.81818C24 1.33597 23.8055 0.873508 23.4593 0.532533C23.1131 0.191558 22.6435 0 22.1538 0ZM7.93846 12C8.13431 12.1447 8.26379 12.36 8.29842 12.5987C8.33304 12.8374 8.26997 13.0798 8.12308 13.2727C7.97619 13.4656 7.75751 13.5931 7.51516 13.6272C7.2728 13.6613 7.02662 13.5992 6.83077 13.4545L3.13846 10.7273C3.02382 10.6426 2.93077 10.5328 2.86668 10.4066C2.8026 10.2803 2.76923 10.1411 2.76923 10C2.76923 9.85887 2.8026 9.71968 2.86668 9.59344C2.93077 9.46721 3.02382 9.35741 3.13846 9.27273L6.83077 6.54545C7.02662 6.40079 7.2728 6.33868 7.51516 6.37277C7.75751 6.40687 7.97619 6.53439 8.12308 6.72727C8.26997 6.92016 8.33304 7.16261 8.29842 7.40129C8.26379 7.63998 8.13431 7.85534 7.93846 8L5.23038 10L7.93846 12ZM14.7335 3.88636L11.0412 16.6136C11.0097 16.7305 10.9549 16.8399 10.8799 16.9356C10.805 17.0314 10.7114 17.1114 10.6047 17.1711C10.498 17.2307 10.3803 17.2689 10.2584 17.2832C10.1366 17.2975 10.013 17.2878 9.89505 17.2546C9.77706 17.2213 9.66699 17.1652 9.57127 17.0896C9.47555 17.014 9.3961 16.9203 9.33758 16.814C9.27906 16.7078 9.24263 16.5912 9.23043 16.4709C9.21824 16.3506 9.23051 16.2292 9.26654 16.1136L12.9588 3.38636C13.0298 3.15879 13.1886 2.96771 13.4011 2.85419C13.6135 2.74066 13.8627 2.71375 14.0951 2.77923C14.3275 2.84471 14.5246 2.99736 14.6439 3.20437C14.7633 3.41139 14.7954 3.65626 14.7335 3.88636ZM20.8615 10.7273L17.1692 13.4545C16.9734 13.5992 16.7272 13.6613 16.4848 13.6272C16.2425 13.5931 16.0238 13.4656 15.8769 13.2727C15.73 13.0798 15.667 12.8374 15.7016 12.5987C15.7362 12.36 15.8657 12.1447 16.0615 12L18.7696 10L16.0615 8C15.9646 7.92837 15.8829 7.83863 15.8211 7.7359C15.7593 7.63318 15.7187 7.51948 15.7016 7.40129C15.6844 7.28311 15.6911 7.16276 15.7212 7.04711C15.7513 6.93146 15.8042 6.82278 15.8769 6.72727C15.9497 6.63177 16.0408 6.5513 16.1451 6.49048C16.2494 6.42965 16.3648 6.38966 16.4848 6.37277C16.6048 6.35589 16.727 6.36245 16.8445 6.39208C16.9619 6.42171 17.0723 6.47382 17.1692 6.54545L20.8615 9.27273C20.9762 9.35741 21.0692 9.46721 21.1333 9.59344C21.1974 9.71968 21.2308 9.85887 21.2308 10C21.2308 10.1411 21.1974 10.2803 21.1333 10.4066C21.0692 10.5328 20.9762 10.6426 20.8615 10.7273Z" fill="white"/>
</svg>
