<svg width="44" height="25" viewBox="0 0 44 25" fill="none" xmlns="http://www.w3.org/2000/svg">
<path d="M44 24.3517C42.3995 24.7503 41.4095 24.3692 40.5212 23.063L34.2045 14.5039L33.2915 13.3189L25.9146 23.0912C25.0718 24.2668 24.1876 24.7785 22.6146 24.3624L32.0609 11.944L23.2664 0.726771C24.7789 0.438597 25.8239 0.585377 26.752 1.91179L33.3039 10.5772L39.9039 1.95892C40.7495 0.783329 41.6584 0.336255 43.1764 0.769863L39.7664 5.19751L35.1464 11.0889C34.5964 11.7622 34.672 12.2228 35.178 12.8732L44 24.3517ZM0.011 11.7366L0.78375 8.01462C2.8875 0.648668 11.5088 -2.41217 17.4543 2.13936C20.9289 4.81642 21.7924 8.60308 21.6205 12.8449H2.035C1.74075 20.4802 7.35213 25.0883 14.5063 22.7371C17.0156 21.9116 18.4937 19.9873 19.2335 17.5796C19.6089 16.373 20.2304 16.1845 21.3881 16.5292C20.7969 19.5402 19.4631 22.0557 16.6444 23.6299C12.4327 25.9865 6.42125 25.2243 3.25875 21.9493C1.375 20.0493 0.59675 17.6415 0.2475 15.0668C0.1925 14.6413 0.0825 14.2359 0 13.8279C0.00733333 13.1313 0.011 12.4346 0.011 11.738V11.7366ZM2.07075 11.2249H19.7698C19.6543 5.70384 16.1439 1.78251 11.3465 1.74885C6.08025 1.70845 2.299 5.53686 2.07075 11.2249Z" fill="black"/>
</svg>
