<svg width="22" height="22" viewBox="0 0 22 22" fill="none" xmlns="http://www.w3.org/2000/svg">
<path d="M1.99965 16.2501V20.0001H5.74965L16.8096 8.93014L13.0596 5.18014L1.99965 16.2501ZM21.6096 17.3601L17.3596 21.6101L12.1596 16.4101L13.9296 14.6401L14.9296 15.6401L17.3996 13.1601L18.8196 14.5801L17.3596 16.0001L18.4196 17.0001L19.8396 15.6001L21.6096 17.3601ZM5.60965 9.83014L0.389648 4.64014L4.63965 0.390137L6.39965 2.16014L3.92965 4.64014L4.99965 5.70014L7.45965 3.22014L8.87965 4.64014L7.45965 6.05014L8.45965 7.05014L5.60965 9.83014ZM19.7096 6.00014C20.0996 5.61014 20.0996 5.00014 19.7096 4.59014L17.3696 2.29014C16.9996 1.90014 16.3496 1.90014 15.9596 2.29014L14.1196 4.12014L17.8696 7.87014L19.7096 6.00014Z" fill="white"/>
</svg>
