<svg width="1248" height="602" viewBox="0 0 1248 602" fill="none" xmlns="http://www.w3.org/2000/svg">
<g filter="url(#filter0_d_1732_12019)">
<rect x="34" y="28" width="200" height="200" rx="15" fill="#E1EFFF"/>
</g>
<g filter="url(#filter1_d_1732_12019)">
<rect x="394" y="37" width="200" height="200" rx="15" fill="#E1EFFF"/>
</g>
<g filter="url(#filter2_d_1732_12019)">
<rect x="704" y="37" width="200" height="200" rx="15" fill="#0BAB7C"/>
<rect x="707.5" y="40.5" width="193" height="193" rx="11.5" stroke="#D8ECFE" stroke-width="7"/>
</g>
<g filter="url(#filter3_d_1732_12019)">
<rect x="1014" y="37" width="200" height="200" rx="15" fill="#E1EFFF"/>
</g>
<g filter="url(#filter4_d_1732_12019)">
<rect x="1014" y="333" width="200" height="200" rx="15" fill="#0BAB7C"/>
<rect x="1017.5" y="336.5" width="193" height="193" rx="11.5" stroke="#D8ECFE" stroke-width="7"/>
</g>
<g filter="url(#filter5_d_1732_12019)">
<rect x="704" y="333" width="200" height="200" rx="15" fill="#E1EFFF"/>
</g>
<g filter="url(#filter6_d_1732_12019)">
<rect x="394" y="333" width="200" height="200" rx="15" fill="#0BAB7C"/>
<rect x="397.5" y="336.5" width="193" height="193" rx="11.5" stroke="#D8ECFE" stroke-width="7"/>
</g>
<path d="M137.779 304.019L147.404 284.769C147.479 284.618 147.509 284.448 147.491 284.281C147.472 284.113 147.405 283.954 147.299 283.824C147.194 283.699 147.057 283.606 146.902 283.555C146.748 283.504 146.582 283.497 146.424 283.535L137.875 285.854L137.875 295.75L136.125 295.75L136.125 285.854L127.602 283.5C127.47 283.464 127.332 283.46 127.197 283.488C127.063 283.516 126.938 283.574 126.83 283.659C126.723 283.745 126.637 283.854 126.58 283.978C126.523 284.102 126.495 284.238 126.5 284.375C126.501 284.512 126.534 284.647 126.596 284.769L136.221 304.019C136.295 304.162 136.406 304.282 136.544 304.366C136.681 304.45 136.839 304.495 137 304.495C137.161 304.495 137.319 304.45 137.456 304.366C137.594 304.282 137.705 304.162 137.779 304.019V304.019Z" fill="#0BAB7C"/>
<path d="M150.019 441.221L130.769 431.596C130.618 431.521 130.448 431.491 130.281 431.509C130.113 431.528 129.954 431.595 129.824 431.701C129.699 431.806 129.606 431.943 129.555 432.098C129.504 432.252 129.497 432.418 129.535 432.576L131.854 441.125H141.75V442.875H131.854L129.5 451.398C129.464 451.53 129.46 451.668 129.488 451.802C129.515 451.937 129.574 452.062 129.659 452.169C129.744 452.277 129.854 452.362 129.978 452.42C130.102 452.477 130.238 452.505 130.375 452.5C130.512 452.499 130.647 452.466 130.769 452.404L150.019 442.779C150.162 442.705 150.282 442.594 150.366 442.456C150.45 442.319 150.495 442.161 150.495 442C150.495 441.839 150.45 441.681 150.366 441.544C150.282 441.406 150.162 441.295 150.019 441.221V441.221Z" fill="#0BAB7C"/>
<path d="M286.02 140.221L266.77 130.596C266.619 130.521 266.449 130.491 266.282 130.509C266.114 130.528 265.955 130.595 265.825 130.701C265.7 130.806 265.607 130.943 265.556 131.098C265.505 131.252 265.498 131.418 265.536 131.576L267.855 140.125H277.751V141.875H267.855L265.501 150.398C265.465 150.53 265.461 150.668 265.489 150.803C265.516 150.937 265.575 151.062 265.66 151.17C265.745 151.277 265.855 151.363 265.979 151.42C266.103 151.477 266.239 151.505 266.376 151.5C266.513 151.499 266.648 151.466 266.77 151.404L286.02 141.779C286.163 141.705 286.283 141.594 286.367 141.456C286.451 141.319 286.496 141.161 286.496 141C286.496 140.839 286.451 140.681 286.367 140.544C286.283 140.406 286.163 140.295 286.02 140.221V140.221Z" fill="#0BAB7C"/>
<path d="M659.02 140.221L639.77 130.596C639.619 130.521 639.449 130.491 639.282 130.509C639.114 130.528 638.955 130.595 638.825 130.701C638.7 130.806 638.607 130.943 638.556 131.098C638.505 131.252 638.498 131.418 638.536 131.576L640.855 140.125H650.751V141.875H640.855L638.501 150.398C638.465 150.53 638.461 150.668 638.489 150.803C638.516 150.937 638.575 151.062 638.66 151.17C638.745 151.277 638.855 151.363 638.979 151.42C639.103 151.477 639.239 151.505 639.376 151.5C639.513 151.499 639.648 151.466 639.77 151.404L659.02 141.779C659.163 141.705 659.283 141.594 659.367 141.456C659.451 141.319 659.496 141.161 659.496 141C659.496 140.839 659.451 140.681 659.367 140.544C659.283 140.406 659.163 140.295 659.02 140.221V140.221Z" fill="#0BAB7C"/>
<path d="M969.02 140.221L949.77 130.596C949.619 130.521 949.449 130.491 949.282 130.509C949.114 130.528 948.955 130.595 948.825 130.701C948.7 130.806 948.607 130.943 948.556 131.098C948.505 131.252 948.498 131.418 948.536 131.576L950.855 140.125H960.751V141.875H950.855L948.501 150.398C948.465 150.53 948.461 150.668 948.489 150.803C948.516 150.937 948.575 151.062 948.66 151.17C948.745 151.277 948.855 151.363 948.979 151.42C949.103 151.477 949.239 151.505 949.376 151.5C949.513 151.499 949.648 151.466 949.77 151.404L969.02 141.779C969.163 141.705 969.283 141.594 969.367 141.456C969.451 141.319 969.496 141.161 969.496 141C969.496 140.839 969.451 140.681 969.367 140.544C969.283 140.406 969.163 140.295 969.02 140.221V140.221Z" fill="#0BAB7C"/>
<path d="M1122.78 300.019L1132.4 280.769C1132.48 280.618 1132.51 280.448 1132.49 280.281C1132.47 280.113 1132.41 279.954 1132.3 279.824C1132.19 279.699 1132.06 279.606 1131.9 279.555C1131.75 279.504 1131.58 279.497 1131.42 279.535L1122.87 281.854L1122.87 291.75L1121.12 291.75L1121.12 281.854L1112.6 279.5C1112.47 279.464 1112.33 279.46 1112.2 279.488C1112.06 279.516 1111.94 279.574 1111.83 279.659C1111.72 279.745 1111.64 279.854 1111.58 279.978C1111.52 280.102 1111.5 280.238 1111.5 280.375C1111.5 280.512 1111.53 280.647 1111.6 280.769L1121.22 300.019C1121.29 300.162 1121.41 300.282 1121.54 300.366C1121.68 300.45 1121.84 300.495 1122 300.495C1122.16 300.495 1122.32 300.45 1122.46 300.366C1122.59 300.282 1122.71 300.162 1122.78 300.019V300.019Z" fill="#0BAB7C"/>
<path d="M968.997 437.967L949.508 428.834C949.356 428.763 949.186 428.737 949.018 428.76C948.851 428.782 948.694 428.853 948.566 428.963C948.444 429.071 948.355 429.21 948.308 429.366C948.261 429.522 948.258 429.688 948.3 429.845L950.835 438.332L960.728 438.081L960.773 439.83L950.88 440.082L948.743 448.661C948.711 448.794 948.71 448.933 948.741 449.066C948.772 449.2 948.834 449.324 948.922 449.429C949.01 449.534 949.121 449.617 949.247 449.671C949.373 449.725 949.509 449.749 949.646 449.741C949.783 449.737 949.917 449.701 950.037 449.635L969.036 439.524C969.178 439.447 969.295 439.332 969.376 439.193C969.456 439.053 969.497 438.894 969.492 438.733C969.488 438.572 969.44 438.416 969.352 438.28C969.265 438.145 969.142 438.037 968.997 437.967V437.967Z" fill="#0BAB7C"/>
<path d="M659.001 439.578L639.561 431.422C639.409 431.359 639.239 431.335 639.072 431.356C638.904 431.376 638.747 431.439 638.619 431.538C638.496 431.634 638.406 431.758 638.358 431.898C638.31 432.037 638.306 432.185 638.348 432.325L640.839 439.904L650.732 439.679L650.768 441.241L640.874 441.466L638.693 449.126C638.66 449.245 638.659 449.369 638.69 449.488C638.72 449.607 638.781 449.718 638.868 449.812C638.956 449.906 639.066 449.98 639.192 450.028C639.317 450.077 639.454 450.098 639.591 450.091C639.727 450.087 639.862 450.054 639.982 449.996L659.033 440.968C659.174 440.899 659.292 440.797 659.374 440.672C659.455 440.548 659.496 440.406 659.493 440.262C659.489 440.118 659.442 439.978 659.355 439.858C659.268 439.737 659.146 439.64 659.001 439.578V439.578Z" fill="#0BAB7C"/>
<path d="M286.02 438.221L266.77 428.596C266.619 428.521 266.449 428.491 266.282 428.509C266.114 428.528 265.955 428.595 265.825 428.701C265.7 428.806 265.607 428.943 265.556 429.098C265.505 429.252 265.498 429.418 265.536 429.576L267.855 438.125H277.751V439.875H267.855L265.501 448.398C265.465 448.53 265.461 448.668 265.489 448.803C265.516 448.937 265.575 449.062 265.66 449.17C265.745 449.277 265.855 449.363 265.979 449.42C266.103 449.477 266.239 449.505 266.376 449.5C266.513 449.499 266.648 449.466 266.77 449.404L286.02 439.779C286.163 439.705 286.283 439.594 286.367 439.456C286.451 439.319 286.496 439.161 286.496 439C286.496 438.839 286.451 438.681 286.367 438.544C286.283 438.406 286.163 438.295 286.02 438.221V438.221Z" fill="#0BAB7C"/>
<path d="M108.004 96.8H110.604V115H108.004V96.8ZM97.552 115H94.952V96.8H97.552V115ZM108.238 106.888H97.292V104.626H108.238V106.888ZM121.98 115.156C120.593 115.156 119.362 114.853 118.288 114.246C117.213 113.639 116.364 112.807 115.74 111.75C115.116 110.675 114.804 109.462 114.804 108.11C114.804 106.741 115.116 105.527 115.74 104.47C116.364 103.413 117.213 102.589 118.288 102C119.362 101.393 120.593 101.09 121.98 101.09C123.349 101.09 124.571 101.393 125.646 102C126.738 102.589 127.587 103.413 128.194 104.47C128.818 105.51 129.13 106.723 129.13 108.11C129.13 109.479 128.818 110.693 128.194 111.75C127.587 112.807 126.738 113.639 125.646 114.246C124.571 114.853 123.349 115.156 121.98 115.156ZM121.98 112.972C122.864 112.972 123.652 112.773 124.346 112.374C125.056 111.975 125.611 111.412 126.01 110.684C126.408 109.939 126.608 109.081 126.608 108.11C126.608 107.122 126.408 106.273 126.01 105.562C125.611 104.834 125.056 104.271 124.346 103.872C123.652 103.473 122.864 103.274 121.98 103.274C121.096 103.274 120.307 103.473 119.614 103.872C118.92 104.271 118.366 104.834 117.95 105.562C117.534 106.273 117.326 107.122 117.326 108.11C117.326 109.081 117.534 109.939 117.95 110.684C118.366 111.412 118.92 111.975 119.614 112.374C120.307 112.773 121.096 112.972 121.98 112.972ZM150.209 101.09C151.319 101.09 152.298 101.307 153.147 101.74C153.997 102.173 154.655 102.832 155.123 103.716C155.609 104.6 155.851 105.718 155.851 107.07V115H153.355V107.356C153.355 106.021 153.043 105.016 152.419 104.34C151.795 103.664 150.92 103.326 149.793 103.326C148.961 103.326 148.233 103.499 147.609 103.846C146.985 104.193 146.5 104.704 146.153 105.38C145.824 106.056 145.659 106.897 145.659 107.902V115H143.163V107.356C143.163 106.021 142.851 105.016 142.227 104.34C141.621 103.664 140.745 103.326 139.601 103.326C138.787 103.326 138.067 103.499 137.443 103.846C136.819 104.193 136.334 104.704 135.987 105.38C135.641 106.056 135.467 106.897 135.467 107.902V115H132.971V101.22H135.363V104.886L134.973 103.95C135.407 103.049 136.074 102.347 136.975 101.844C137.877 101.341 138.925 101.09 140.121 101.09C141.439 101.09 142.574 101.419 143.527 102.078C144.481 102.719 145.105 103.699 145.399 105.016L144.385 104.6C144.801 103.543 145.529 102.693 146.569 102.052C147.609 101.411 148.823 101.09 150.209 101.09ZM166.97 115.156C165.497 115.156 164.197 114.853 163.07 114.246C161.961 113.639 161.094 112.807 160.47 111.75C159.863 110.693 159.56 109.479 159.56 108.11C159.56 106.741 159.855 105.527 160.444 104.47C161.051 103.413 161.874 102.589 162.914 102C163.971 101.393 165.159 101.09 166.476 101.09C167.811 101.09 168.989 101.385 170.012 101.974C171.035 102.563 171.832 103.395 172.404 104.47C172.993 105.527 173.288 106.767 173.288 108.188C173.288 108.292 173.279 108.413 173.262 108.552C173.262 108.691 173.253 108.821 173.236 108.942H161.51V107.148H171.936L170.922 107.772C170.939 106.888 170.757 106.099 170.376 105.406C169.995 104.713 169.466 104.175 168.79 103.794C168.131 103.395 167.36 103.196 166.476 103.196C165.609 103.196 164.838 103.395 164.162 103.794C163.486 104.175 162.957 104.721 162.576 105.432C162.195 106.125 162.004 106.923 162.004 107.824V108.24C162.004 109.159 162.212 109.982 162.628 110.71C163.061 111.421 163.659 111.975 164.422 112.374C165.185 112.773 166.06 112.972 167.048 112.972C167.863 112.972 168.599 112.833 169.258 112.556C169.934 112.279 170.523 111.863 171.026 111.308L172.404 112.92C171.78 113.648 171 114.203 170.064 114.584C169.145 114.965 168.114 115.156 166.97 115.156ZM95.1098 156.208C93.7231 156.208 92.3971 156 91.1318 155.584C89.8664 155.151 88.8698 154.596 88.1418 153.92L89.1038 151.892C89.7971 152.499 90.6811 153.001 91.7558 153.4C92.8304 153.799 93.9484 153.998 95.1098 153.998C96.1671 153.998 97.0251 153.877 97.6838 153.634C98.3424 153.391 98.8278 153.062 99.1398 152.646C99.4518 152.213 99.6078 151.727 99.6078 151.19C99.6078 150.566 99.3998 150.063 98.9838 149.682C98.5851 149.301 98.0565 148.997 97.3978 148.772C96.7564 148.529 96.0458 148.321 95.2658 148.148C94.4858 147.975 93.6971 147.775 92.8998 147.55C92.1198 147.307 91.4004 147.004 90.7418 146.64C90.1004 146.276 89.5804 145.791 89.1818 145.184C88.7831 144.56 88.5838 143.763 88.5838 142.792C88.5838 141.856 88.8264 140.998 89.3118 140.218C89.8144 139.421 90.5771 138.788 91.5998 138.32C92.6398 137.835 93.9571 137.592 95.5518 137.592C96.6091 137.592 97.6578 137.731 98.6978 138.008C99.7378 138.285 100.639 138.684 101.402 139.204L100.544 141.284C99.7638 140.764 98.9404 140.391 98.0738 140.166C97.2071 139.923 96.3664 139.802 95.5518 139.802C94.5291 139.802 93.6884 139.932 93.0298 140.192C92.3711 140.452 91.8858 140.799 91.5738 141.232C91.2791 141.665 91.1318 142.151 91.1318 142.688C91.1318 143.329 91.3311 143.841 91.7298 144.222C92.1458 144.603 92.6744 144.907 93.3158 145.132C93.9744 145.357 94.6938 145.565 95.4738 145.756C96.2538 145.929 97.0338 146.129 97.8138 146.354C98.6111 146.579 99.3304 146.874 99.9718 147.238C100.63 147.602 101.159 148.087 101.558 148.694C101.956 149.301 102.156 150.081 102.156 151.034C102.156 151.953 101.904 152.811 101.402 153.608C100.899 154.388 100.119 155.021 99.0618 155.506C98.0218 155.974 96.7044 156.208 95.1098 156.208ZM111.986 156.156C110.582 156.156 109.326 155.853 108.216 155.246C107.124 154.639 106.266 153.807 105.642 152.75C105.018 151.693 104.706 150.479 104.706 149.11C104.706 147.741 105.018 146.527 105.642 145.47C106.266 144.413 107.124 143.589 108.216 143C109.326 142.393 110.582 142.09 111.986 142.09C113.234 142.09 114.344 142.341 115.314 142.844C116.302 143.329 117.065 144.057 117.602 145.028L115.704 146.25C115.254 145.574 114.699 145.08 114.04 144.768C113.399 144.439 112.706 144.274 111.96 144.274C111.059 144.274 110.253 144.473 109.542 144.872C108.832 145.271 108.268 145.834 107.852 146.562C107.436 147.273 107.228 148.122 107.228 149.11C107.228 150.098 107.436 150.956 107.852 151.684C108.268 152.412 108.832 152.975 109.542 153.374C110.253 153.773 111.059 153.972 111.96 153.972C112.706 153.972 113.399 153.816 114.04 153.504C114.699 153.175 115.254 152.672 115.704 151.996L117.602 153.192C117.065 154.145 116.302 154.882 115.314 155.402C114.344 155.905 113.234 156.156 111.986 156.156ZM121.224 156V142.22H123.616V145.964L123.382 145.028C123.763 144.075 124.404 143.347 125.306 142.844C126.207 142.341 127.316 142.09 128.634 142.09V144.508C128.53 144.491 128.426 144.482 128.322 144.482C128.235 144.482 128.148 144.482 128.062 144.482C126.727 144.482 125.67 144.881 124.89 145.678C124.11 146.475 123.72 147.628 123.72 149.136V156H121.224ZM138.109 156.156C136.636 156.156 135.336 155.853 134.209 155.246C133.1 154.639 132.233 153.807 131.609 152.75C131.002 151.693 130.699 150.479 130.699 149.11C130.699 147.741 130.994 146.527 131.583 145.47C132.19 144.413 133.013 143.589 134.053 143C135.11 142.393 136.298 142.09 137.615 142.09C138.95 142.09 140.128 142.385 141.151 142.974C142.174 143.563 142.971 144.395 143.543 145.47C144.132 146.527 144.427 147.767 144.427 149.188C144.427 149.292 144.418 149.413 144.401 149.552C144.401 149.691 144.392 149.821 144.375 149.942H132.649V148.148H143.075L142.061 148.772C142.078 147.888 141.896 147.099 141.515 146.406C141.134 145.713 140.605 145.175 139.929 144.794C139.27 144.395 138.499 144.196 137.615 144.196C136.748 144.196 135.977 144.395 135.301 144.794C134.625 145.175 134.096 145.721 133.715 146.432C133.334 147.125 133.143 147.923 133.143 148.824V149.24C133.143 150.159 133.351 150.982 133.767 151.71C134.2 152.421 134.798 152.975 135.561 153.374C136.324 153.773 137.199 153.972 138.187 153.972C139.002 153.972 139.738 153.833 140.397 153.556C141.073 153.279 141.662 152.863 142.165 152.308L143.543 153.92C142.919 154.648 142.139 155.203 141.203 155.584C140.284 155.965 139.253 156.156 138.109 156.156ZM154.419 156.156C152.946 156.156 151.646 155.853 150.519 155.246C149.41 154.639 148.543 153.807 147.919 152.75C147.312 151.693 147.009 150.479 147.009 149.11C147.009 147.741 147.304 146.527 147.893 145.47C148.5 144.413 149.323 143.589 150.363 143C151.42 142.393 152.608 142.09 153.925 142.09C155.26 142.09 156.438 142.385 157.461 142.974C158.484 143.563 159.281 144.395 159.853 145.47C160.442 146.527 160.737 147.767 160.737 149.188C160.737 149.292 160.728 149.413 160.711 149.552C160.711 149.691 160.702 149.821 160.685 149.942H148.959V148.148H159.385L158.371 148.772C158.388 147.888 158.206 147.099 157.825 146.406C157.444 145.713 156.915 145.175 156.239 144.794C155.58 144.395 154.809 144.196 153.925 144.196C153.058 144.196 152.287 144.395 151.611 144.794C150.935 145.175 150.406 145.721 150.025 146.432C149.644 147.125 149.453 147.923 149.453 148.824V149.24C149.453 150.159 149.661 150.982 150.077 151.71C150.51 152.421 151.108 152.975 151.871 153.374C152.634 153.773 153.509 153.972 154.497 153.972C155.312 153.972 156.048 153.833 156.707 153.556C157.383 153.279 157.972 152.863 158.475 152.308L159.853 153.92C159.229 154.648 158.449 155.203 157.513 155.584C156.594 155.965 155.563 156.156 154.419 156.156ZM171.951 142.09C173.078 142.09 174.066 142.307 174.915 142.74C175.782 143.173 176.458 143.832 176.943 144.716C177.428 145.6 177.671 146.718 177.671 148.07V156H175.175V148.356C175.175 147.021 174.846 146.016 174.187 145.34C173.546 144.664 172.636 144.326 171.457 144.326C170.573 144.326 169.802 144.499 169.143 144.846C168.484 145.193 167.973 145.704 167.609 146.38C167.262 147.056 167.089 147.897 167.089 148.902V156H164.593V142.22H166.985V145.938L166.595 144.95C167.046 144.049 167.739 143.347 168.675 142.844C169.611 142.341 170.703 142.09 171.951 142.09Z" fill="#0BAB7C"/>
<path d="M474.097 129.208C471.705 129.208 469.824 128.523 468.455 127.154C467.086 125.785 466.401 123.783 466.401 121.148V110.8H469.001V121.044C469.001 123.072 469.443 124.554 470.327 125.49C471.228 126.426 472.494 126.894 474.123 126.894C475.77 126.894 477.035 126.426 477.919 125.49C478.82 124.554 479.271 123.072 479.271 121.044V110.8H481.793V121.148C481.793 123.783 481.108 125.785 479.739 127.154C478.387 128.523 476.506 129.208 474.097 129.208ZM491.102 129.156C489.958 129.156 488.866 129 487.826 128.688C486.803 128.376 485.997 127.995 485.408 127.544L486.448 125.568C487.037 125.967 487.765 126.305 488.632 126.582C489.498 126.859 490.382 126.998 491.284 126.998C492.445 126.998 493.277 126.833 493.78 126.504C494.3 126.175 494.56 125.715 494.56 125.126C494.56 124.693 494.404 124.355 494.092 124.112C493.78 123.869 493.364 123.687 492.844 123.566C492.341 123.445 491.778 123.341 491.154 123.254C490.53 123.15 489.906 123.029 489.282 122.89C488.658 122.734 488.086 122.526 487.566 122.266C487.046 121.989 486.63 121.616 486.318 121.148C486.006 120.663 485.85 120.021 485.85 119.224C485.85 118.392 486.084 117.664 486.552 117.04C487.02 116.416 487.678 115.939 488.528 115.61C489.394 115.263 490.417 115.09 491.596 115.09C492.497 115.09 493.407 115.203 494.326 115.428C495.262 115.636 496.024 115.939 496.614 116.338L495.548 118.314C494.924 117.898 494.274 117.612 493.598 117.456C492.922 117.3 492.246 117.222 491.57 117.222C490.478 117.222 489.663 117.404 489.126 117.768C488.588 118.115 488.32 118.565 488.32 119.12C488.32 119.588 488.476 119.952 488.788 120.212C489.117 120.455 489.533 120.645 490.036 120.784C490.556 120.923 491.128 121.044 491.752 121.148C492.376 121.235 493 121.356 493.624 121.512C494.248 121.651 494.811 121.85 495.314 122.11C495.834 122.37 496.25 122.734 496.562 123.202C496.891 123.67 497.056 124.294 497.056 125.074C497.056 125.906 496.813 126.625 496.328 127.232C495.842 127.839 495.158 128.315 494.274 128.662C493.39 128.991 492.332 129.156 491.102 129.156ZM506.701 129.156C505.228 129.156 503.928 128.853 502.801 128.246C501.692 127.639 500.825 126.807 500.201 125.75C499.594 124.693 499.291 123.479 499.291 122.11C499.291 120.741 499.586 119.527 500.175 118.47C500.782 117.413 501.605 116.589 502.645 116C503.702 115.393 504.89 115.09 506.207 115.09C507.542 115.09 508.72 115.385 509.743 115.974C510.766 116.563 511.563 117.395 512.135 118.47C512.724 119.527 513.019 120.767 513.019 122.188C513.019 122.292 513.01 122.413 512.993 122.552C512.993 122.691 512.984 122.821 512.967 122.942H501.241V121.148H511.667L510.653 121.772C510.67 120.888 510.488 120.099 510.107 119.406C509.726 118.713 509.197 118.175 508.521 117.794C507.862 117.395 507.091 117.196 506.207 117.196C505.34 117.196 504.569 117.395 503.893 117.794C503.217 118.175 502.688 118.721 502.307 119.432C501.926 120.125 501.735 120.923 501.735 121.824V122.24C501.735 123.159 501.943 123.982 502.359 124.71C502.792 125.421 503.39 125.975 504.153 126.374C504.916 126.773 505.791 126.972 506.779 126.972C507.594 126.972 508.33 126.833 508.989 126.556C509.665 126.279 510.254 125.863 510.757 125.308L512.135 126.92C511.511 127.648 510.731 128.203 509.795 128.584C508.876 128.965 507.845 129.156 506.701 129.156ZM516.875 129V115.22H519.267V118.964L519.033 118.028C519.414 117.075 520.055 116.347 520.957 115.844C521.858 115.341 522.967 115.09 524.285 115.09V117.508C524.181 117.491 524.077 117.482 523.973 117.482C523.886 117.482 523.799 117.482 523.713 117.482C522.378 117.482 521.321 117.881 520.541 118.678C519.761 119.475 519.371 120.628 519.371 122.136V129H516.875ZM464.206 170.208C462.819 170.208 461.528 169.974 460.332 169.506C459.153 169.038 458.131 168.388 457.264 167.556C456.397 166.707 455.721 165.719 455.236 164.592C454.751 163.465 454.508 162.235 454.508 160.9C454.508 159.565 454.751 158.335 455.236 157.208C455.721 156.081 456.397 155.102 457.264 154.27C458.131 153.421 459.153 152.762 460.332 152.294C461.511 151.826 462.802 151.592 464.206 151.592C465.593 151.592 466.867 151.826 468.028 152.294C469.207 152.745 470.229 153.395 471.096 154.244C471.98 155.076 472.656 156.055 473.124 157.182C473.609 158.309 473.852 159.548 473.852 160.9C473.852 162.252 473.609 163.491 473.124 164.618C472.656 165.745 471.98 166.733 471.096 167.582C470.229 168.414 469.207 169.064 468.028 169.532C466.867 169.983 465.593 170.208 464.206 170.208ZM470.16 173.796C469.553 173.796 468.973 173.718 468.418 173.562C467.863 173.423 467.309 173.189 466.754 172.86C466.199 172.548 465.627 172.132 465.038 171.612C464.449 171.109 463.807 170.485 463.114 169.74L465.896 169.012C466.416 169.653 466.91 170.173 467.378 170.572C467.863 170.988 468.34 171.283 468.808 171.456C469.276 171.647 469.735 171.742 470.186 171.742C471.486 171.742 472.595 171.222 473.514 170.182L474.736 171.664C473.557 173.085 472.032 173.796 470.16 173.796ZM464.206 167.894C465.211 167.894 466.139 167.721 466.988 167.374C467.855 167.027 468.6 166.533 469.224 165.892C469.865 165.251 470.359 164.505 470.706 163.656C471.07 162.807 471.252 161.888 471.252 160.9C471.252 159.895 471.07 158.967 470.706 158.118C470.359 157.269 469.865 156.532 469.224 155.908C468.6 155.267 467.855 154.773 466.988 154.426C466.139 154.079 465.211 153.906 464.206 153.906C463.183 153.906 462.239 154.079 461.372 154.426C460.523 154.773 459.777 155.267 459.136 155.908C458.495 156.532 457.992 157.269 457.628 158.118C457.281 158.967 457.108 159.895 457.108 160.9C457.108 161.888 457.281 162.807 457.628 163.656C457.992 164.505 458.495 165.251 459.136 165.892C459.777 166.533 460.523 167.027 461.372 167.374C462.239 167.721 463.183 167.894 464.206 167.894ZM483.65 170.156C482.471 170.156 481.431 169.939 480.53 169.506C479.646 169.073 478.953 168.414 478.45 167.53C477.965 166.629 477.722 165.502 477.722 164.15V156.22H480.218V163.864C480.218 165.216 480.539 166.23 481.18 166.906C481.839 167.582 482.757 167.92 483.936 167.92C484.803 167.92 485.557 167.747 486.198 167.4C486.839 167.036 487.333 166.516 487.68 165.84C488.027 165.147 488.2 164.315 488.2 163.344V156.22H490.696V170H488.33V166.282L488.72 167.27C488.269 168.189 487.593 168.899 486.692 169.402C485.791 169.905 484.777 170.156 483.65 170.156ZM501.974 170.156C500.5 170.156 499.2 169.853 498.074 169.246C496.964 168.639 496.098 167.807 495.474 166.75C494.867 165.693 494.564 164.479 494.564 163.11C494.564 161.741 494.858 160.527 495.448 159.47C496.054 158.413 496.878 157.589 497.918 157C498.975 156.393 500.162 156.09 501.48 156.09C502.814 156.09 503.993 156.385 505.016 156.974C506.038 157.563 506.836 158.395 507.408 159.47C507.997 160.527 508.292 161.767 508.292 163.188C508.292 163.292 508.283 163.413 508.266 163.552C508.266 163.691 508.257 163.821 508.24 163.942H496.514V162.148H506.94L505.926 162.772C505.943 161.888 505.761 161.099 505.38 160.406C504.998 159.713 504.47 159.175 503.794 158.794C503.135 158.395 502.364 158.196 501.48 158.196C500.613 158.196 499.842 158.395 499.166 158.794C498.49 159.175 497.961 159.721 497.58 160.432C497.198 161.125 497.008 161.923 497.008 162.824V163.24C497.008 164.159 497.216 164.982 497.632 165.71C498.065 166.421 498.663 166.975 499.426 167.374C500.188 167.773 501.064 167.972 502.052 167.972C502.866 167.972 503.603 167.833 504.262 167.556C504.938 167.279 505.527 166.863 506.03 166.308L507.408 167.92C506.784 168.648 506.004 169.203 505.068 169.584C504.149 169.965 503.118 170.156 501.974 170.156ZM512.148 170V156.22H514.54V159.964L514.306 159.028C514.687 158.075 515.328 157.347 516.23 156.844C517.131 156.341 518.24 156.09 519.558 156.09V158.508C519.454 158.491 519.35 158.482 519.246 158.482C519.159 158.482 519.072 158.482 518.986 158.482C517.651 158.482 516.594 158.881 515.814 159.678C515.034 160.475 514.644 161.628 514.644 163.136V170H512.148ZM524.181 175.2C523.522 175.2 522.881 175.087 522.257 174.862C521.633 174.654 521.095 174.342 520.645 173.926L521.711 172.054C522.057 172.383 522.439 172.635 522.855 172.808C523.271 172.981 523.713 173.068 524.181 173.068C524.787 173.068 525.29 172.912 525.689 172.6C526.087 172.288 526.46 171.733 526.807 170.936L527.665 169.038L527.925 168.726L533.333 156.22H535.777L529.095 171.378C528.696 172.349 528.245 173.111 527.743 173.666C527.257 174.221 526.72 174.611 526.131 174.836C525.541 175.079 524.891 175.2 524.181 175.2ZM527.457 170.442L521.165 156.22H523.765L529.121 168.492L527.457 170.442Z" fill="#0BAB7C"/>
<path d="M727.762 117.406H737.148V119.642H727.762V117.406ZM728.022 127H725.422V108.8H738.266V111.062H728.022V127ZM747.656 127.156C746.183 127.156 744.883 126.853 743.756 126.246C742.647 125.639 741.78 124.807 741.156 123.75C740.55 122.693 740.246 121.479 740.246 120.11C740.246 118.741 740.541 117.527 741.13 116.47C741.737 115.413 742.56 114.589 743.6 114C744.658 113.393 745.845 113.09 747.162 113.09C748.497 113.09 749.676 113.385 750.698 113.974C751.721 114.563 752.518 115.395 753.09 116.47C753.68 117.527 753.974 118.767 753.974 120.188C753.974 120.292 753.966 120.413 753.948 120.552C753.948 120.691 753.94 120.821 753.922 120.942H742.196V119.148H752.622L751.608 119.772C751.626 118.888 751.444 118.099 751.062 117.406C750.681 116.713 750.152 116.175 749.476 115.794C748.818 115.395 748.046 115.196 747.162 115.196C746.296 115.196 745.524 115.395 744.848 115.794C744.172 116.175 743.644 116.721 743.262 117.432C742.881 118.125 742.69 118.923 742.69 119.824V120.24C742.69 121.159 742.898 121.982 743.314 122.71C743.748 123.421 744.346 123.975 745.108 124.374C745.871 124.773 746.746 124.972 747.734 124.972C748.549 124.972 749.286 124.833 749.944 124.556C750.62 124.279 751.21 123.863 751.712 123.308L753.09 124.92C752.466 125.648 751.686 126.203 750.75 126.584C749.832 126.965 748.8 127.156 747.656 127.156ZM762.562 127.156C761.175 127.156 760.101 126.783 759.338 126.038C758.575 125.293 758.194 124.227 758.194 122.84V110.204H760.69V122.736C760.69 123.481 760.872 124.053 761.236 124.452C761.617 124.851 762.155 125.05 762.848 125.05C763.628 125.05 764.278 124.833 764.798 124.4L765.578 126.194C765.197 126.523 764.737 126.766 764.2 126.922C763.68 127.078 763.134 127.156 762.562 127.156ZM755.854 115.274V113.22H764.642V115.274H755.854ZM774.535 127.156C773.131 127.156 771.874 126.853 770.765 126.246C769.673 125.639 768.815 124.807 768.191 123.75C767.567 122.693 767.255 121.479 767.255 120.11C767.255 118.741 767.567 117.527 768.191 116.47C768.815 115.413 769.673 114.589 770.765 114C771.874 113.393 773.131 113.09 774.535 113.09C775.783 113.09 776.892 113.341 777.863 113.844C778.851 114.329 779.613 115.057 780.151 116.028L778.253 117.25C777.802 116.574 777.247 116.08 776.589 115.768C775.947 115.439 775.254 115.274 774.509 115.274C773.607 115.274 772.801 115.473 772.091 115.872C771.38 116.271 770.817 116.834 770.401 117.562C769.985 118.273 769.777 119.122 769.777 120.11C769.777 121.098 769.985 121.956 770.401 122.684C770.817 123.412 771.38 123.975 772.091 124.374C772.801 124.773 773.607 124.972 774.509 124.972C775.254 124.972 775.947 124.816 776.589 124.504C777.247 124.175 777.802 123.672 778.253 122.996L780.151 124.192C779.613 125.145 778.851 125.882 777.863 126.402C776.892 126.905 775.783 127.156 774.535 127.156ZM790.952 113.09C792.079 113.09 793.067 113.307 793.916 113.74C794.783 114.173 795.459 114.832 795.944 115.716C796.43 116.6 796.672 117.718 796.672 119.07V127H794.176V119.356C794.176 118.021 793.847 117.016 793.188 116.34C792.547 115.664 791.637 115.326 790.458 115.326C789.574 115.326 788.803 115.499 788.144 115.846C787.486 116.193 786.974 116.704 786.61 117.38C786.264 118.056 786.09 118.897 786.09 119.902V127H783.594V107.708H786.09V116.938L785.596 115.95C786.047 115.049 786.74 114.347 787.676 113.844C788.612 113.341 789.704 113.09 790.952 113.09ZM807.818 127.156C806.344 127.156 805.044 126.853 803.918 126.246C802.808 125.639 801.942 124.807 801.318 123.75C800.711 122.693 800.408 121.479 800.408 120.11C800.408 118.741 800.702 117.527 801.292 116.47C801.898 115.413 802.722 114.589 803.762 114C804.819 113.393 806.006 113.09 807.324 113.09C808.658 113.09 809.837 113.385 810.86 113.974C811.882 114.563 812.68 115.395 813.252 116.47C813.841 117.527 814.136 118.767 814.136 120.188C814.136 120.292 814.127 120.413 814.11 120.552C814.11 120.691 814.101 120.821 814.084 120.942H802.358V119.148H812.784L811.77 119.772C811.787 118.888 811.605 118.099 811.224 117.406C810.842 116.713 810.314 116.175 809.638 115.794C808.979 115.395 808.208 115.196 807.324 115.196C806.457 115.196 805.686 115.395 805.01 115.794C804.334 116.175 803.805 116.721 803.424 117.432C803.042 118.125 802.852 118.923 802.852 119.824V120.24C802.852 121.159 803.06 121.982 803.476 122.71C803.909 123.421 804.507 123.975 805.27 124.374C806.032 124.773 806.908 124.972 807.896 124.972C808.71 124.972 809.447 124.833 810.106 124.556C810.782 124.279 811.371 123.863 811.874 123.308L813.252 124.92C812.628 125.648 811.848 126.203 810.912 126.584C809.993 126.965 808.962 127.156 807.818 127.156ZM823.686 127.156C822.351 127.156 821.155 126.861 820.098 126.272C819.058 125.683 818.234 124.859 817.628 123.802C817.021 122.745 816.718 121.514 816.718 120.11C816.718 118.706 817.021 117.484 817.628 116.444C818.234 115.387 819.058 114.563 820.098 113.974C821.155 113.385 822.351 113.09 823.686 113.09C824.847 113.09 825.896 113.35 826.832 113.87C827.768 114.39 828.513 115.17 829.068 116.21C829.64 117.25 829.926 118.55 829.926 120.11C829.926 121.67 829.648 122.97 829.094 124.01C828.556 125.05 827.82 125.839 826.884 126.376C825.948 126.896 824.882 127.156 823.686 127.156ZM823.894 124.972C824.76 124.972 825.54 124.773 826.234 124.374C826.944 123.975 827.499 123.412 827.898 122.684C828.314 121.939 828.522 121.081 828.522 120.11C828.522 119.122 828.314 118.273 827.898 117.562C827.499 116.834 826.944 116.271 826.234 115.872C825.54 115.473 824.76 115.274 823.894 115.274C823.01 115.274 822.221 115.473 821.528 115.872C820.834 116.271 820.28 116.834 819.864 117.562C819.448 118.273 819.24 119.122 819.24 120.11C819.24 121.081 819.448 121.939 819.864 122.684C820.28 123.412 820.834 123.975 821.528 124.374C822.221 124.773 823.01 124.972 823.894 124.972ZM828.6 127V123.282L828.756 120.084L828.496 116.886V107.708H830.992V127H828.6ZM841.085 127L849.327 108.8H851.901L860.169 127H857.439L850.081 110.256H851.121L843.763 127H841.085ZM844.595 122.45L845.297 120.37H855.541L856.295 122.45H844.595ZM870.216 127.156C869.072 127.156 868.023 126.896 867.07 126.376C866.134 125.839 865.38 125.05 864.808 124.01C864.253 122.97 863.976 121.67 863.976 120.11C863.976 118.55 864.244 117.25 864.782 116.21C865.336 115.17 866.082 114.39 867.018 113.87C867.971 113.35 869.037 113.09 870.216 113.09C871.568 113.09 872.764 113.385 873.804 113.974C874.844 114.563 875.667 115.387 876.274 116.444C876.88 117.484 877.184 118.706 877.184 120.11C877.184 121.514 876.88 122.745 876.274 123.802C875.667 124.859 874.844 125.683 873.804 126.272C872.764 126.861 871.568 127.156 870.216 127.156ZM862.91 132.044V113.22H865.302V116.938L865.146 120.136L865.406 123.334V132.044H862.91ZM870.008 124.972C870.892 124.972 871.68 124.773 872.374 124.374C873.084 123.975 873.639 123.412 874.038 122.684C874.454 121.939 874.662 121.081 874.662 120.11C874.662 119.122 874.454 118.273 874.038 117.562C873.639 116.834 873.084 116.271 872.374 115.872C871.68 115.473 870.892 115.274 870.008 115.274C869.141 115.274 868.352 115.473 867.642 115.872C866.948 116.271 866.394 116.834 865.978 117.562C865.579 118.273 865.38 119.122 865.38 120.11C865.38 121.081 865.579 121.939 865.978 122.684C866.394 123.412 866.948 123.975 867.642 124.374C868.352 124.773 869.141 124.972 870.008 124.972ZM881.022 127V113.22H883.518V127H881.022ZM882.27 110.568C881.785 110.568 881.378 110.412 881.048 110.1C880.736 109.788 880.58 109.407 880.58 108.956C880.58 108.488 880.736 108.098 881.048 107.786C881.378 107.474 881.785 107.318 882.27 107.318C882.756 107.318 883.154 107.474 883.466 107.786C883.796 108.081 883.96 108.453 883.96 108.904C883.96 109.372 883.804 109.771 883.492 110.1C883.18 110.412 882.773 110.568 882.27 110.568ZM774.983 168V149.8H782.653C784.594 149.8 786.302 150.181 787.775 150.944C789.266 151.707 790.418 152.773 791.233 154.142C792.065 155.511 792.481 157.097 792.481 158.9C792.481 160.703 792.065 162.289 791.233 163.658C790.418 165.027 789.266 166.093 787.775 166.856C786.302 167.619 784.594 168 782.653 168H774.983ZM777.583 165.738H782.497C784.005 165.738 785.305 165.452 786.397 164.88C787.506 164.308 788.364 163.511 788.971 162.488C789.578 161.448 789.881 160.252 789.881 158.9C789.881 157.531 789.578 156.335 788.971 155.312C788.364 154.289 787.506 153.492 786.397 152.92C785.305 152.348 784.005 152.062 782.497 152.062H777.583V165.738ZM805.043 168V165.088L804.913 164.542V159.576C804.913 158.519 804.601 157.704 803.977 157.132C803.371 156.543 802.452 156.248 801.221 156.248C800.407 156.248 799.609 156.387 798.829 156.664C798.049 156.924 797.391 157.279 796.853 157.73L795.813 155.858C796.524 155.286 797.373 154.853 798.361 154.558C799.367 154.246 800.415 154.09 801.507 154.09C803.397 154.09 804.853 154.549 805.875 155.468C806.898 156.387 807.409 157.791 807.409 159.68V168H805.043ZM800.519 168.156C799.497 168.156 798.595 167.983 797.815 167.636C797.053 167.289 796.463 166.813 796.047 166.206C795.631 165.582 795.423 164.88 795.423 164.1C795.423 163.355 795.597 162.679 795.943 162.072C796.307 161.465 796.888 160.98 797.685 160.616C798.5 160.252 799.592 160.07 800.961 160.07H805.329V161.864H801.065C799.817 161.864 798.977 162.072 798.543 162.488C798.11 162.904 797.893 163.407 797.893 163.996C797.893 164.672 798.162 165.218 798.699 165.634C799.237 166.033 799.982 166.232 800.935 166.232C801.871 166.232 802.686 166.024 803.379 165.608C804.09 165.192 804.601 164.585 804.913 163.788L805.407 165.504C805.078 166.319 804.497 166.969 803.665 167.454C802.833 167.922 801.785 168.156 800.519 168.156ZM817.15 168.156C815.764 168.156 814.689 167.783 813.926 167.038C813.164 166.293 812.782 165.227 812.782 163.84V151.204H815.278V163.736C815.278 164.481 815.46 165.053 815.824 165.452C816.206 165.851 816.743 166.05 817.436 166.05C818.216 166.05 818.866 165.833 819.386 165.4L820.166 167.194C819.785 167.523 819.326 167.766 818.788 167.922C818.268 168.078 817.722 168.156 817.15 168.156ZM810.442 156.274V154.22H819.23V156.274H810.442ZM832.128 168V165.088L831.998 164.542V159.576C831.998 158.519 831.686 157.704 831.062 157.132C830.455 156.543 829.537 156.248 828.306 156.248C827.491 156.248 826.694 156.387 825.914 156.664C825.134 156.924 824.475 157.279 823.938 157.73L822.898 155.858C823.609 155.286 824.458 154.853 825.446 154.558C826.451 154.246 827.5 154.09 828.592 154.09C830.481 154.09 831.937 154.549 832.96 155.468C833.983 156.387 834.494 157.791 834.494 159.68V168H832.128ZM827.604 168.156C826.581 168.156 825.68 167.983 824.9 167.636C824.137 167.289 823.548 166.813 823.132 166.206C822.716 165.582 822.508 164.88 822.508 164.1C822.508 163.355 822.681 162.679 823.028 162.072C823.392 161.465 823.973 160.98 824.77 160.616C825.585 160.252 826.677 160.07 828.046 160.07H832.414V161.864H828.15C826.902 161.864 826.061 162.072 825.628 162.488C825.195 162.904 824.978 163.407 824.978 163.996C824.978 164.672 825.247 165.218 825.784 165.634C826.321 166.033 827.067 166.232 828.02 166.232C828.956 166.232 829.771 166.024 830.464 165.608C831.175 165.192 831.686 164.585 831.998 163.788L832.492 165.504C832.163 166.319 831.582 166.969 830.75 167.454C829.918 167.922 828.869 168.156 827.604 168.156Z" fill="white"/>
<path d="M1044.72 128.208C1043.65 128.208 1042.64 127.983 1041.71 127.532C1040.77 127.081 1040.01 126.431 1039.42 125.582L1040.93 123.814C1041.43 124.507 1041.99 125.045 1042.62 125.426C1043.26 125.79 1043.96 125.972 1044.72 125.972C1046.8 125.972 1047.84 124.741 1047.84 122.28V112.062H1041.27V109.8H1050.42V122.15C1050.42 124.178 1049.93 125.695 1048.96 126.7C1048.01 127.705 1046.6 128.208 1044.72 128.208ZM1061.64 128.156C1060.25 128.156 1059.02 127.853 1057.95 127.246C1056.87 126.639 1056.03 125.807 1055.4 124.75C1054.78 123.675 1054.47 122.462 1054.47 121.11C1054.47 119.741 1054.78 118.527 1055.4 117.47C1056.03 116.413 1056.87 115.589 1057.95 115C1059.02 114.393 1060.25 114.09 1061.64 114.09C1063.01 114.09 1064.23 114.393 1065.31 115C1066.4 115.589 1067.25 116.413 1067.86 117.47C1068.48 118.51 1068.79 119.723 1068.79 121.11C1068.79 122.479 1068.48 123.693 1067.86 124.75C1067.25 125.807 1066.4 126.639 1065.31 127.246C1064.23 127.853 1063.01 128.156 1061.64 128.156ZM1061.64 125.972C1062.53 125.972 1063.31 125.773 1064.01 125.374C1064.72 124.975 1065.27 124.412 1065.67 123.684C1066.07 122.939 1066.27 122.081 1066.27 121.11C1066.27 120.122 1066.07 119.273 1065.67 118.562C1065.27 117.834 1064.72 117.271 1064.01 116.872C1063.31 116.473 1062.53 116.274 1061.64 116.274C1060.76 116.274 1059.97 116.473 1059.28 116.872C1058.58 117.271 1058.03 117.834 1057.61 118.562C1057.2 119.273 1056.99 120.122 1056.99 121.11C1056.99 122.081 1057.2 122.939 1057.61 123.684C1058.03 124.412 1058.58 124.975 1059.28 125.374C1059.97 125.773 1060.76 125.972 1061.64 125.972ZM1079.94 128.156C1078.76 128.156 1077.69 127.896 1076.74 127.376C1075.81 126.839 1075.06 126.05 1074.51 125.01C1073.97 123.97 1073.7 122.67 1073.7 121.11C1073.7 119.55 1073.98 118.25 1074.53 117.21C1075.1 116.17 1075.86 115.39 1076.79 114.87C1077.75 114.35 1078.8 114.09 1079.94 114.09C1081.29 114.09 1082.49 114.385 1083.53 114.974C1084.57 115.563 1085.39 116.387 1086 117.444C1086.6 118.484 1086.91 119.706 1086.91 121.11C1086.91 122.514 1086.6 123.745 1086 124.802C1085.39 125.859 1084.57 126.683 1083.53 127.272C1082.49 127.861 1081.29 128.156 1079.94 128.156ZM1072.63 128V108.708H1075.13V117.886L1074.87 121.084L1075.03 124.282V128H1072.63ZM1079.73 125.972C1080.62 125.972 1081.4 125.773 1082.1 125.374C1082.81 124.975 1083.36 124.412 1083.76 123.684C1084.18 122.939 1084.39 122.081 1084.39 121.11C1084.39 120.122 1084.18 119.273 1083.76 118.562C1083.36 117.834 1082.81 117.271 1082.1 116.872C1081.4 116.473 1080.62 116.274 1079.73 116.274C1078.86 116.274 1078.08 116.473 1077.37 116.872C1076.67 117.271 1076.12 117.834 1075.7 118.562C1075.3 119.273 1075.1 120.122 1075.1 121.11C1075.1 122.081 1075.3 122.939 1075.7 123.684C1076.12 124.412 1076.67 124.975 1077.37 125.374C1078.08 125.773 1078.86 125.972 1079.73 125.972ZM1098.48 128V109.8H1106.15C1108.09 109.8 1109.8 110.181 1111.27 110.944C1112.77 111.707 1113.92 112.773 1114.73 114.142C1115.56 115.511 1115.98 117.097 1115.98 118.9C1115.98 120.703 1115.56 122.289 1114.73 123.658C1113.92 125.027 1112.77 126.093 1111.27 126.856C1109.8 127.619 1108.09 128 1106.15 128H1098.48ZM1101.08 125.738H1106C1107.5 125.738 1108.8 125.452 1109.9 124.88C1111.01 124.308 1111.86 123.511 1112.47 122.488C1113.08 121.448 1113.38 120.252 1113.38 118.9C1113.38 117.531 1113.08 116.335 1112.47 115.312C1111.86 114.289 1111.01 113.492 1109.9 112.92C1108.8 112.348 1107.5 112.062 1106 112.062H1101.08V125.738ZM1126.13 128.156C1124.65 128.156 1123.35 127.853 1122.23 127.246C1121.12 126.639 1120.25 125.807 1119.63 124.75C1119.02 123.693 1118.72 122.479 1118.72 121.11C1118.72 119.741 1119.01 118.527 1119.6 117.47C1120.21 116.413 1121.03 115.589 1122.07 115C1123.13 114.393 1124.31 114.09 1125.63 114.09C1126.97 114.09 1128.14 114.385 1129.17 114.974C1130.19 115.563 1130.99 116.395 1131.56 117.47C1132.15 118.527 1132.44 119.767 1132.44 121.188C1132.44 121.292 1132.43 121.413 1132.42 121.552C1132.42 121.691 1132.41 121.821 1132.39 121.942H1120.67V120.148H1131.09L1130.08 120.772C1130.09 119.888 1129.91 119.099 1129.53 118.406C1129.15 117.713 1128.62 117.175 1127.95 116.794C1127.29 116.395 1126.52 116.196 1125.63 116.196C1124.76 116.196 1123.99 116.395 1123.32 116.794C1122.64 117.175 1122.11 117.721 1121.73 118.432C1121.35 119.125 1121.16 119.923 1121.16 120.824V121.24C1121.16 122.159 1121.37 122.982 1121.78 123.71C1122.22 124.421 1122.81 124.975 1123.58 125.374C1124.34 125.773 1125.22 125.972 1126.2 125.972C1127.02 125.972 1127.75 125.833 1128.41 125.556C1129.09 125.279 1129.68 124.863 1130.18 124.308L1131.56 125.92C1130.94 126.648 1130.16 127.203 1129.22 127.584C1128.3 127.965 1127.27 128.156 1126.13 128.156ZM1141.03 128.156C1139.64 128.156 1138.57 127.783 1137.81 127.038C1137.04 126.293 1136.66 125.227 1136.66 123.84V111.204H1139.16V123.736C1139.16 124.481 1139.34 125.053 1139.7 125.452C1140.09 125.851 1140.62 126.05 1141.32 126.05C1142.1 126.05 1142.75 125.833 1143.27 125.4L1144.05 127.194C1143.67 127.523 1143.21 127.766 1142.67 127.922C1142.15 128.078 1141.6 128.156 1141.03 128.156ZM1134.32 116.274V114.22H1143.11V116.274H1134.32ZM1156.01 128V125.088L1155.88 124.542V119.576C1155.88 118.519 1155.57 117.704 1154.94 117.132C1154.34 116.543 1153.42 116.248 1152.19 116.248C1151.37 116.248 1150.57 116.387 1149.79 116.664C1149.01 116.924 1148.36 117.279 1147.82 117.73L1146.78 115.858C1147.49 115.286 1148.34 114.853 1149.33 114.558C1150.33 114.246 1151.38 114.09 1152.47 114.09C1154.36 114.09 1155.82 114.549 1156.84 115.468C1157.86 116.387 1158.37 117.791 1158.37 119.68V128H1156.01ZM1151.48 128.156C1150.46 128.156 1149.56 127.983 1148.78 127.636C1148.02 127.289 1147.43 126.813 1147.01 126.206C1146.6 125.582 1146.39 124.88 1146.39 124.1C1146.39 123.355 1146.56 122.679 1146.91 122.072C1147.27 121.465 1147.85 120.98 1148.65 120.616C1149.47 120.252 1150.56 120.07 1151.93 120.07H1156.29V121.864H1152.03C1150.78 121.864 1149.94 122.072 1149.51 122.488C1149.08 122.904 1148.86 123.407 1148.86 123.996C1148.86 124.672 1149.13 125.218 1149.66 125.634C1150.2 126.033 1150.95 126.232 1151.9 126.232C1152.84 126.232 1153.65 126.024 1154.34 125.608C1155.06 125.192 1155.57 124.585 1155.88 123.788L1156.37 125.504C1156.04 126.319 1155.46 126.969 1154.63 127.454C1153.8 127.922 1152.75 128.156 1151.48 128.156ZM1163.38 128V114.22H1165.88V128H1163.38ZM1164.63 111.568C1164.15 111.568 1163.74 111.412 1163.41 111.1C1163.1 110.788 1162.94 110.407 1162.94 109.956C1162.94 109.488 1163.1 109.098 1163.41 108.786C1163.74 108.474 1164.15 108.318 1164.63 108.318C1165.12 108.318 1165.52 108.474 1165.83 108.786C1166.16 109.081 1166.32 109.453 1166.32 109.904C1166.32 110.372 1166.17 110.771 1165.85 111.1C1165.54 111.412 1165.13 111.568 1164.63 111.568ZM1171.04 128V108.708H1173.53V128H1171.04ZM1182.64 128.156C1181.5 128.156 1180.4 128 1179.36 127.688C1178.34 127.376 1177.53 126.995 1176.95 126.544L1177.99 124.568C1178.57 124.967 1179.3 125.305 1180.17 125.582C1181.04 125.859 1181.92 125.998 1182.82 125.998C1183.98 125.998 1184.81 125.833 1185.32 125.504C1185.84 125.175 1186.1 124.715 1186.1 124.126C1186.1 123.693 1185.94 123.355 1185.63 123.112C1185.32 122.869 1184.9 122.687 1184.38 122.566C1183.88 122.445 1183.32 122.341 1182.69 122.254C1182.07 122.15 1181.44 122.029 1180.82 121.89C1180.2 121.734 1179.62 121.526 1179.1 121.266C1178.58 120.989 1178.17 120.616 1177.86 120.148C1177.54 119.663 1177.39 119.021 1177.39 118.224C1177.39 117.392 1177.62 116.664 1178.09 116.04C1178.56 115.416 1179.22 114.939 1180.07 114.61C1180.93 114.263 1181.95 114.09 1183.13 114.09C1184.03 114.09 1184.94 114.203 1185.86 114.428C1186.8 114.636 1187.56 114.939 1188.15 115.338L1187.09 117.314C1186.46 116.898 1185.81 116.612 1185.14 116.456C1184.46 116.3 1183.78 116.222 1183.11 116.222C1182.02 116.222 1181.2 116.404 1180.66 116.768C1180.13 117.115 1179.86 117.565 1179.86 118.12C1179.86 118.588 1180.01 118.952 1180.33 119.212C1180.65 119.455 1181.07 119.645 1181.57 119.784C1182.09 119.923 1182.67 120.044 1183.29 120.148C1183.91 120.235 1184.54 120.356 1185.16 120.512C1185.79 120.651 1186.35 120.85 1186.85 121.11C1187.37 121.37 1187.79 121.734 1188.1 122.202C1188.43 122.67 1188.59 123.294 1188.59 124.074C1188.59 124.906 1188.35 125.625 1187.87 126.232C1187.38 126.839 1186.7 127.315 1185.81 127.662C1184.93 127.991 1183.87 128.156 1182.64 128.156Z" fill="#0BAB7C"/>
<path d="M1059.35 443.208C1057.96 443.208 1056.68 442.983 1055.5 442.532C1054.34 442.064 1053.32 441.414 1052.46 440.582C1051.61 439.733 1050.94 438.745 1050.45 437.618C1049.97 436.491 1049.73 435.252 1049.73 433.9C1049.73 432.548 1049.97 431.309 1050.45 430.182C1050.94 429.055 1051.62 428.076 1052.48 427.244C1053.35 426.395 1054.36 425.745 1055.52 425.294C1056.7 424.826 1057.99 424.592 1059.37 424.592C1060.78 424.592 1062.07 424.835 1063.25 425.32C1064.44 425.788 1065.46 426.49 1066.29 427.426L1064.6 429.064C1063.9 428.336 1063.12 427.799 1062.26 427.452C1061.39 427.088 1060.46 426.906 1059.48 426.906C1058.45 426.906 1057.5 427.079 1056.62 427.426C1055.75 427.773 1055 428.258 1054.35 428.882C1053.71 429.506 1053.21 430.251 1052.85 431.118C1052.5 431.967 1052.33 432.895 1052.33 433.9C1052.33 434.905 1052.5 435.841 1052.85 436.708C1053.21 437.557 1053.71 438.294 1054.35 438.918C1055 439.542 1055.75 440.027 1056.62 440.374C1057.5 440.721 1058.45 440.894 1059.48 440.894C1060.46 440.894 1061.39 440.721 1062.26 440.374C1063.12 440.01 1063.9 439.455 1064.6 438.71L1066.29 440.348C1065.46 441.284 1064.44 441.995 1063.25 442.48C1062.07 442.965 1060.77 443.208 1059.35 443.208ZM1075.34 443.156C1073.95 443.156 1072.72 442.853 1071.65 442.246C1070.57 441.639 1069.72 440.807 1069.1 439.75C1068.48 438.675 1068.16 437.462 1068.16 436.11C1068.16 434.741 1068.48 433.527 1069.1 432.47C1069.72 431.413 1070.57 430.589 1071.65 430C1072.72 429.393 1073.95 429.09 1075.34 429.09C1076.71 429.09 1077.93 429.393 1079.01 430C1080.1 430.589 1080.95 431.413 1081.55 432.47C1082.18 433.51 1082.49 434.723 1082.49 436.11C1082.49 437.479 1082.18 438.693 1081.55 439.75C1080.95 440.807 1080.1 441.639 1079.01 442.246C1077.93 442.853 1076.71 443.156 1075.34 443.156ZM1075.34 440.972C1076.22 440.972 1077.01 440.773 1077.71 440.374C1078.42 439.975 1078.97 439.412 1079.37 438.684C1079.77 437.939 1079.97 437.081 1079.97 436.11C1079.97 435.122 1079.77 434.273 1079.37 433.562C1078.97 432.834 1078.42 432.271 1077.71 431.872C1077.01 431.473 1076.22 431.274 1075.34 431.274C1074.46 431.274 1073.67 431.473 1072.97 431.872C1072.28 432.271 1071.73 432.834 1071.31 433.562C1070.89 434.273 1070.69 435.122 1070.69 436.11C1070.69 437.081 1070.89 437.939 1071.31 438.684C1071.73 439.412 1072.28 439.975 1072.97 440.374C1073.67 440.773 1074.46 440.972 1075.34 440.972ZM1103.57 429.09C1104.68 429.09 1105.66 429.307 1106.51 429.74C1107.36 430.173 1108.02 430.832 1108.48 431.716C1108.97 432.6 1109.21 433.718 1109.21 435.07V443H1106.72V435.356C1106.72 434.021 1106.4 433.016 1105.78 432.34C1105.16 431.664 1104.28 431.326 1103.15 431.326C1102.32 431.326 1101.59 431.499 1100.97 431.846C1100.35 432.193 1099.86 432.704 1099.51 433.38C1099.19 434.056 1099.02 434.897 1099.02 435.902V443H1096.52V435.356C1096.52 434.021 1096.21 433.016 1095.59 432.34C1094.98 431.664 1094.11 431.326 1092.96 431.326C1092.15 431.326 1091.43 431.499 1090.8 431.846C1090.18 432.193 1089.7 432.704 1089.35 433.38C1089 434.056 1088.83 434.897 1088.83 435.902V443H1086.33V429.22H1088.72V432.886L1088.33 431.95C1088.77 431.049 1089.44 430.347 1090.34 429.844C1091.24 429.341 1092.29 429.09 1093.48 429.09C1094.8 429.09 1095.94 429.419 1096.89 430.078C1097.84 430.719 1098.47 431.699 1098.76 433.016L1097.75 432.6C1098.16 431.543 1098.89 430.693 1099.93 430.052C1100.97 429.411 1102.18 429.09 1103.57 429.09ZM1121.5 443.156C1120.36 443.156 1119.31 442.896 1118.36 442.376C1117.42 441.839 1116.67 441.05 1116.09 440.01C1115.54 438.97 1115.26 437.67 1115.26 436.11C1115.26 434.55 1115.53 433.25 1116.07 432.21C1116.62 431.17 1117.37 430.39 1118.3 429.87C1119.26 429.35 1120.32 429.09 1121.5 429.09C1122.85 429.09 1124.05 429.385 1125.09 429.974C1126.13 430.563 1126.95 431.387 1127.56 432.444C1128.17 433.484 1128.47 434.706 1128.47 436.11C1128.47 437.514 1128.17 438.745 1127.56 439.802C1126.95 440.859 1126.13 441.683 1125.09 442.272C1124.05 442.861 1122.85 443.156 1121.5 443.156ZM1114.2 448.044V429.22H1116.59V432.938L1116.43 436.136L1116.69 439.334V448.044H1114.2ZM1121.29 440.972C1122.18 440.972 1122.97 440.773 1123.66 440.374C1124.37 439.975 1124.92 439.412 1125.32 438.684C1125.74 437.939 1125.95 437.081 1125.95 436.11C1125.95 435.122 1125.74 434.273 1125.32 433.562C1124.92 432.834 1124.37 432.271 1123.66 431.872C1122.97 431.473 1122.18 431.274 1121.29 431.274C1120.43 431.274 1119.64 431.473 1118.93 431.872C1118.23 432.271 1117.68 432.834 1117.26 433.562C1116.86 434.273 1116.67 435.122 1116.67 436.11C1116.67 437.081 1116.86 437.939 1117.26 438.684C1117.68 439.412 1118.23 439.975 1118.93 440.374C1119.64 440.773 1120.43 440.972 1121.29 440.972ZM1132.31 443V423.708H1134.8V443H1132.31ZM1146.1 443.156C1144.62 443.156 1143.32 442.853 1142.2 442.246C1141.09 441.639 1140.22 440.807 1139.6 439.75C1138.99 438.693 1138.69 437.479 1138.69 436.11C1138.69 434.741 1138.98 433.527 1139.57 432.47C1140.18 431.413 1141 430.589 1142.04 430C1143.1 429.393 1144.28 429.09 1145.6 429.09C1146.94 429.09 1148.12 429.385 1149.14 429.974C1150.16 430.563 1150.96 431.395 1151.53 432.47C1152.12 433.527 1152.41 434.767 1152.41 436.188C1152.41 436.292 1152.41 436.413 1152.39 436.552C1152.39 436.691 1152.38 436.821 1152.36 436.942H1140.64V435.148H1151.06L1150.05 435.772C1150.07 434.888 1149.88 434.099 1149.5 433.406C1149.12 432.713 1148.59 432.175 1147.92 431.794C1147.26 431.395 1146.49 431.196 1145.6 431.196C1144.74 431.196 1143.96 431.395 1143.29 431.794C1142.61 432.175 1142.08 432.721 1141.7 433.432C1141.32 434.125 1141.13 434.923 1141.13 435.824V436.24C1141.13 437.159 1141.34 437.982 1141.75 438.71C1142.19 439.421 1142.79 439.975 1143.55 440.374C1144.31 440.773 1145.19 440.972 1146.17 440.972C1146.99 440.972 1147.73 440.833 1148.38 440.556C1149.06 440.279 1149.65 439.863 1150.15 439.308L1151.53 440.92C1150.91 441.648 1150.13 442.203 1149.19 442.584C1148.27 442.965 1147.24 443.156 1146.1 443.156ZM1161 443.156C1159.62 443.156 1158.54 442.783 1157.78 442.038C1157.02 441.293 1156.63 440.227 1156.63 438.84V426.204H1159.13V438.736C1159.13 439.481 1159.31 440.053 1159.68 440.452C1160.06 440.851 1160.59 441.05 1161.29 441.05C1162.07 441.05 1162.72 440.833 1163.24 440.4L1164.02 442.194C1163.64 442.523 1163.18 442.766 1162.64 442.922C1162.12 443.078 1161.57 443.156 1161 443.156ZM1154.29 431.274V429.22H1163.08V431.274H1154.29ZM1173.1 443.156C1171.63 443.156 1170.33 442.853 1169.2 442.246C1168.09 441.639 1167.23 440.807 1166.6 439.75C1166 438.693 1165.69 437.479 1165.69 436.11C1165.69 434.741 1165.99 433.527 1166.58 432.47C1167.18 431.413 1168.01 430.589 1169.05 430C1170.11 429.393 1171.29 429.09 1172.61 429.09C1173.94 429.09 1175.12 429.385 1176.15 429.974C1177.17 430.563 1177.97 431.395 1178.54 432.47C1179.13 433.527 1179.42 434.767 1179.42 436.188C1179.42 436.292 1179.41 436.413 1179.4 436.552C1179.4 436.691 1179.39 436.821 1179.37 436.942H1167.64V435.148H1178.07L1177.06 435.772C1177.07 434.888 1176.89 434.099 1176.51 433.406C1176.13 432.713 1175.6 432.175 1174.92 431.794C1174.27 431.395 1173.49 431.196 1172.61 431.196C1171.74 431.196 1170.97 431.395 1170.3 431.794C1169.62 432.175 1169.09 432.721 1168.71 433.432C1168.33 434.125 1168.14 434.923 1168.14 435.824V436.24C1168.14 437.159 1168.35 437.982 1168.76 438.71C1169.2 439.421 1169.79 439.975 1170.56 440.374C1171.32 440.773 1172.19 440.972 1173.18 440.972C1174 440.972 1174.73 440.833 1175.39 440.556C1176.07 440.279 1176.66 439.863 1177.16 439.308L1178.54 440.92C1177.91 441.648 1177.13 442.203 1176.2 442.584C1175.28 442.965 1174.25 443.156 1173.1 443.156Z" fill="white"/>
<path d="M750.361 422.208C748.975 422.208 747.692 421.983 746.513 421.532C745.352 421.064 744.338 420.414 743.471 419.582C742.622 418.733 741.955 417.745 741.469 416.618C740.984 415.491 740.741 414.252 740.741 412.9C740.741 411.548 740.984 410.309 741.469 409.182C741.955 408.055 742.631 407.076 743.497 406.244C744.364 405.395 745.378 404.745 746.539 404.294C747.718 403.826 749.001 403.592 750.387 403.592C751.791 403.592 753.083 403.835 754.261 404.32C755.457 404.788 756.471 405.49 757.303 406.426L755.613 408.064C754.92 407.336 754.14 406.799 753.273 406.452C752.407 406.088 751.479 405.906 750.491 405.906C749.469 405.906 748.515 406.079 747.631 406.426C746.765 406.773 746.011 407.258 745.369 407.882C744.728 408.506 744.225 409.251 743.861 410.118C743.515 410.967 743.341 411.895 743.341 412.9C743.341 413.905 743.515 414.841 743.861 415.708C744.225 416.557 744.728 417.294 745.369 417.918C746.011 418.542 746.765 419.027 747.631 419.374C748.515 419.721 749.469 419.894 750.491 419.894C751.479 419.894 752.407 419.721 753.273 419.374C754.14 419.01 754.92 418.455 755.613 417.71L757.303 419.348C756.471 420.284 755.457 420.995 754.261 421.48C753.083 421.965 751.783 422.208 750.361 422.208ZM766.356 422.156C764.97 422.156 763.739 421.853 762.664 421.246C761.59 420.639 760.74 419.807 760.116 418.75C759.492 417.675 759.18 416.462 759.18 415.11C759.18 413.741 759.492 412.527 760.116 411.47C760.74 410.413 761.59 409.589 762.664 409C763.739 408.393 764.97 408.09 766.356 408.09C767.726 408.09 768.948 408.393 770.022 409C771.114 409.589 771.964 410.413 772.57 411.47C773.194 412.51 773.506 413.723 773.506 415.11C773.506 416.479 773.194 417.693 772.57 418.75C771.964 419.807 771.114 420.639 770.022 421.246C768.948 421.853 767.726 422.156 766.356 422.156ZM766.356 419.972C767.24 419.972 768.029 419.773 768.722 419.374C769.433 418.975 769.988 418.412 770.386 417.684C770.785 416.939 770.984 416.081 770.984 415.11C770.984 414.122 770.785 413.273 770.386 412.562C769.988 411.834 769.433 411.271 768.722 410.872C768.029 410.473 767.24 410.274 766.356 410.274C765.472 410.274 764.684 410.473 763.99 410.872C763.297 411.271 762.742 411.834 762.326 412.562C761.91 413.273 761.702 414.122 761.702 415.11C761.702 416.081 761.91 416.939 762.326 417.684C762.742 418.412 763.297 418.975 763.99 419.374C764.684 419.773 765.472 419.972 766.356 419.972ZM794.586 408.09C795.696 408.09 796.675 408.307 797.524 408.74C798.374 409.173 799.032 409.832 799.5 410.716C799.986 411.6 800.228 412.718 800.228 414.07V422H797.732V414.356C797.732 413.021 797.42 412.016 796.796 411.34C796.172 410.664 795.297 410.326 794.17 410.326C793.338 410.326 792.61 410.499 791.986 410.846C791.362 411.193 790.877 411.704 790.53 412.38C790.201 413.056 790.036 413.897 790.036 414.902V422H787.54V414.356C787.54 413.021 787.228 412.016 786.604 411.34C785.998 410.664 785.122 410.326 783.978 410.326C783.164 410.326 782.444 410.499 781.82 410.846C781.196 411.193 780.711 411.704 780.364 412.38C780.018 413.056 779.844 413.897 779.844 414.902V422H777.348V408.22H779.74V411.886L779.35 410.95C779.784 410.049 780.451 409.347 781.352 408.844C782.254 408.341 783.302 408.09 784.498 408.09C785.816 408.09 786.951 408.419 787.904 409.078C788.858 409.719 789.482 410.699 789.776 412.016L788.762 411.6C789.178 410.543 789.906 409.693 790.946 409.052C791.986 408.411 793.2 408.09 794.586 408.09ZM812.517 422.156C811.373 422.156 810.324 421.896 809.371 421.376C808.435 420.839 807.681 420.05 807.109 419.01C806.554 417.97 806.277 416.67 806.277 415.11C806.277 413.55 806.546 412.25 807.083 411.21C807.638 410.17 808.383 409.39 809.319 408.87C810.272 408.35 811.338 408.09 812.517 408.09C813.869 408.09 815.065 408.385 816.105 408.974C817.145 409.563 817.968 410.387 818.575 411.444C819.182 412.484 819.485 413.706 819.485 415.11C819.485 416.514 819.182 417.745 818.575 418.802C817.968 419.859 817.145 420.683 816.105 421.272C815.065 421.861 813.869 422.156 812.517 422.156ZM805.211 427.044V408.22H807.603V411.938L807.447 415.136L807.707 418.334V427.044H805.211ZM812.309 419.972C813.193 419.972 813.982 419.773 814.675 419.374C815.386 418.975 815.94 418.412 816.339 417.684C816.755 416.939 816.963 416.081 816.963 415.11C816.963 414.122 816.755 413.273 816.339 412.562C815.94 411.834 815.386 411.271 814.675 410.872C813.982 410.473 813.193 410.274 812.309 410.274C811.442 410.274 810.654 410.473 809.943 410.872C809.25 411.271 808.695 411.834 808.279 412.562C807.88 413.273 807.681 414.122 807.681 415.11C807.681 416.081 807.88 416.939 808.279 417.684C808.695 418.412 809.25 418.975 809.943 419.374C810.654 419.773 811.442 419.972 812.309 419.972ZM831.751 422V419.088L831.621 418.542V413.576C831.621 412.519 831.309 411.704 830.685 411.132C830.078 410.543 829.159 410.248 827.929 410.248C827.114 410.248 826.317 410.387 825.537 410.664C824.757 410.924 824.098 411.279 823.561 411.73L822.521 409.858C823.231 409.286 824.081 408.853 825.069 408.558C826.074 408.246 827.123 408.09 828.215 408.09C830.104 408.09 831.56 408.549 832.583 409.468C833.605 410.387 834.117 411.791 834.117 413.68V422H831.751ZM827.227 422.156C826.204 422.156 825.303 421.983 824.523 421.636C823.76 421.289 823.171 420.813 822.755 420.206C822.339 419.582 822.131 418.88 822.131 418.1C822.131 417.355 822.304 416.679 822.651 416.072C823.015 415.465 823.595 414.98 824.393 414.616C825.207 414.252 826.299 414.07 827.669 414.07H832.037V415.864H827.773C826.525 415.864 825.684 416.072 825.251 416.488C824.817 416.904 824.601 417.407 824.601 417.996C824.601 418.672 824.869 419.218 825.407 419.634C825.944 420.033 826.689 420.232 827.643 420.232C828.579 420.232 829.393 420.024 830.087 419.608C830.797 419.192 831.309 418.585 831.621 417.788L832.115 419.504C831.785 420.319 831.205 420.969 830.373 421.454C829.541 421.922 828.492 422.156 827.227 422.156ZM846.484 408.09C847.61 408.09 848.598 408.307 849.448 408.74C850.314 409.173 850.99 409.832 851.476 410.716C851.961 411.6 852.204 412.718 852.204 414.07V422H849.708V414.356C849.708 413.021 849.378 412.016 848.72 411.34C848.078 410.664 847.168 410.326 845.99 410.326C845.106 410.326 844.334 410.499 843.676 410.846C843.017 411.193 842.506 411.704 842.142 412.38C841.795 413.056 841.622 413.897 841.622 414.902V422H839.126V408.22H841.518V411.938L841.128 410.95C841.578 410.049 842.272 409.347 843.208 408.844C844.144 408.341 845.236 408.09 846.484 408.09ZM857.557 427.2C856.899 427.2 856.257 427.087 855.633 426.862C855.009 426.654 854.472 426.342 854.021 425.926L855.087 424.054C855.434 424.383 855.815 424.635 856.231 424.808C856.647 424.981 857.089 425.068 857.557 425.068C858.164 425.068 858.667 424.912 859.065 424.6C859.464 424.288 859.837 423.733 860.183 422.936L861.041 421.038L861.301 420.726L866.709 408.22H869.153L862.471 423.378C862.073 424.349 861.622 425.111 861.119 425.666C860.634 426.221 860.097 426.611 859.507 426.836C858.918 427.079 858.268 427.2 857.557 427.2ZM860.833 422.442L854.541 408.22H857.141L862.497 420.492L860.833 422.442ZM760.433 463V444.8H768.103C770.044 444.8 771.752 445.181 773.225 445.944C774.716 446.707 775.868 447.773 776.683 449.142C777.515 450.511 777.931 452.097 777.931 453.9C777.931 455.703 777.515 457.289 776.683 458.658C775.868 460.027 774.716 461.093 773.225 461.856C771.752 462.619 770.044 463 768.103 463H760.433ZM763.033 460.738H767.947C769.455 460.738 770.755 460.452 771.847 459.88C772.956 459.308 773.814 458.511 774.421 457.488C775.028 456.448 775.331 455.252 775.331 453.9C775.331 452.531 775.028 451.335 774.421 450.312C773.814 449.289 772.956 448.492 771.847 447.92C770.755 447.348 769.455 447.062 767.947 447.062H763.033V460.738ZM788.076 463.156C786.602 463.156 785.302 462.853 784.176 462.246C783.066 461.639 782.2 460.807 781.576 459.75C780.969 458.693 780.666 457.479 780.666 456.11C780.666 454.741 780.96 453.527 781.55 452.47C782.156 451.413 782.98 450.589 784.02 450C785.077 449.393 786.264 449.09 787.582 449.09C788.916 449.09 790.095 449.385 791.118 449.974C792.14 450.563 792.938 451.395 793.51 452.47C794.099 453.527 794.394 454.767 794.394 456.188C794.394 456.292 794.385 456.413 794.368 456.552C794.368 456.691 794.359 456.821 794.342 456.942H782.616V455.148H793.042L792.028 455.772C792.045 454.888 791.863 454.099 791.482 453.406C791.1 452.713 790.572 452.175 789.896 451.794C789.237 451.395 788.466 451.196 787.582 451.196C786.715 451.196 785.944 451.395 785.268 451.794C784.592 452.175 784.063 452.721 783.682 453.432C783.3 454.125 783.11 454.923 783.11 455.824V456.24C783.11 457.159 783.318 457.982 783.734 458.71C784.167 459.421 784.765 459.975 785.528 460.374C786.29 460.773 787.166 460.972 788.154 460.972C788.968 460.972 789.705 460.833 790.364 460.556C791.04 460.279 791.629 459.863 792.132 459.308L793.51 460.92C792.886 461.648 792.106 462.203 791.17 462.584C790.251 462.965 789.22 463.156 788.076 463.156ZM802.981 463.156C801.595 463.156 800.52 462.783 799.757 462.038C798.995 461.293 798.613 460.227 798.613 458.84V446.204H801.109V458.736C801.109 459.481 801.291 460.053 801.655 460.452C802.037 460.851 802.574 461.05 803.267 461.05C804.047 461.05 804.697 460.833 805.217 460.4L805.997 462.194C805.616 462.523 805.157 462.766 804.619 462.922C804.099 463.078 803.553 463.156 802.981 463.156ZM796.273 451.274V449.22H805.061V451.274H796.273ZM817.959 463V460.088L817.829 459.542V454.576C817.829 453.519 817.517 452.704 816.893 452.132C816.286 451.543 815.368 451.248 814.137 451.248C813.322 451.248 812.525 451.387 811.745 451.664C810.965 451.924 810.306 452.279 809.769 452.73L808.729 450.858C809.44 450.286 810.289 449.853 811.277 449.558C812.282 449.246 813.331 449.09 814.423 449.09C816.312 449.09 817.768 449.549 818.791 450.468C819.814 451.387 820.325 452.791 820.325 454.68V463H817.959ZM813.435 463.156C812.412 463.156 811.511 462.983 810.731 462.636C809.968 462.289 809.379 461.813 808.963 461.206C808.547 460.582 808.339 459.88 808.339 459.1C808.339 458.355 808.512 457.679 808.859 457.072C809.223 456.465 809.804 455.98 810.601 455.616C811.416 455.252 812.508 455.07 813.877 455.07H818.245V456.864H813.981C812.733 456.864 811.892 457.072 811.459 457.488C811.026 457.904 810.809 458.407 810.809 458.996C810.809 459.672 811.078 460.218 811.615 460.634C812.152 461.033 812.898 461.232 813.851 461.232C814.787 461.232 815.602 461.024 816.295 460.608C817.006 460.192 817.517 459.585 817.829 458.788L818.323 460.504C817.994 461.319 817.413 461.969 816.581 462.454C815.749 462.922 814.7 463.156 813.435 463.156ZM825.334 463V449.22H827.83V463H825.334ZM826.582 446.568C826.097 446.568 825.689 446.412 825.36 446.1C825.048 445.788 824.892 445.407 824.892 444.956C824.892 444.488 825.048 444.098 825.36 443.786C825.689 443.474 826.097 443.318 826.582 443.318C827.067 443.318 827.466 443.474 827.778 443.786C828.107 444.081 828.272 444.453 828.272 444.904C828.272 445.372 828.116 445.771 827.804 446.1C827.492 446.412 827.085 446.568 826.582 446.568ZM832.986 463V443.708H835.482V463H832.986ZM844.59 463.156C843.446 463.156 842.354 463 841.314 462.688C840.291 462.376 839.485 461.995 838.896 461.544L839.936 459.568C840.525 459.967 841.253 460.305 842.12 460.582C842.986 460.859 843.87 460.998 844.772 460.998C845.933 460.998 846.765 460.833 847.268 460.504C847.788 460.175 848.048 459.715 848.048 459.126C848.048 458.693 847.892 458.355 847.58 458.112C847.268 457.869 846.852 457.687 846.332 457.566C845.829 457.445 845.266 457.341 844.642 457.254C844.018 457.15 843.394 457.029 842.77 456.89C842.146 456.734 841.574 456.526 841.054 456.266C840.534 455.989 840.118 455.616 839.806 455.148C839.494 454.663 839.338 454.021 839.338 453.224C839.338 452.392 839.572 451.664 840.04 451.04C840.508 450.416 841.166 449.939 842.016 449.61C842.882 449.263 843.905 449.09 845.084 449.09C845.985 449.09 846.895 449.203 847.814 449.428C848.75 449.636 849.512 449.939 850.102 450.338L849.036 452.314C848.412 451.898 847.762 451.612 847.086 451.456C846.41 451.3 845.734 451.222 845.058 451.222C843.966 451.222 843.151 451.404 842.614 451.768C842.076 452.115 841.808 452.565 841.808 453.12C841.808 453.588 841.964 453.952 842.276 454.212C842.605 454.455 843.021 454.645 843.524 454.784C844.044 454.923 844.616 455.044 845.24 455.148C845.864 455.235 846.488 455.356 847.112 455.512C847.736 455.651 848.299 455.85 848.802 456.11C849.322 456.37 849.738 456.734 850.05 457.202C850.379 457.67 850.544 458.294 850.544 459.074C850.544 459.906 850.301 460.625 849.816 461.232C849.33 461.839 848.646 462.315 847.762 462.662C846.878 462.991 845.82 463.156 844.59 463.156Z" fill="#0BAB7C"/>
<path d="M440.361 422.208C438.975 422.208 437.692 421.983 436.513 421.532C435.352 421.064 434.338 420.414 433.471 419.582C432.622 418.733 431.955 417.745 431.469 416.618C430.984 415.491 430.741 414.252 430.741 412.9C430.741 411.548 430.984 410.309 431.469 409.182C431.955 408.055 432.631 407.076 433.497 406.244C434.364 405.395 435.378 404.745 436.539 404.294C437.718 403.826 439.001 403.592 440.387 403.592C441.791 403.592 443.083 403.835 444.261 404.32C445.457 404.788 446.471 405.49 447.303 406.426L445.613 408.064C444.92 407.336 444.14 406.799 443.273 406.452C442.407 406.088 441.479 405.906 440.491 405.906C439.469 405.906 438.515 406.079 437.631 406.426C436.765 406.773 436.011 407.258 435.369 407.882C434.728 408.506 434.225 409.251 433.861 410.118C433.515 410.967 433.341 411.895 433.341 412.9C433.341 413.905 433.515 414.841 433.861 415.708C434.225 416.557 434.728 417.294 435.369 417.918C436.011 418.542 436.765 419.027 437.631 419.374C438.515 419.721 439.469 419.894 440.491 419.894C441.479 419.894 442.407 419.721 443.273 419.374C444.14 419.01 444.92 418.455 445.613 417.71L447.303 419.348C446.471 420.284 445.457 420.995 444.261 421.48C443.083 421.965 441.783 422.208 440.361 422.208ZM456.356 422.156C454.97 422.156 453.739 421.853 452.664 421.246C451.59 420.639 450.74 419.807 450.116 418.75C449.492 417.675 449.18 416.462 449.18 415.11C449.18 413.741 449.492 412.527 450.116 411.47C450.74 410.413 451.59 409.589 452.664 409C453.739 408.393 454.97 408.09 456.356 408.09C457.726 408.09 458.948 408.393 460.022 409C461.114 409.589 461.964 410.413 462.57 411.47C463.194 412.51 463.506 413.723 463.506 415.11C463.506 416.479 463.194 417.693 462.57 418.75C461.964 419.807 461.114 420.639 460.022 421.246C458.948 421.853 457.726 422.156 456.356 422.156ZM456.356 419.972C457.24 419.972 458.029 419.773 458.722 419.374C459.433 418.975 459.988 418.412 460.386 417.684C460.785 416.939 460.984 416.081 460.984 415.11C460.984 414.122 460.785 413.273 460.386 412.562C459.988 411.834 459.433 411.271 458.722 410.872C458.029 410.473 457.24 410.274 456.356 410.274C455.472 410.274 454.684 410.473 453.99 410.872C453.297 411.271 452.742 411.834 452.326 412.562C451.91 413.273 451.702 414.122 451.702 415.11C451.702 416.081 451.91 416.939 452.326 417.684C452.742 418.412 453.297 418.975 453.99 419.374C454.684 419.773 455.472 419.972 456.356 419.972ZM484.586 408.09C485.696 408.09 486.675 408.307 487.524 408.74C488.374 409.173 489.032 409.832 489.5 410.716C489.986 411.6 490.228 412.718 490.228 414.07V422H487.732V414.356C487.732 413.021 487.42 412.016 486.796 411.34C486.172 410.664 485.297 410.326 484.17 410.326C483.338 410.326 482.61 410.499 481.986 410.846C481.362 411.193 480.877 411.704 480.53 412.38C480.201 413.056 480.036 413.897 480.036 414.902V422H477.54V414.356C477.54 413.021 477.228 412.016 476.604 411.34C475.998 410.664 475.122 410.326 473.978 410.326C473.164 410.326 472.444 410.499 471.82 410.846C471.196 411.193 470.711 411.704 470.364 412.38C470.018 413.056 469.844 413.897 469.844 414.902V422H467.348V408.22H469.74V411.886L469.35 410.95C469.784 410.049 470.451 409.347 471.352 408.844C472.254 408.341 473.302 408.09 474.498 408.09C475.816 408.09 476.951 408.419 477.904 409.078C478.858 409.719 479.482 410.699 479.776 412.016L478.762 411.6C479.178 410.543 479.906 409.693 480.946 409.052C481.986 408.411 483.2 408.09 484.586 408.09ZM502.517 422.156C501.373 422.156 500.324 421.896 499.371 421.376C498.435 420.839 497.681 420.05 497.109 419.01C496.554 417.97 496.277 416.67 496.277 415.11C496.277 413.55 496.546 412.25 497.083 411.21C497.638 410.17 498.383 409.39 499.319 408.87C500.272 408.35 501.338 408.09 502.517 408.09C503.869 408.09 505.065 408.385 506.105 408.974C507.145 409.563 507.968 410.387 508.575 411.444C509.182 412.484 509.485 413.706 509.485 415.11C509.485 416.514 509.182 417.745 508.575 418.802C507.968 419.859 507.145 420.683 506.105 421.272C505.065 421.861 503.869 422.156 502.517 422.156ZM495.211 427.044V408.22H497.603V411.938L497.447 415.136L497.707 418.334V427.044H495.211ZM502.309 419.972C503.193 419.972 503.982 419.773 504.675 419.374C505.386 418.975 505.94 418.412 506.339 417.684C506.755 416.939 506.963 416.081 506.963 415.11C506.963 414.122 506.755 413.273 506.339 412.562C505.94 411.834 505.386 411.271 504.675 410.872C503.982 410.473 503.193 410.274 502.309 410.274C501.442 410.274 500.654 410.473 499.943 410.872C499.25 411.271 498.695 411.834 498.279 412.562C497.88 413.273 497.681 414.122 497.681 415.11C497.681 416.081 497.88 416.939 498.279 417.684C498.695 418.412 499.25 418.975 499.943 419.374C500.654 419.773 501.442 419.972 502.309 419.972ZM521.751 422V419.088L521.621 418.542V413.576C521.621 412.519 521.309 411.704 520.685 411.132C520.078 410.543 519.159 410.248 517.929 410.248C517.114 410.248 516.317 410.387 515.537 410.664C514.757 410.924 514.098 411.279 513.561 411.73L512.521 409.858C513.231 409.286 514.081 408.853 515.069 408.558C516.074 408.246 517.123 408.09 518.215 408.09C520.104 408.09 521.56 408.549 522.583 409.468C523.605 410.387 524.117 411.791 524.117 413.68V422H521.751ZM517.227 422.156C516.204 422.156 515.303 421.983 514.523 421.636C513.76 421.289 513.171 420.813 512.755 420.206C512.339 419.582 512.131 418.88 512.131 418.1C512.131 417.355 512.304 416.679 512.651 416.072C513.015 415.465 513.595 414.98 514.393 414.616C515.207 414.252 516.299 414.07 517.669 414.07H522.037V415.864H517.773C516.525 415.864 515.684 416.072 515.251 416.488C514.817 416.904 514.601 417.407 514.601 417.996C514.601 418.672 514.869 419.218 515.407 419.634C515.944 420.033 516.689 420.232 517.643 420.232C518.579 420.232 519.393 420.024 520.087 419.608C520.797 419.192 521.309 418.585 521.621 417.788L522.115 419.504C521.785 420.319 521.205 420.969 520.373 421.454C519.541 421.922 518.492 422.156 517.227 422.156ZM536.484 408.09C537.61 408.09 538.598 408.307 539.448 408.74C540.314 409.173 540.99 409.832 541.476 410.716C541.961 411.6 542.204 412.718 542.204 414.07V422H539.708V414.356C539.708 413.021 539.378 412.016 538.72 411.34C538.078 410.664 537.168 410.326 535.99 410.326C535.106 410.326 534.334 410.499 533.676 410.846C533.017 411.193 532.506 411.704 532.142 412.38C531.795 413.056 531.622 413.897 531.622 414.902V422H529.126V408.22H531.518V411.938L531.128 410.95C531.578 410.049 532.272 409.347 533.208 408.844C534.144 408.341 535.236 408.09 536.484 408.09ZM547.557 427.2C546.899 427.2 546.257 427.087 545.633 426.862C545.009 426.654 544.472 426.342 544.021 425.926L545.087 424.054C545.434 424.383 545.815 424.635 546.231 424.808C546.647 424.981 547.089 425.068 547.557 425.068C548.164 425.068 548.667 424.912 549.065 424.6C549.464 424.288 549.837 423.733 550.183 422.936L551.041 421.038L551.301 420.726L556.709 408.22H559.153L552.471 423.378C552.073 424.349 551.622 425.111 551.119 425.666C550.634 426.221 550.097 426.611 549.507 426.836C548.918 427.079 548.268 427.2 547.557 427.2ZM550.833 422.442L544.541 408.22H547.141L552.497 420.492L550.833 422.442ZM447.64 463V444.8H454.738C456.333 444.8 457.693 445.051 458.82 445.554C459.947 446.057 460.813 446.785 461.42 447.738C462.027 448.691 462.33 449.827 462.33 451.144C462.33 452.461 462.027 453.597 461.42 454.55C460.813 455.486 459.947 456.205 458.82 456.708C457.693 457.211 456.333 457.462 454.738 457.462H449.07L450.24 456.266V463H447.64ZM459.808 463L455.18 456.396H457.962L462.642 463H459.808ZM450.24 456.526L449.07 455.252H454.66C456.324 455.252 457.581 454.897 458.43 454.186C459.297 453.458 459.73 452.444 459.73 451.144C459.73 449.844 459.297 448.839 458.43 448.128C457.581 447.417 456.324 447.062 454.66 447.062H449.07L450.24 445.762V456.526ZM472.693 463.156C471.219 463.156 469.919 462.853 468.793 462.246C467.683 461.639 466.817 460.807 466.193 459.75C465.586 458.693 465.283 457.479 465.283 456.11C465.283 454.741 465.577 453.527 466.167 452.47C466.773 451.413 467.597 450.589 468.637 450C469.694 449.393 470.881 449.09 472.199 449.09C473.533 449.09 474.712 449.385 475.735 449.974C476.757 450.563 477.555 451.395 478.127 452.47C478.716 453.527 479.011 454.767 479.011 456.188C479.011 456.292 479.002 456.413 478.985 456.552C478.985 456.691 478.976 456.821 478.959 456.942H467.233V455.148H477.659L476.645 455.772C476.662 454.888 476.48 454.099 476.099 453.406C475.717 452.713 475.189 452.175 474.513 451.794C473.854 451.395 473.083 451.196 472.199 451.196C471.332 451.196 470.561 451.395 469.885 451.794C469.209 452.175 468.68 452.721 468.299 453.432C467.917 454.125 467.727 454.923 467.727 455.824V456.24C467.727 457.159 467.935 457.982 468.351 458.71C468.784 459.421 469.382 459.975 470.145 460.374C470.907 460.773 471.783 460.972 472.771 460.972C473.585 460.972 474.322 460.833 474.981 460.556C475.657 460.279 476.246 459.863 476.749 459.308L478.127 460.92C477.503 461.648 476.723 462.203 475.787 462.584C474.868 462.965 473.837 463.156 472.693 463.156ZM486.819 463.156C485.675 463.156 484.583 463 483.543 462.688C482.52 462.376 481.714 461.995 481.125 461.544L482.165 459.568C482.754 459.967 483.482 460.305 484.349 460.582C485.215 460.859 486.099 460.998 487.001 460.998C488.162 460.998 488.994 460.833 489.497 460.504C490.017 460.175 490.277 459.715 490.277 459.126C490.277 458.693 490.121 458.355 489.809 458.112C489.497 457.869 489.081 457.687 488.561 457.566C488.058 457.445 487.495 457.341 486.871 457.254C486.247 457.15 485.623 457.029 484.999 456.89C484.375 456.734 483.803 456.526 483.283 456.266C482.763 455.989 482.347 455.616 482.035 455.148C481.723 454.663 481.567 454.021 481.567 453.224C481.567 452.392 481.801 451.664 482.269 451.04C482.737 450.416 483.395 449.939 484.245 449.61C485.111 449.263 486.134 449.09 487.313 449.09C488.214 449.09 489.124 449.203 490.043 449.428C490.979 449.636 491.741 449.939 492.331 450.338L491.265 452.314C490.641 451.898 489.991 451.612 489.315 451.456C488.639 451.3 487.963 451.222 487.287 451.222C486.195 451.222 485.38 451.404 484.843 451.768C484.305 452.115 484.037 452.565 484.037 453.12C484.037 453.588 484.193 453.952 484.505 454.212C484.834 454.455 485.25 454.645 485.753 454.784C486.273 454.923 486.845 455.044 487.469 455.148C488.093 455.235 488.717 455.356 489.341 455.512C489.965 455.651 490.528 455.85 491.031 456.11C491.551 456.37 491.967 456.734 492.279 457.202C492.608 457.67 492.773 458.294 492.773 459.074C492.773 459.906 492.53 460.625 492.045 461.232C491.559 461.839 490.875 462.315 489.991 462.662C489.107 462.991 488.049 463.156 486.819 463.156ZM502.08 463.156C500.901 463.156 499.861 462.939 498.96 462.506C498.076 462.073 497.383 461.414 496.88 460.53C496.395 459.629 496.152 458.502 496.152 457.15V449.22H498.648V456.864C498.648 458.216 498.969 459.23 499.61 459.906C500.269 460.582 501.187 460.92 502.366 460.92C503.233 460.92 503.987 460.747 504.628 460.4C505.269 460.036 505.763 459.516 506.11 458.84C506.457 458.147 506.63 457.315 506.63 456.344V449.22H509.126V463H506.76V459.282L507.15 460.27C506.699 461.189 506.023 461.899 505.122 462.402C504.221 462.905 503.207 463.156 502.08 463.156ZM514.268 463V443.708H516.764V463H514.268ZM527.007 463.156C525.62 463.156 524.546 462.783 523.783 462.038C523.02 461.293 522.639 460.227 522.639 458.84V446.204H525.135V458.736C525.135 459.481 525.317 460.053 525.681 460.452C526.062 460.851 526.6 461.05 527.293 461.05C528.073 461.05 528.723 460.833 529.243 460.4L530.023 462.194C529.642 462.523 529.182 462.766 528.645 462.922C528.125 463.078 527.579 463.156 527.007 463.156ZM520.299 451.274V449.22H529.087V451.274H520.299ZM537.383 463.156C536.239 463.156 535.147 463 534.107 462.688C533.084 462.376 532.278 461.995 531.689 461.544L532.729 459.568C533.318 459.967 534.046 460.305 534.913 460.582C535.779 460.859 536.663 460.998 537.565 460.998C538.726 460.998 539.558 460.833 540.061 460.504C540.581 460.175 540.841 459.715 540.841 459.126C540.841 458.693 540.685 458.355 540.373 458.112C540.061 457.869 539.645 457.687 539.125 457.566C538.622 457.445 538.059 457.341 537.435 457.254C536.811 457.15 536.187 457.029 535.563 456.89C534.939 456.734 534.367 456.526 533.847 456.266C533.327 455.989 532.911 455.616 532.599 455.148C532.287 454.663 532.131 454.021 532.131 453.224C532.131 452.392 532.365 451.664 532.833 451.04C533.301 450.416 533.959 449.939 534.809 449.61C535.675 449.263 536.698 449.09 537.877 449.09C538.778 449.09 539.688 449.203 540.607 449.428C541.543 449.636 542.305 449.939 542.895 450.338L541.829 452.314C541.205 451.898 540.555 451.612 539.879 451.456C539.203 451.3 538.527 451.222 537.851 451.222C536.759 451.222 535.944 451.404 535.407 451.768C534.869 452.115 534.601 452.565 534.601 453.12C534.601 453.588 534.757 453.952 535.069 454.212C535.398 454.455 535.814 454.645 536.317 454.784C536.837 454.923 537.409 455.044 538.033 455.148C538.657 455.235 539.281 455.356 539.905 455.512C540.529 455.651 541.092 455.85 541.595 456.11C542.115 456.37 542.531 456.734 542.843 457.202C543.172 457.67 543.337 458.294 543.337 459.074C543.337 459.906 543.094 460.625 542.609 461.232C542.123 461.839 541.439 462.315 540.555 462.662C539.671 462.991 538.613 463.156 537.383 463.156Z" fill="white"/>
<defs>
<filter id="filter0_d_1732_12019" x="0" y="0" width="268" height="268" filterUnits="userSpaceOnUse" color-interpolation-filters="sRGB">
<feFlood flood-opacity="0" result="BackgroundImageFix"/>
<feColorMatrix in="SourceAlpha" type="matrix" values="0 0 0 0 0 0 0 0 0 0 0 0 0 0 0 0 0 0 127 0" result="hardAlpha"/>
<feMorphology radius="12" operator="erode" in="SourceAlpha" result="effect1_dropShadow_1732_12019"/>
<feOffset dy="6"/>
<feGaussianBlur stdDeviation="23"/>
<feColorMatrix type="matrix" values="0 0 0 0 0.233333 0 0 0 0 0.233333 0 0 0 0 0.233333 0 0 0 0.15 0"/>
<feBlend mode="normal" in2="BackgroundImageFix" result="effect1_dropShadow_1732_12019"/>
<feBlend mode="normal" in="SourceGraphic" in2="effect1_dropShadow_1732_12019" result="shape"/>
</filter>
<filter id="filter1_d_1732_12019" x="360" y="37" width="268" height="269" filterUnits="userSpaceOnUse" color-interpolation-filters="sRGB">
<feFlood flood-opacity="0" result="BackgroundImageFix"/>
<feColorMatrix in="SourceAlpha" type="matrix" values="0 0 0 0 0 0 0 0 0 0 0 0 0 0 0 0 0 0 127 0" result="hardAlpha"/>
<feMorphology radius="12" operator="erode" in="SourceAlpha" result="effect1_dropShadow_1732_12019"/>
<feOffset dy="35"/>
<feGaussianBlur stdDeviation="23"/>
<feColorMatrix type="matrix" values="0 0 0 0 0.247917 0 0 0 0 0.590042 0 0 0 0 0.991667 0 0 0 0.15 0"/>
<feBlend mode="normal" in2="BackgroundImageFix" result="effect1_dropShadow_1732_12019"/>
<feBlend mode="normal" in="SourceGraphic" in2="effect1_dropShadow_1732_12019" result="shape"/>
</filter>
<filter id="filter2_d_1732_12019" x="670" y="37" width="268" height="269" filterUnits="userSpaceOnUse" color-interpolation-filters="sRGB">
<feFlood flood-opacity="0" result="BackgroundImageFix"/>
<feColorMatrix in="SourceAlpha" type="matrix" values="0 0 0 0 0 0 0 0 0 0 0 0 0 0 0 0 0 0 127 0" result="hardAlpha"/>
<feMorphology radius="12" operator="erode" in="SourceAlpha" result="effect1_dropShadow_1732_12019"/>
<feOffset dy="35"/>
<feGaussianBlur stdDeviation="23"/>
<feColorMatrix type="matrix" values="0 0 0 0 0.247917 0 0 0 0 0.590042 0 0 0 0 0.991667 0 0 0 0.15 0"/>
<feBlend mode="normal" in2="BackgroundImageFix" result="effect1_dropShadow_1732_12019"/>
<feBlend mode="normal" in="SourceGraphic" in2="effect1_dropShadow_1732_12019" result="shape"/>
</filter>
<filter id="filter3_d_1732_12019" x="980" y="37" width="268" height="269" filterUnits="userSpaceOnUse" color-interpolation-filters="sRGB">
<feFlood flood-opacity="0" result="BackgroundImageFix"/>
<feColorMatrix in="SourceAlpha" type="matrix" values="0 0 0 0 0 0 0 0 0 0 0 0 0 0 0 0 0 0 127 0" result="hardAlpha"/>
<feMorphology radius="12" operator="erode" in="SourceAlpha" result="effect1_dropShadow_1732_12019"/>
<feOffset dy="35"/>
<feGaussianBlur stdDeviation="23"/>
<feColorMatrix type="matrix" values="0 0 0 0 0.247917 0 0 0 0 0.590042 0 0 0 0 0.991667 0 0 0 0.15 0"/>
<feBlend mode="normal" in2="BackgroundImageFix" result="effect1_dropShadow_1732_12019"/>
<feBlend mode="normal" in="SourceGraphic" in2="effect1_dropShadow_1732_12019" result="shape"/>
</filter>
<filter id="filter4_d_1732_12019" x="980" y="333" width="268" height="269" filterUnits="userSpaceOnUse" color-interpolation-filters="sRGB">
<feFlood flood-opacity="0" result="BackgroundImageFix"/>
<feColorMatrix in="SourceAlpha" type="matrix" values="0 0 0 0 0 0 0 0 0 0 0 0 0 0 0 0 0 0 127 0" result="hardAlpha"/>
<feMorphology radius="12" operator="erode" in="SourceAlpha" result="effect1_dropShadow_1732_12019"/>
<feOffset dy="35"/>
<feGaussianBlur stdDeviation="23"/>
<feColorMatrix type="matrix" values="0 0 0 0 0.247917 0 0 0 0 0.590042 0 0 0 0 0.991667 0 0 0 0.15 0"/>
<feBlend mode="normal" in2="BackgroundImageFix" result="effect1_dropShadow_1732_12019"/>
<feBlend mode="normal" in="SourceGraphic" in2="effect1_dropShadow_1732_12019" result="shape"/>
</filter>
<filter id="filter5_d_1732_12019" x="670" y="333" width="268" height="269" filterUnits="userSpaceOnUse" color-interpolation-filters="sRGB">
<feFlood flood-opacity="0" result="BackgroundImageFix"/>
<feColorMatrix in="SourceAlpha" type="matrix" values="0 0 0 0 0 0 0 0 0 0 0 0 0 0 0 0 0 0 127 0" result="hardAlpha"/>
<feMorphology radius="12" operator="erode" in="SourceAlpha" result="effect1_dropShadow_1732_12019"/>
<feOffset dy="35"/>
<feGaussianBlur stdDeviation="23"/>
<feColorMatrix type="matrix" values="0 0 0 0 0.247917 0 0 0 0 0.590042 0 0 0 0 0.991667 0 0 0 0.15 0"/>
<feBlend mode="normal" in2="BackgroundImageFix" result="effect1_dropShadow_1732_12019"/>
<feBlend mode="normal" in="SourceGraphic" in2="effect1_dropShadow_1732_12019" result="shape"/>
</filter>
<filter id="filter6_d_1732_12019" x="360" y="333" width="268" height="269" filterUnits="userSpaceOnUse" color-interpolation-filters="sRGB">
<feFlood flood-opacity="0" result="BackgroundImageFix"/>
<feColorMatrix in="SourceAlpha" type="matrix" values="0 0 0 0 0 0 0 0 0 0 0 0 0 0 0 0 0 0 127 0" result="hardAlpha"/>
<feMorphology radius="12" operator="erode" in="SourceAlpha" result="effect1_dropShadow_1732_12019"/>
<feOffset dy="35"/>
<feGaussianBlur stdDeviation="23"/>
<feColorMatrix type="matrix" values="0 0 0 0 0.247917 0 0 0 0 0.590042 0 0 0 0 0.991667 0 0 0 0.15 0"/>
<feBlend mode="normal" in2="BackgroundImageFix" result="effect1_dropShadow_1732_12019"/>
<feBlend mode="normal" in="SourceGraphic" in2="effect1_dropShadow_1732_12019" result="shape"/>
</filter>
</defs>
</svg>
