<svg width="31" height="24" viewBox="0 0 31 24" fill="none" xmlns="http://www.w3.org/2000/svg">
<path d="M12.675 17.25C13.275 17.85 14.05 18.144 15 18.132C15.95 18.12 16.65 17.776 17.1 17.1L25.5 4.5L12.9 12.9C12.225 13.35 11.869 14.0375 11.832 14.9625C11.795 15.8875 12.076 16.65 12.675 17.25ZM15 1.90114e-06C16.475 1.90114e-06 17.894 0.206502 19.257 0.619502C20.62 1.0325 21.901 1.651 23.1 2.475L20.25 4.275C19.425 3.85 18.569 3.5315 17.682 3.3195C16.795 3.1075 15.901 3.001 15 3C11.675 3 8.8435 4.1685 6.5055 6.5055C4.1675 8.8425 2.999 11.674 3 15C3 16.05 3.144 17.0875 3.432 18.1125C3.72 19.1375 4.126 20.1 4.65 21H25.35C25.925 20.05 26.344 19.0625 26.607 18.0375C26.87 17.0125 27.001 15.95 27 14.85C27 13.95 26.8935 13.075 26.6805 12.225C26.4675 11.375 26.149 10.55 25.725 9.75L27.525 6.9C28.275 8.075 28.869 9.325 29.307 10.65C29.745 11.975 29.976 13.35 30 14.775C30.025 16.2 29.8625 17.5625 29.5125 18.8625C29.1625 20.1625 28.65 21.4 27.975 22.575C27.7 23.025 27.325 23.375 26.85 23.625C26.375 23.875 25.875 24 25.35 24H4.65C4.125 24 3.625 23.875 3.15 23.625C2.675 23.375 2.3 23.025 2.025 22.575C1.375 21.45 0.875 20.256 0.525 18.993C0.175 17.73 0 16.399 0 15C0 12.925 0.394 10.981 1.182 9.168C1.97 7.355 3.045 5.768 4.407 4.407C5.769 3.044 7.362 1.9685 9.186 1.1805C11.01 0.392502 12.948 -0.000998099 15 1.90114e-06Z" fill="white"/>
</svg>
