<svg width="1248" height="602" viewBox="0 0 1248 602" fill="none" xmlns="http://www.w3.org/2000/svg">
<g filter="url(#filter0_d_1732_12019)">
<rect x="34" y="28" width="200" height="200" rx="15" fill="#E1EFFF"/>
</g>
<g filter="url(#filter1_d_1732_12019)">
<rect x="394" y="37" width="200" height="200" rx="15" fill="#E1EFFF"/>
</g>
<g filter="url(#filter2_d_1732_12019)">
<rect x="704" y="37" width="200" height="200" rx="15" fill="#0252CD"/>
<rect x="707.5" y="40.5" width="193" height="193" rx="11.5" stroke="#D8ECFE" stroke-width="7"/>
</g>
<g filter="url(#filter3_d_1732_12019)">
<rect x="1014" y="37" width="200" height="200" rx="15" fill="#E1EFFF"/>
</g>
<g filter="url(#filter4_d_1732_12019)">
<rect x="1014" y="333" width="200" height="200" rx="15" fill="#0252CD"/>
<rect x="1017.5" y="336.5" width="193" height="193" rx="11.5" stroke="#D8ECFE" stroke-width="7"/>
</g>
<g filter="url(#filter5_d_1732_12019)">
<rect x="704" y="333" width="200" height="200" rx="15" fill="#E1EFFF"/>
</g>
<g filter="url(#filter6_d_1732_12019)">
<rect x="394" y="333" width="200" height="200" rx="15" fill="#0252CD"/>
<rect x="397.5" y="336.5" width="193" height="193" rx="11.5" stroke="#D8ECFE" stroke-width="7"/>
</g>
<path d="M137.779 304.019L147.404 284.769C147.479 284.618 147.509 284.448 147.491 284.281C147.472 284.113 147.405 283.954 147.299 283.824C147.194 283.699 147.057 283.606 146.902 283.555C146.748 283.504 146.582 283.497 146.424 283.535L137.875 285.854L137.875 295.75L136.125 295.75L136.125 285.854L127.602 283.5C127.47 283.464 127.332 283.46 127.197 283.488C127.063 283.516 126.938 283.574 126.83 283.659C126.723 283.745 126.637 283.854 126.58 283.978C126.523 284.102 126.495 284.238 126.5 284.375C126.501 284.512 126.534 284.647 126.596 284.769L136.221 304.019C136.295 304.162 136.406 304.282 136.544 304.366C136.681 304.45 136.839 304.495 137 304.495C137.161 304.495 137.319 304.45 137.456 304.366C137.594 304.282 137.705 304.162 137.779 304.019Z" fill="#0252CD"/>
<path d="M150.019 441.221L130.769 431.596C130.618 431.521 130.448 431.491 130.281 431.509C130.113 431.528 129.954 431.595 129.824 431.701C129.699 431.806 129.606 431.943 129.555 432.098C129.504 432.252 129.497 432.418 129.535 432.576L131.854 441.125H141.75V442.875H131.854L129.5 451.398C129.464 451.53 129.46 451.668 129.488 451.802C129.515 451.937 129.574 452.062 129.659 452.169C129.744 452.277 129.854 452.362 129.978 452.42C130.102 452.477 130.238 452.505 130.375 452.5C130.512 452.499 130.647 452.466 130.769 452.404L150.019 442.779C150.162 442.705 150.282 442.594 150.366 442.456C150.45 442.319 150.495 442.161 150.495 442C150.495 441.839 150.45 441.681 150.366 441.544C150.282 441.406 150.162 441.295 150.019 441.221Z" fill="#0252CD"/>
<path d="M286.02 140.221L266.77 130.596C266.619 130.521 266.449 130.491 266.282 130.509C266.114 130.528 265.955 130.595 265.825 130.701C265.7 130.806 265.607 130.943 265.556 131.098C265.505 131.252 265.498 131.418 265.536 131.576L267.855 140.125H277.751V141.875H267.855L265.501 150.398C265.465 150.53 265.461 150.668 265.489 150.803C265.516 150.937 265.575 151.062 265.66 151.17C265.745 151.277 265.855 151.363 265.979 151.42C266.103 151.477 266.239 151.505 266.376 151.5C266.513 151.499 266.648 151.466 266.77 151.404L286.02 141.779C286.163 141.705 286.283 141.594 286.367 141.456C286.451 141.319 286.496 141.161 286.496 141C286.496 140.839 286.451 140.681 286.367 140.544C286.283 140.406 286.163 140.295 286.02 140.221Z" fill="#0252CD"/>
<path d="M659.02 140.221L639.77 130.596C639.619 130.521 639.449 130.491 639.282 130.509C639.114 130.528 638.955 130.595 638.825 130.701C638.7 130.806 638.607 130.943 638.556 131.098C638.505 131.252 638.498 131.418 638.536 131.576L640.855 140.125H650.751V141.875H640.855L638.501 150.398C638.465 150.53 638.461 150.668 638.489 150.803C638.516 150.937 638.575 151.062 638.66 151.17C638.745 151.277 638.855 151.363 638.979 151.42C639.103 151.477 639.239 151.505 639.376 151.5C639.513 151.499 639.648 151.466 639.77 151.404L659.02 141.779C659.163 141.705 659.283 141.594 659.367 141.456C659.451 141.319 659.496 141.161 659.496 141C659.496 140.839 659.451 140.681 659.367 140.544C659.283 140.406 659.163 140.295 659.02 140.221Z" fill="#0252CD"/>
<path d="M969.02 140.221L949.77 130.596C949.619 130.521 949.449 130.491 949.282 130.509C949.114 130.528 948.955 130.595 948.825 130.701C948.7 130.806 948.607 130.943 948.556 131.098C948.505 131.252 948.498 131.418 948.536 131.576L950.855 140.125H960.751V141.875H950.855L948.501 150.398C948.465 150.53 948.461 150.668 948.489 150.803C948.516 150.937 948.575 151.062 948.66 151.17C948.745 151.277 948.855 151.363 948.979 151.42C949.103 151.477 949.239 151.505 949.376 151.5C949.513 151.499 949.648 151.466 949.77 151.404L969.02 141.779C969.163 141.705 969.283 141.594 969.367 141.456C969.451 141.319 969.496 141.161 969.496 141C969.496 140.839 969.451 140.681 969.367 140.544C969.283 140.406 969.163 140.295 969.02 140.221Z" fill="#0252CD"/>
<path d="M1122.78 300.019L1132.4 280.769C1132.48 280.618 1132.51 280.448 1132.49 280.281C1132.47 280.113 1132.41 279.954 1132.3 279.824C1132.19 279.699 1132.06 279.606 1131.9 279.555C1131.75 279.504 1131.58 279.497 1131.42 279.535L1122.87 281.854L1122.87 291.75L1121.12 291.75L1121.12 281.854L1112.6 279.5C1112.47 279.464 1112.33 279.46 1112.2 279.488C1112.06 279.516 1111.94 279.574 1111.83 279.659C1111.72 279.745 1111.64 279.854 1111.58 279.978C1111.52 280.102 1111.5 280.238 1111.5 280.375C1111.5 280.512 1111.53 280.647 1111.6 280.769L1121.22 300.019C1121.29 300.162 1121.41 300.282 1121.54 300.366C1121.68 300.45 1121.84 300.495 1122 300.495C1122.16 300.495 1122.32 300.45 1122.46 300.366C1122.59 300.282 1122.71 300.162 1122.78 300.019Z" fill="#0252CD"/>
<path d="M948.98 439.779L968.23 449.404C968.381 449.479 968.551 449.509 968.718 449.491C968.886 449.472 969.045 449.405 969.175 449.299C969.3 449.194 969.393 449.057 969.444 448.902C969.495 448.748 969.502 448.582 969.464 448.424L967.145 439.875L957.249 439.875L957.249 438.125L967.145 438.125L969.499 429.602C969.535 429.47 969.539 429.332 969.511 429.197C969.484 429.063 969.425 428.938 969.34 428.83C969.255 428.723 969.145 428.637 969.021 428.58C968.897 428.523 968.761 428.495 968.624 428.5C968.487 428.501 968.352 428.534 968.23 428.596L948.98 438.221C948.837 438.295 948.717 438.406 948.633 438.544C948.549 438.681 948.504 438.839 948.504 439C948.504 439.161 948.549 439.319 948.633 439.456C948.717 439.594 948.837 439.705 948.98 439.779Z" fill="#0252CD"/>
<path d="M638.98 439.779L658.23 449.404C658.381 449.479 658.551 449.509 658.718 449.491C658.886 449.472 659.045 449.405 659.175 449.299C659.3 449.194 659.393 449.057 659.444 448.902C659.495 448.748 659.502 448.582 659.464 448.424L657.145 439.875L647.249 439.875L647.249 438.125L657.145 438.125L659.499 429.602C659.535 429.47 659.539 429.332 659.511 429.197C659.484 429.063 659.425 428.938 659.34 428.83C659.255 428.723 659.145 428.637 659.021 428.58C658.897 428.523 658.761 428.495 658.624 428.5C658.487 428.501 658.352 428.534 658.23 428.596L638.98 438.221C638.837 438.295 638.717 438.406 638.633 438.544C638.549 438.681 638.504 438.839 638.504 439C638.504 439.161 638.549 439.319 638.633 439.456C638.717 439.594 638.837 439.705 638.98 439.779Z" fill="#0252CD"/>
<path d="M286.02 438.221L266.77 428.596C266.619 428.521 266.449 428.491 266.282 428.509C266.114 428.528 265.955 428.595 265.825 428.701C265.7 428.806 265.607 428.943 265.556 429.098C265.505 429.252 265.498 429.418 265.536 429.576L267.855 438.125H277.751V439.875H267.855L265.501 448.398C265.465 448.53 265.461 448.668 265.489 448.803C265.516 448.937 265.575 449.062 265.66 449.17C265.745 449.277 265.855 449.363 265.979 449.42C266.103 449.477 266.239 449.505 266.376 449.5C266.513 449.499 266.648 449.466 266.77 449.404L286.02 439.779C286.163 439.705 286.283 439.594 286.367 439.456C286.451 439.319 286.496 439.161 286.496 439C286.496 438.839 286.451 438.681 286.367 438.544C286.283 438.406 286.163 438.295 286.02 438.221Z" fill="#0252CD"/>
<path d="M804.221 279.981L794.596 299.231C794.521 299.382 794.491 299.552 794.509 299.719C794.528 299.887 794.595 300.046 794.701 300.176C794.806 300.301 794.943 300.394 795.098 300.445C795.252 300.496 795.418 300.503 795.576 300.465L804.125 298.146L804.125 288.25L805.875 288.25L805.875 298.146L814.398 300.5C814.53 300.536 814.668 300.54 814.803 300.512C814.937 300.484 815.062 300.426 815.17 300.341C815.277 300.255 815.363 300.146 815.42 300.022C815.477 299.898 815.505 299.762 815.5 299.625C815.499 299.488 815.466 299.353 815.404 299.231L805.779 279.981C805.705 279.838 805.594 279.718 805.456 279.634C805.319 279.55 805.161 279.505 805 279.505C804.839 279.505 804.681 279.55 804.544 279.634C804.406 279.718 804.295 279.838 804.221 279.981Z" fill="#0252CD"/>
<path d="M488.221 279.981L478.596 299.231C478.521 299.382 478.491 299.552 478.509 299.719C478.528 299.887 478.595 300.046 478.701 300.176C478.806 300.301 478.943 300.394 479.098 300.445C479.252 300.496 479.418 300.503 479.576 300.465L488.125 298.146L488.125 288.25L489.875 288.25L489.875 298.146L498.398 300.5C498.53 300.536 498.668 300.54 498.803 300.512C498.937 300.484 499.062 300.426 499.17 300.341C499.277 300.255 499.363 300.146 499.42 300.022C499.477 299.898 499.505 299.762 499.5 299.625C499.499 299.488 499.466 299.353 499.404 299.231L489.779 279.981C489.705 279.838 489.594 279.718 489.456 279.634C489.319 279.55 489.161 279.505 489 279.505C488.839 279.505 488.681 279.55 488.544 279.634C488.406 279.718 488.295 279.838 488.221 279.981Z" fill="#0252CD"/>
<path d="M108.004 96.8H110.604V115H108.004V96.8ZM97.552 115H94.952V96.8H97.552V115ZM108.238 106.888H97.292V104.626H108.238V106.888ZM121.98 115.156C120.593 115.156 119.362 114.853 118.288 114.246C117.213 113.639 116.364 112.807 115.74 111.75C115.116 110.675 114.804 109.462 114.804 108.11C114.804 106.741 115.116 105.527 115.74 104.47C116.364 103.413 117.213 102.589 118.288 102C119.362 101.393 120.593 101.09 121.98 101.09C123.349 101.09 124.571 101.393 125.646 102C126.738 102.589 127.587 103.413 128.194 104.47C128.818 105.51 129.13 106.723 129.13 108.11C129.13 109.479 128.818 110.693 128.194 111.75C127.587 112.807 126.738 113.639 125.646 114.246C124.571 114.853 123.349 115.156 121.98 115.156ZM121.98 112.972C122.864 112.972 123.652 112.773 124.346 112.374C125.056 111.975 125.611 111.412 126.01 110.684C126.408 109.939 126.608 109.081 126.608 108.11C126.608 107.122 126.408 106.273 126.01 105.562C125.611 104.834 125.056 104.271 124.346 103.872C123.652 103.473 122.864 103.274 121.98 103.274C121.096 103.274 120.307 103.473 119.614 103.872C118.92 104.271 118.366 104.834 117.95 105.562C117.534 106.273 117.326 107.122 117.326 108.11C117.326 109.081 117.534 109.939 117.95 110.684C118.366 111.412 118.92 111.975 119.614 112.374C120.307 112.773 121.096 112.972 121.98 112.972ZM150.209 101.09C151.319 101.09 152.298 101.307 153.147 101.74C153.997 102.173 154.655 102.832 155.123 103.716C155.609 104.6 155.851 105.718 155.851 107.07V115H153.355V107.356C153.355 106.021 153.043 105.016 152.419 104.34C151.795 103.664 150.92 103.326 149.793 103.326C148.961 103.326 148.233 103.499 147.609 103.846C146.985 104.193 146.5 104.704 146.153 105.38C145.824 106.056 145.659 106.897 145.659 107.902V115H143.163V107.356C143.163 106.021 142.851 105.016 142.227 104.34C141.621 103.664 140.745 103.326 139.601 103.326C138.787 103.326 138.067 103.499 137.443 103.846C136.819 104.193 136.334 104.704 135.987 105.38C135.641 106.056 135.467 106.897 135.467 107.902V115H132.971V101.22H135.363V104.886L134.973 103.95C135.407 103.049 136.074 102.347 136.975 101.844C137.877 101.341 138.925 101.09 140.121 101.09C141.439 101.09 142.574 101.419 143.527 102.078C144.481 102.719 145.105 103.699 145.399 105.016L144.385 104.6C144.801 103.543 145.529 102.693 146.569 102.052C147.609 101.411 148.823 101.09 150.209 101.09ZM166.97 115.156C165.497 115.156 164.197 114.853 163.07 114.246C161.961 113.639 161.094 112.807 160.47 111.75C159.863 110.693 159.56 109.479 159.56 108.11C159.56 106.741 159.855 105.527 160.444 104.47C161.051 103.413 161.874 102.589 162.914 102C163.971 101.393 165.159 101.09 166.476 101.09C167.811 101.09 168.989 101.385 170.012 101.974C171.035 102.563 171.832 103.395 172.404 104.47C172.993 105.527 173.288 106.767 173.288 108.188C173.288 108.292 173.279 108.413 173.262 108.552C173.262 108.691 173.253 108.821 173.236 108.942H161.51V107.148H171.936L170.922 107.772C170.939 106.888 170.757 106.099 170.376 105.406C169.995 104.713 169.466 104.175 168.79 103.794C168.131 103.395 167.36 103.196 166.476 103.196C165.609 103.196 164.838 103.395 164.162 103.794C163.486 104.175 162.957 104.721 162.576 105.432C162.195 106.125 162.004 106.923 162.004 107.824V108.24C162.004 109.159 162.212 109.982 162.628 110.71C163.061 111.421 163.659 111.975 164.422 112.374C165.185 112.773 166.06 112.972 167.048 112.972C167.863 112.972 168.599 112.833 169.258 112.556C169.934 112.279 170.523 111.863 171.026 111.308L172.404 112.92C171.78 113.648 171 114.203 170.064 114.584C169.145 114.965 168.114 115.156 166.97 115.156ZM95.1098 156.208C93.7231 156.208 92.3971 156 91.1318 155.584C89.8664 155.151 88.8698 154.596 88.1418 153.92L89.1038 151.892C89.7971 152.499 90.6811 153.001 91.7558 153.4C92.8304 153.799 93.9484 153.998 95.1098 153.998C96.1671 153.998 97.0251 153.877 97.6838 153.634C98.3424 153.391 98.8278 153.062 99.1398 152.646C99.4518 152.213 99.6078 151.727 99.6078 151.19C99.6078 150.566 99.3998 150.063 98.9838 149.682C98.5851 149.301 98.0565 148.997 97.3978 148.772C96.7564 148.529 96.0458 148.321 95.2658 148.148C94.4858 147.975 93.6971 147.775 92.8998 147.55C92.1198 147.307 91.4004 147.004 90.7418 146.64C90.1004 146.276 89.5804 145.791 89.1818 145.184C88.7831 144.56 88.5838 143.763 88.5838 142.792C88.5838 141.856 88.8264 140.998 89.3118 140.218C89.8144 139.421 90.5771 138.788 91.5998 138.32C92.6398 137.835 93.9571 137.592 95.5518 137.592C96.6091 137.592 97.6578 137.731 98.6978 138.008C99.7378 138.285 100.639 138.684 101.402 139.204L100.544 141.284C99.7638 140.764 98.9404 140.391 98.0738 140.166C97.2071 139.923 96.3664 139.802 95.5518 139.802C94.5291 139.802 93.6884 139.932 93.0298 140.192C92.3711 140.452 91.8858 140.799 91.5738 141.232C91.2791 141.665 91.1318 142.151 91.1318 142.688C91.1318 143.329 91.3311 143.841 91.7298 144.222C92.1458 144.603 92.6744 144.907 93.3158 145.132C93.9744 145.357 94.6938 145.565 95.4738 145.756C96.2538 145.929 97.0338 146.129 97.8138 146.354C98.6111 146.579 99.3304 146.874 99.9718 147.238C100.63 147.602 101.159 148.087 101.558 148.694C101.956 149.301 102.156 150.081 102.156 151.034C102.156 151.953 101.904 152.811 101.402 153.608C100.899 154.388 100.119 155.021 99.0618 155.506C98.0218 155.974 96.7044 156.208 95.1098 156.208ZM111.986 156.156C110.582 156.156 109.326 155.853 108.216 155.246C107.124 154.639 106.266 153.807 105.642 152.75C105.018 151.693 104.706 150.479 104.706 149.11C104.706 147.741 105.018 146.527 105.642 145.47C106.266 144.413 107.124 143.589 108.216 143C109.326 142.393 110.582 142.09 111.986 142.09C113.234 142.09 114.344 142.341 115.314 142.844C116.302 143.329 117.065 144.057 117.602 145.028L115.704 146.25C115.254 145.574 114.699 145.08 114.04 144.768C113.399 144.439 112.706 144.274 111.96 144.274C111.059 144.274 110.253 144.473 109.542 144.872C108.832 145.271 108.268 145.834 107.852 146.562C107.436 147.273 107.228 148.122 107.228 149.11C107.228 150.098 107.436 150.956 107.852 151.684C108.268 152.412 108.832 152.975 109.542 153.374C110.253 153.773 111.059 153.972 111.96 153.972C112.706 153.972 113.399 153.816 114.04 153.504C114.699 153.175 115.254 152.672 115.704 151.996L117.602 153.192C117.065 154.145 116.302 154.882 115.314 155.402C114.344 155.905 113.234 156.156 111.986 156.156ZM121.224 156V142.22H123.616V145.964L123.382 145.028C123.763 144.075 124.404 143.347 125.306 142.844C126.207 142.341 127.316 142.09 128.634 142.09V144.508C128.53 144.491 128.426 144.482 128.322 144.482C128.235 144.482 128.148 144.482 128.062 144.482C126.727 144.482 125.67 144.881 124.89 145.678C124.11 146.475 123.72 147.628 123.72 149.136V156H121.224ZM138.109 156.156C136.636 156.156 135.336 155.853 134.209 155.246C133.1 154.639 132.233 153.807 131.609 152.75C131.002 151.693 130.699 150.479 130.699 149.11C130.699 147.741 130.994 146.527 131.583 145.47C132.19 144.413 133.013 143.589 134.053 143C135.11 142.393 136.298 142.09 137.615 142.09C138.95 142.09 140.128 142.385 141.151 142.974C142.174 143.563 142.971 144.395 143.543 145.47C144.132 146.527 144.427 147.767 144.427 149.188C144.427 149.292 144.418 149.413 144.401 149.552C144.401 149.691 144.392 149.821 144.375 149.942H132.649V148.148H143.075L142.061 148.772C142.078 147.888 141.896 147.099 141.515 146.406C141.134 145.713 140.605 145.175 139.929 144.794C139.27 144.395 138.499 144.196 137.615 144.196C136.748 144.196 135.977 144.395 135.301 144.794C134.625 145.175 134.096 145.721 133.715 146.432C133.334 147.125 133.143 147.923 133.143 148.824V149.24C133.143 150.159 133.351 150.982 133.767 151.71C134.2 152.421 134.798 152.975 135.561 153.374C136.324 153.773 137.199 153.972 138.187 153.972C139.002 153.972 139.738 153.833 140.397 153.556C141.073 153.279 141.662 152.863 142.165 152.308L143.543 153.92C142.919 154.648 142.139 155.203 141.203 155.584C140.284 155.965 139.253 156.156 138.109 156.156ZM154.419 156.156C152.946 156.156 151.646 155.853 150.519 155.246C149.41 154.639 148.543 153.807 147.919 152.75C147.312 151.693 147.009 150.479 147.009 149.11C147.009 147.741 147.304 146.527 147.893 145.47C148.5 144.413 149.323 143.589 150.363 143C151.42 142.393 152.608 142.09 153.925 142.09C155.26 142.09 156.438 142.385 157.461 142.974C158.484 143.563 159.281 144.395 159.853 145.47C160.442 146.527 160.737 147.767 160.737 149.188C160.737 149.292 160.728 149.413 160.711 149.552C160.711 149.691 160.702 149.821 160.685 149.942H148.959V148.148H159.385L158.371 148.772C158.388 147.888 158.206 147.099 157.825 146.406C157.444 145.713 156.915 145.175 156.239 144.794C155.58 144.395 154.809 144.196 153.925 144.196C153.058 144.196 152.287 144.395 151.611 144.794C150.935 145.175 150.406 145.721 150.025 146.432C149.644 147.125 149.453 147.923 149.453 148.824V149.24C149.453 150.159 149.661 150.982 150.077 151.71C150.51 152.421 151.108 152.975 151.871 153.374C152.634 153.773 153.509 153.972 154.497 153.972C155.312 153.972 156.048 153.833 156.707 153.556C157.383 153.279 157.972 152.863 158.475 152.308L159.853 153.92C159.229 154.648 158.449 155.203 157.513 155.584C156.594 155.965 155.563 156.156 154.419 156.156ZM171.951 142.09C173.078 142.09 174.066 142.307 174.915 142.74C175.782 143.173 176.458 143.832 176.943 144.716C177.428 145.6 177.671 146.718 177.671 148.07V156H175.175V148.356C175.175 147.021 174.846 146.016 174.187 145.34C173.546 144.664 172.636 144.326 171.457 144.326C170.573 144.326 169.802 144.499 169.143 144.846C168.484 145.193 167.973 145.704 167.609 146.38C167.262 147.056 167.089 147.897 167.089 148.902V156H164.593V142.22H166.985V145.938L166.595 144.95C167.046 144.049 167.739 143.347 168.675 142.844C169.611 142.341 170.703 142.09 171.951 142.09Z" fill="#0252CD"/>
<path d="M474.097 129.208C471.705 129.208 469.824 128.523 468.455 127.154C467.086 125.785 466.401 123.783 466.401 121.148V110.8H469.001V121.044C469.001 123.072 469.443 124.554 470.327 125.49C471.228 126.426 472.494 126.894 474.123 126.894C475.77 126.894 477.035 126.426 477.919 125.49C478.82 124.554 479.271 123.072 479.271 121.044V110.8H481.793V121.148C481.793 123.783 481.108 125.785 479.739 127.154C478.387 128.523 476.506 129.208 474.097 129.208ZM491.102 129.156C489.958 129.156 488.866 129 487.826 128.688C486.803 128.376 485.997 127.995 485.408 127.544L486.448 125.568C487.037 125.967 487.765 126.305 488.632 126.582C489.498 126.859 490.382 126.998 491.284 126.998C492.445 126.998 493.277 126.833 493.78 126.504C494.3 126.175 494.56 125.715 494.56 125.126C494.56 124.693 494.404 124.355 494.092 124.112C493.78 123.869 493.364 123.687 492.844 123.566C492.341 123.445 491.778 123.341 491.154 123.254C490.53 123.15 489.906 123.029 489.282 122.89C488.658 122.734 488.086 122.526 487.566 122.266C487.046 121.989 486.63 121.616 486.318 121.148C486.006 120.663 485.85 120.021 485.85 119.224C485.85 118.392 486.084 117.664 486.552 117.04C487.02 116.416 487.678 115.939 488.528 115.61C489.394 115.263 490.417 115.09 491.596 115.09C492.497 115.09 493.407 115.203 494.326 115.428C495.262 115.636 496.024 115.939 496.614 116.338L495.548 118.314C494.924 117.898 494.274 117.612 493.598 117.456C492.922 117.3 492.246 117.222 491.57 117.222C490.478 117.222 489.663 117.404 489.126 117.768C488.588 118.115 488.32 118.565 488.32 119.12C488.32 119.588 488.476 119.952 488.788 120.212C489.117 120.455 489.533 120.645 490.036 120.784C490.556 120.923 491.128 121.044 491.752 121.148C492.376 121.235 493 121.356 493.624 121.512C494.248 121.651 494.811 121.85 495.314 122.11C495.834 122.37 496.25 122.734 496.562 123.202C496.891 123.67 497.056 124.294 497.056 125.074C497.056 125.906 496.813 126.625 496.328 127.232C495.842 127.839 495.158 128.315 494.274 128.662C493.39 128.991 492.332 129.156 491.102 129.156ZM506.701 129.156C505.228 129.156 503.928 128.853 502.801 128.246C501.692 127.639 500.825 126.807 500.201 125.75C499.594 124.693 499.291 123.479 499.291 122.11C499.291 120.741 499.586 119.527 500.175 118.47C500.782 117.413 501.605 116.589 502.645 116C503.702 115.393 504.89 115.09 506.207 115.09C507.542 115.09 508.72 115.385 509.743 115.974C510.766 116.563 511.563 117.395 512.135 118.47C512.724 119.527 513.019 120.767 513.019 122.188C513.019 122.292 513.01 122.413 512.993 122.552C512.993 122.691 512.984 122.821 512.967 122.942H501.241V121.148H511.667L510.653 121.772C510.67 120.888 510.488 120.099 510.107 119.406C509.726 118.713 509.197 118.175 508.521 117.794C507.862 117.395 507.091 117.196 506.207 117.196C505.34 117.196 504.569 117.395 503.893 117.794C503.217 118.175 502.688 118.721 502.307 119.432C501.926 120.125 501.735 120.923 501.735 121.824V122.24C501.735 123.159 501.943 123.982 502.359 124.71C502.792 125.421 503.39 125.975 504.153 126.374C504.916 126.773 505.791 126.972 506.779 126.972C507.594 126.972 508.33 126.833 508.989 126.556C509.665 126.279 510.254 125.863 510.757 125.308L512.135 126.92C511.511 127.648 510.731 128.203 509.795 128.584C508.876 128.965 507.845 129.156 506.701 129.156ZM516.875 129V115.22H519.267V118.964L519.033 118.028C519.414 117.075 520.055 116.347 520.957 115.844C521.858 115.341 522.967 115.09 524.285 115.09V117.508C524.181 117.491 524.077 117.482 523.973 117.482C523.886 117.482 523.799 117.482 523.713 117.482C522.378 117.482 521.321 117.881 520.541 118.678C519.761 119.475 519.371 120.628 519.371 122.136V129H516.875ZM464.206 170.208C462.819 170.208 461.528 169.974 460.332 169.506C459.153 169.038 458.131 168.388 457.264 167.556C456.397 166.707 455.721 165.719 455.236 164.592C454.751 163.465 454.508 162.235 454.508 160.9C454.508 159.565 454.751 158.335 455.236 157.208C455.721 156.081 456.397 155.102 457.264 154.27C458.131 153.421 459.153 152.762 460.332 152.294C461.511 151.826 462.802 151.592 464.206 151.592C465.593 151.592 466.867 151.826 468.028 152.294C469.207 152.745 470.229 153.395 471.096 154.244C471.98 155.076 472.656 156.055 473.124 157.182C473.609 158.309 473.852 159.548 473.852 160.9C473.852 162.252 473.609 163.491 473.124 164.618C472.656 165.745 471.98 166.733 471.096 167.582C470.229 168.414 469.207 169.064 468.028 169.532C466.867 169.983 465.593 170.208 464.206 170.208ZM470.16 173.796C469.553 173.796 468.973 173.718 468.418 173.562C467.863 173.423 467.309 173.189 466.754 172.86C466.199 172.548 465.627 172.132 465.038 171.612C464.449 171.109 463.807 170.485 463.114 169.74L465.896 169.012C466.416 169.653 466.91 170.173 467.378 170.572C467.863 170.988 468.34 171.283 468.808 171.456C469.276 171.647 469.735 171.742 470.186 171.742C471.486 171.742 472.595 171.222 473.514 170.182L474.736 171.664C473.557 173.085 472.032 173.796 470.16 173.796ZM464.206 167.894C465.211 167.894 466.139 167.721 466.988 167.374C467.855 167.027 468.6 166.533 469.224 165.892C469.865 165.251 470.359 164.505 470.706 163.656C471.07 162.807 471.252 161.888 471.252 160.9C471.252 159.895 471.07 158.967 470.706 158.118C470.359 157.269 469.865 156.532 469.224 155.908C468.6 155.267 467.855 154.773 466.988 154.426C466.139 154.079 465.211 153.906 464.206 153.906C463.183 153.906 462.239 154.079 461.372 154.426C460.523 154.773 459.777 155.267 459.136 155.908C458.495 156.532 457.992 157.269 457.628 158.118C457.281 158.967 457.108 159.895 457.108 160.9C457.108 161.888 457.281 162.807 457.628 163.656C457.992 164.505 458.495 165.251 459.136 165.892C459.777 166.533 460.523 167.027 461.372 167.374C462.239 167.721 463.183 167.894 464.206 167.894ZM483.65 170.156C482.471 170.156 481.431 169.939 480.53 169.506C479.646 169.073 478.953 168.414 478.45 167.53C477.965 166.629 477.722 165.502 477.722 164.15V156.22H480.218V163.864C480.218 165.216 480.539 166.23 481.18 166.906C481.839 167.582 482.757 167.92 483.936 167.92C484.803 167.92 485.557 167.747 486.198 167.4C486.839 167.036 487.333 166.516 487.68 165.84C488.027 165.147 488.2 164.315 488.2 163.344V156.22H490.696V170H488.33V166.282L488.72 167.27C488.269 168.189 487.593 168.899 486.692 169.402C485.791 169.905 484.777 170.156 483.65 170.156ZM501.974 170.156C500.5 170.156 499.2 169.853 498.074 169.246C496.964 168.639 496.098 167.807 495.474 166.75C494.867 165.693 494.564 164.479 494.564 163.11C494.564 161.741 494.858 160.527 495.448 159.47C496.054 158.413 496.878 157.589 497.918 157C498.975 156.393 500.162 156.09 501.48 156.09C502.814 156.09 503.993 156.385 505.016 156.974C506.038 157.563 506.836 158.395 507.408 159.47C507.997 160.527 508.292 161.767 508.292 163.188C508.292 163.292 508.283 163.413 508.266 163.552C508.266 163.691 508.257 163.821 508.24 163.942H496.514V162.148H506.94L505.926 162.772C505.943 161.888 505.761 161.099 505.38 160.406C504.998 159.713 504.47 159.175 503.794 158.794C503.135 158.395 502.364 158.196 501.48 158.196C500.613 158.196 499.842 158.395 499.166 158.794C498.49 159.175 497.961 159.721 497.58 160.432C497.198 161.125 497.008 161.923 497.008 162.824V163.24C497.008 164.159 497.216 164.982 497.632 165.71C498.065 166.421 498.663 166.975 499.426 167.374C500.188 167.773 501.064 167.972 502.052 167.972C502.866 167.972 503.603 167.833 504.262 167.556C504.938 167.279 505.527 166.863 506.03 166.308L507.408 167.92C506.784 168.648 506.004 169.203 505.068 169.584C504.149 169.965 503.118 170.156 501.974 170.156ZM512.148 170V156.22H514.54V159.964L514.306 159.028C514.687 158.075 515.328 157.347 516.23 156.844C517.131 156.341 518.24 156.09 519.558 156.09V158.508C519.454 158.491 519.35 158.482 519.246 158.482C519.159 158.482 519.072 158.482 518.986 158.482C517.651 158.482 516.594 158.881 515.814 159.678C515.034 160.475 514.644 161.628 514.644 163.136V170H512.148ZM524.181 175.2C523.522 175.2 522.881 175.087 522.257 174.862C521.633 174.654 521.095 174.342 520.645 173.926L521.711 172.054C522.057 172.383 522.439 172.635 522.855 172.808C523.271 172.981 523.713 173.068 524.181 173.068C524.787 173.068 525.29 172.912 525.689 172.6C526.087 172.288 526.46 171.733 526.807 170.936L527.665 169.038L527.925 168.726L533.333 156.22H535.777L529.095 171.378C528.696 172.349 528.245 173.111 527.743 173.666C527.257 174.221 526.72 174.611 526.131 174.836C525.541 175.079 524.891 175.2 524.181 175.2ZM527.457 170.442L521.165 156.22H523.765L529.121 168.492L527.457 170.442Z" fill="#0252CD"/>
<path d="M747.517 127V108.8H755.681C757.779 108.8 759.391 109.225 760.517 110.074C761.644 110.906 762.207 112.05 762.207 113.506C762.207 114.494 761.982 115.326 761.531 116.002C761.098 116.678 760.509 117.198 759.763 117.562C759.018 117.926 758.212 118.108 757.345 118.108L757.813 117.328C758.853 117.328 759.772 117.51 760.569 117.874C761.367 118.238 761.999 118.775 762.467 119.486C762.935 120.179 763.169 121.046 763.169 122.086C763.169 123.646 762.58 124.859 761.401 125.726C760.24 126.575 758.507 127 756.201 127H747.517ZM750.117 124.894H756.097C757.536 124.894 758.637 124.651 759.399 124.166C760.162 123.681 760.543 122.918 760.543 121.878C760.543 120.821 760.162 120.049 759.399 119.564C758.637 119.079 757.536 118.836 756.097 118.836H749.883V116.73H755.447C756.765 116.73 757.787 116.487 758.515 116.002C759.243 115.517 759.607 114.789 759.607 113.818C759.607 112.847 759.243 112.119 758.515 111.634C757.787 111.149 756.765 110.906 755.447 110.906H750.117V124.894ZM775.775 127V124.088L775.645 123.542V118.576C775.645 117.519 775.333 116.704 774.709 116.132C774.102 115.543 773.184 115.248 771.953 115.248C771.138 115.248 770.341 115.387 769.561 115.664C768.781 115.924 768.122 116.279 767.585 116.73L766.545 114.858C767.256 114.286 768.105 113.853 769.093 113.558C770.098 113.246 771.147 113.09 772.239 113.09C774.128 113.09 775.584 113.549 776.607 114.468C777.63 115.387 778.141 116.791 778.141 118.68V127H775.775ZM771.251 127.156C770.228 127.156 769.327 126.983 768.547 126.636C767.784 126.289 767.195 125.813 766.779 125.206C766.363 124.582 766.155 123.88 766.155 123.1C766.155 122.355 766.328 121.679 766.675 121.072C767.039 120.465 767.62 119.98 768.417 119.616C769.232 119.252 770.324 119.07 771.693 119.07H776.061V120.864H771.797C770.549 120.864 769.708 121.072 769.275 121.488C768.842 121.904 768.625 122.407 768.625 122.996C768.625 123.672 768.894 124.218 769.431 124.634C769.968 125.033 770.714 125.232 771.667 125.232C772.603 125.232 773.418 125.024 774.111 124.608C774.822 124.192 775.333 123.585 775.645 122.788L776.139 124.504C775.81 125.319 775.229 125.969 774.397 126.454C773.565 126.922 772.516 127.156 771.251 127.156ZM789.156 127.156C787.752 127.156 786.495 126.853 785.386 126.246C784.294 125.639 783.436 124.807 782.812 123.75C782.188 122.693 781.876 121.479 781.876 120.11C781.876 118.741 782.188 117.527 782.812 116.47C783.436 115.413 784.294 114.589 785.386 114C786.495 113.393 787.752 113.09 789.156 113.09C790.404 113.09 791.513 113.341 792.484 113.844C793.472 114.329 794.235 115.057 794.772 116.028L792.874 117.25C792.423 116.574 791.869 116.08 791.21 115.768C790.569 115.439 789.875 115.274 789.13 115.274C788.229 115.274 787.423 115.473 786.712 115.872C786.001 116.271 785.438 116.834 785.022 117.562C784.606 118.273 784.398 119.122 784.398 120.11C784.398 121.098 784.606 121.956 785.022 122.684C785.438 123.412 786.001 123.975 786.712 124.374C787.423 124.773 788.229 124.972 789.13 124.972C789.875 124.972 790.569 124.816 791.21 124.504C791.869 124.175 792.423 123.672 792.874 122.996L794.772 124.192C794.235 125.145 793.472 125.882 792.484 126.402C791.513 126.905 790.404 127.156 789.156 127.156ZM800.244 123.672L800.296 120.474L808.226 113.22H811.242L805.158 119.2L803.806 120.344L800.244 123.672ZM798.216 127V107.708H800.712V127H798.216ZM808.746 127L803.338 120.292L804.95 118.29L811.814 127H808.746ZM820.205 127.156C818.731 127.156 817.431 126.853 816.305 126.246C815.195 125.639 814.329 124.807 813.705 123.75C813.098 122.693 812.795 121.479 812.795 120.11C812.795 118.741 813.089 117.527 813.679 116.47C814.285 115.413 815.109 114.589 816.149 114C817.206 113.393 818.393 113.09 819.711 113.09C821.045 113.09 822.224 113.385 823.247 113.974C824.269 114.563 825.067 115.395 825.639 116.47C826.228 117.527 826.523 118.767 826.523 120.188C826.523 120.292 826.514 120.413 826.497 120.552C826.497 120.691 826.488 120.821 826.471 120.942H814.745V119.148H825.171L824.157 119.772C824.174 118.888 823.992 118.099 823.611 117.406C823.229 116.713 822.701 116.175 822.025 115.794C821.366 115.395 820.595 115.196 819.711 115.196C818.844 115.196 818.073 115.395 817.397 115.794C816.721 116.175 816.192 116.721 815.811 117.432C815.429 118.125 815.239 118.923 815.239 119.824V120.24C815.239 121.159 815.447 121.982 815.863 122.71C816.296 123.421 816.894 123.975 817.657 124.374C818.419 124.773 819.295 124.972 820.283 124.972C821.097 124.972 821.834 124.833 822.493 124.556C823.169 124.279 823.758 123.863 824.261 123.308L825.639 124.92C825.015 125.648 824.235 126.203 823.299 126.584C822.38 126.965 821.349 127.156 820.205 127.156ZM837.737 113.09C838.863 113.09 839.851 113.307 840.701 113.74C841.567 114.173 842.243 114.832 842.729 115.716C843.214 116.6 843.457 117.718 843.457 119.07V127H840.961V119.356C840.961 118.021 840.631 117.016 839.973 116.34C839.331 115.664 838.421 115.326 837.243 115.326C836.359 115.326 835.587 115.499 834.929 115.846C834.27 116.193 833.759 116.704 833.395 117.38C833.048 118.056 832.875 118.897 832.875 119.902V127H830.379V113.22H832.771V116.938L832.381 115.95C832.831 115.049 833.525 114.347 834.461 113.844C835.397 113.341 836.489 113.09 837.737 113.09ZM854.16 127.156C852.825 127.156 851.629 126.861 850.572 126.272C849.532 125.683 848.709 124.859 848.102 123.802C847.495 122.745 847.192 121.514 847.192 120.11C847.192 118.706 847.495 117.484 848.102 116.444C848.709 115.387 849.532 114.563 850.572 113.974C851.629 113.385 852.825 113.09 854.16 113.09C855.321 113.09 856.37 113.35 857.306 113.87C858.242 114.39 858.987 115.17 859.542 116.21C860.114 117.25 860.4 118.55 860.4 120.11C860.4 121.67 860.123 122.97 859.568 124.01C859.031 125.05 858.294 125.839 857.358 126.376C856.422 126.896 855.356 127.156 854.16 127.156ZM854.368 124.972C855.235 124.972 856.015 124.773 856.708 124.374C857.419 123.975 857.973 123.412 858.372 122.684C858.788 121.939 858.996 121.081 858.996 120.11C858.996 119.122 858.788 118.273 858.372 117.562C857.973 116.834 857.419 116.271 856.708 115.872C856.015 115.473 855.235 115.274 854.368 115.274C853.484 115.274 852.695 115.473 852.002 115.872C851.309 116.271 850.754 116.834 850.338 117.562C849.922 118.273 849.714 119.122 849.714 120.11C849.714 121.081 849.922 121.939 850.338 122.684C850.754 123.412 851.309 123.975 852.002 124.374C852.695 124.773 853.484 124.972 854.368 124.972ZM859.074 127V123.282L859.23 120.084L858.97 116.886V107.708H861.466V127H859.074ZM741.512 168V149.8H748.61C750.205 149.8 751.566 150.051 752.692 150.554C753.819 151.057 754.686 151.785 755.292 152.738C755.899 153.691 756.202 154.827 756.202 156.144C756.202 157.461 755.899 158.597 755.292 159.55C754.686 160.486 753.819 161.205 752.692 161.708C751.566 162.211 750.205 162.462 748.61 162.462H742.942L744.112 161.266V168H741.512ZM753.68 168L749.052 161.396H751.834L756.514 168H753.68ZM744.112 161.526L742.942 160.252H748.532C750.196 160.252 751.453 159.897 752.302 159.186C753.169 158.458 753.602 157.444 753.602 156.144C753.602 154.844 753.169 153.839 752.302 153.128C751.453 152.417 750.196 152.062 748.532 152.062H742.942L744.112 150.762V161.526ZM766.565 168.156C765.092 168.156 763.792 167.853 762.665 167.246C761.556 166.639 760.689 165.807 760.065 164.75C759.458 163.693 759.155 162.479 759.155 161.11C759.155 159.741 759.45 158.527 760.039 157.47C760.646 156.413 761.469 155.589 762.509 155C763.566 154.393 764.754 154.09 766.071 154.09C767.406 154.09 768.584 154.385 769.607 154.974C770.63 155.563 771.427 156.395 771.999 157.47C772.588 158.527 772.883 159.767 772.883 161.188C772.883 161.292 772.874 161.413 772.857 161.552C772.857 161.691 772.848 161.821 772.831 161.942H761.105V160.148H771.531L770.517 160.772C770.534 159.888 770.352 159.099 769.971 158.406C769.59 157.713 769.061 157.175 768.385 156.794C767.726 156.395 766.955 156.196 766.071 156.196C765.204 156.196 764.433 156.395 763.757 156.794C763.081 157.175 762.552 157.721 762.171 158.432C761.79 159.125 761.599 159.923 761.599 160.824V161.24C761.599 162.159 761.807 162.982 762.223 163.71C762.656 164.421 763.254 164.975 764.017 165.374C764.78 165.773 765.655 165.972 766.643 165.972C767.458 165.972 768.194 165.833 768.853 165.556C769.529 165.279 770.118 164.863 770.621 164.308L771.999 165.92C771.375 166.648 770.595 167.203 769.659 167.584C768.74 167.965 767.709 168.156 766.565 168.156ZM780.691 168.156C779.547 168.156 778.455 168 777.415 167.688C776.392 167.376 775.586 166.995 774.997 166.544L776.037 164.568C776.626 164.967 777.354 165.305 778.221 165.582C779.088 165.859 779.972 165.998 780.873 165.998C782.034 165.998 782.866 165.833 783.369 165.504C783.889 165.175 784.149 164.715 784.149 164.126C784.149 163.693 783.993 163.355 783.681 163.112C783.369 162.869 782.953 162.687 782.433 162.566C781.93 162.445 781.367 162.341 780.743 162.254C780.119 162.15 779.495 162.029 778.871 161.89C778.247 161.734 777.675 161.526 777.155 161.266C776.635 160.989 776.219 160.616 775.907 160.148C775.595 159.663 775.439 159.021 775.439 158.224C775.439 157.392 775.673 156.664 776.141 156.04C776.609 155.416 777.268 154.939 778.117 154.61C778.984 154.263 780.006 154.09 781.185 154.09C782.086 154.09 782.996 154.203 783.915 154.428C784.851 154.636 785.614 154.939 786.203 155.338L785.137 157.314C784.513 156.898 783.863 156.612 783.187 156.456C782.511 156.3 781.835 156.222 781.159 156.222C780.067 156.222 779.252 156.404 778.715 156.768C778.178 157.115 777.909 157.565 777.909 158.12C777.909 158.588 778.065 158.952 778.377 159.212C778.706 159.455 779.122 159.645 779.625 159.784C780.145 159.923 780.717 160.044 781.341 160.148C781.965 160.235 782.589 160.356 783.213 160.512C783.837 160.651 784.4 160.85 784.903 161.11C785.423 161.37 785.839 161.734 786.151 162.202C786.48 162.67 786.645 163.294 786.645 164.074C786.645 164.906 786.402 165.625 785.917 166.232C785.432 166.839 784.747 167.315 783.863 167.662C782.979 167.991 781.922 168.156 780.691 168.156ZM797.46 168.156C796.316 168.156 795.268 167.896 794.314 167.376C793.378 166.839 792.624 166.05 792.052 165.01C791.498 163.97 791.22 162.67 791.22 161.11C791.22 159.55 791.489 158.25 792.026 157.21C792.581 156.17 793.326 155.39 794.262 154.87C795.216 154.35 796.282 154.09 797.46 154.09C798.812 154.09 800.008 154.385 801.048 154.974C802.088 155.563 802.912 156.387 803.518 157.444C804.125 158.484 804.428 159.706 804.428 161.11C804.428 162.514 804.125 163.745 803.518 164.802C802.912 165.859 802.088 166.683 801.048 167.272C800.008 167.861 798.812 168.156 797.46 168.156ZM790.154 173.044V154.22H792.546V157.938L792.39 161.136L792.65 164.334V173.044H790.154ZM797.252 165.972C798.136 165.972 798.925 165.773 799.618 165.374C800.329 164.975 800.884 164.412 801.282 163.684C801.698 162.939 801.906 162.081 801.906 161.11C801.906 160.122 801.698 159.273 801.282 158.562C800.884 157.834 800.329 157.271 799.618 156.872C798.925 156.473 798.136 156.274 797.252 156.274C796.386 156.274 795.597 156.473 794.886 156.872C794.193 157.271 793.638 157.834 793.222 158.562C792.824 159.273 792.624 160.122 792.624 161.11C792.624 162.081 792.824 162.939 793.222 163.684C793.638 164.412 794.193 164.975 794.886 165.374C795.597 165.773 796.386 165.972 797.252 165.972ZM814.169 168.156C812.782 168.156 811.552 167.853 810.477 167.246C809.402 166.639 808.553 165.807 807.929 164.75C807.305 163.675 806.993 162.462 806.993 161.11C806.993 159.741 807.305 158.527 807.929 157.47C808.553 156.413 809.402 155.589 810.477 155C811.552 154.393 812.782 154.09 814.169 154.09C815.538 154.09 816.76 154.393 817.835 155C818.927 155.589 819.776 156.413 820.383 157.47C821.007 158.51 821.319 159.723 821.319 161.11C821.319 162.479 821.007 163.693 820.383 164.75C819.776 165.807 818.927 166.639 817.835 167.246C816.76 167.853 815.538 168.156 814.169 168.156ZM814.169 165.972C815.053 165.972 815.842 165.773 816.535 165.374C817.246 164.975 817.8 164.412 818.199 163.684C818.598 162.939 818.797 162.081 818.797 161.11C818.797 160.122 818.598 159.273 818.199 158.562C817.8 157.834 817.246 157.271 816.535 156.872C815.842 156.473 815.053 156.274 814.169 156.274C813.285 156.274 812.496 156.473 811.803 156.872C811.11 157.271 810.555 157.834 810.139 158.562C809.723 159.273 809.515 160.122 809.515 161.11C809.515 162.081 809.723 162.939 810.139 163.684C810.555 164.412 811.11 164.975 811.803 165.374C812.496 165.773 813.285 165.972 814.169 165.972ZM832.519 154.09C833.646 154.09 834.634 154.307 835.483 154.74C836.35 155.173 837.026 155.832 837.511 156.716C837.996 157.6 838.239 158.718 838.239 160.07V168H835.743V160.356C835.743 159.021 835.414 158.016 834.755 157.34C834.114 156.664 833.204 156.326 832.025 156.326C831.141 156.326 830.37 156.499 829.711 156.846C829.052 157.193 828.541 157.704 828.177 158.38C827.83 159.056 827.657 159.897 827.657 160.902V168H825.161V154.22H827.553V157.938L827.163 156.95C827.614 156.049 828.307 155.347 829.243 154.844C830.179 154.341 831.271 154.09 832.519 154.09ZM847.2 168.156C846.056 168.156 844.964 168 843.924 167.688C842.902 167.376 842.096 166.995 841.506 166.544L842.546 164.568C843.136 164.967 843.864 165.305 844.73 165.582C845.597 165.859 846.481 165.998 847.382 165.998C848.544 165.998 849.376 165.833 849.878 165.504C850.398 165.175 850.658 164.715 850.658 164.126C850.658 163.693 850.502 163.355 850.19 163.112C849.878 162.869 849.462 162.687 848.942 162.566C848.44 162.445 847.876 162.341 847.252 162.254C846.628 162.15 846.004 162.029 845.38 161.89C844.756 161.734 844.184 161.526 843.664 161.266C843.144 160.989 842.728 160.616 842.416 160.148C842.104 159.663 841.948 159.021 841.948 158.224C841.948 157.392 842.182 156.664 842.65 156.04C843.118 155.416 843.777 154.939 844.626 154.61C845.493 154.263 846.516 154.09 847.694 154.09C848.596 154.09 849.506 154.203 850.424 154.428C851.36 154.636 852.123 154.939 852.712 155.338L851.646 157.314C851.022 156.898 850.372 156.612 849.696 156.456C849.02 156.3 848.344 156.222 847.668 156.222C846.576 156.222 845.762 156.404 845.224 156.768C844.687 157.115 844.418 157.565 844.418 158.12C844.418 158.588 844.574 158.952 844.886 159.212C845.216 159.455 845.632 159.645 846.134 159.784C846.654 159.923 847.226 160.044 847.85 160.148C848.474 160.235 849.098 160.356 849.722 160.512C850.346 160.651 850.91 160.85 851.412 161.11C851.932 161.37 852.348 161.734 852.66 162.202C852.99 162.67 853.154 163.294 853.154 164.074C853.154 164.906 852.912 165.625 852.426 166.232C851.941 166.839 851.256 167.315 850.372 167.662C849.488 167.991 848.431 168.156 847.2 168.156ZM862.8 168.156C861.326 168.156 860.026 167.853 858.9 167.246C857.79 166.639 856.924 165.807 856.3 164.75C855.693 163.693 855.39 162.479 855.39 161.11C855.39 159.741 855.684 158.527 856.274 157.47C856.88 156.413 857.704 155.589 858.744 155C859.801 154.393 860.988 154.09 862.306 154.09C863.64 154.09 864.819 154.385 865.842 154.974C866.864 155.563 867.662 156.395 868.234 157.47C868.823 158.527 869.118 159.767 869.118 161.188C869.118 161.292 869.109 161.413 869.092 161.552C869.092 161.691 869.083 161.821 869.066 161.942H857.34V160.148H867.766L866.752 160.772C866.769 159.888 866.587 159.099 866.206 158.406C865.824 157.713 865.296 157.175 864.62 156.794C863.961 156.395 863.19 156.196 862.306 156.196C861.439 156.196 860.668 156.395 859.992 156.794C859.316 157.175 858.787 157.721 858.406 158.432C858.024 159.125 857.834 159.923 857.834 160.824V161.24C857.834 162.159 858.042 162.982 858.458 163.71C858.891 164.421 859.489 164.975 860.252 165.374C861.014 165.773 861.89 165.972 862.878 165.972C863.692 165.972 864.429 165.833 865.088 165.556C865.764 165.279 866.353 164.863 866.856 164.308L868.234 165.92C867.61 166.648 866.83 167.203 865.894 167.584C864.975 167.965 863.944 168.156 862.8 168.156Z" fill="white"/>
<path d="M1031.46 128V109.8H1039.13C1041.07 109.8 1042.78 110.181 1044.25 110.944C1045.74 111.707 1046.89 112.773 1047.71 114.142C1048.54 115.511 1048.95 117.097 1048.95 118.9C1048.95 120.703 1048.54 122.289 1047.71 123.658C1046.89 125.027 1045.74 126.093 1044.25 126.856C1042.78 127.619 1041.07 128 1039.13 128H1031.46ZM1034.06 125.738H1038.97C1040.48 125.738 1041.78 125.452 1042.87 124.88C1043.98 124.308 1044.84 123.511 1045.44 122.488C1046.05 121.448 1046.35 120.252 1046.35 118.9C1046.35 117.531 1046.05 116.335 1045.44 115.312C1044.84 114.289 1043.98 113.492 1042.87 112.92C1041.78 112.348 1040.48 112.062 1038.97 112.062H1034.06V125.738ZM1052.96 128V114.22H1055.46V128H1052.96ZM1054.21 111.568C1053.73 111.568 1053.32 111.412 1052.99 111.1C1052.68 110.788 1052.52 110.407 1052.52 109.956C1052.52 109.488 1052.68 109.098 1052.99 108.786C1053.32 108.474 1053.73 108.318 1054.21 108.318C1054.7 108.318 1055.09 108.474 1055.41 108.786C1055.74 109.081 1055.9 109.453 1055.9 109.904C1055.9 110.372 1055.74 110.771 1055.43 111.1C1055.12 111.412 1054.71 111.568 1054.21 111.568ZM1064.57 128.156C1063.42 128.156 1062.33 128 1061.29 127.688C1060.27 127.376 1059.46 126.995 1058.87 126.544L1059.91 124.568C1060.5 124.967 1061.23 125.305 1062.1 125.582C1062.96 125.859 1063.85 125.998 1064.75 125.998C1065.91 125.998 1066.74 125.833 1067.24 125.504C1067.76 125.175 1068.02 124.715 1068.02 124.126C1068.02 123.693 1067.87 123.355 1067.56 123.112C1067.24 122.869 1066.83 122.687 1066.31 122.566C1065.81 122.445 1065.24 122.341 1064.62 122.254C1063.99 122.15 1063.37 122.029 1062.75 121.89C1062.12 121.734 1061.55 121.526 1061.03 121.266C1060.51 120.989 1060.09 120.616 1059.78 120.148C1059.47 119.663 1059.31 119.021 1059.31 118.224C1059.31 117.392 1059.55 116.664 1060.02 116.04C1060.48 115.416 1061.14 114.939 1061.99 114.61C1062.86 114.263 1063.88 114.09 1065.06 114.09C1065.96 114.09 1066.87 114.203 1067.79 114.428C1068.73 114.636 1069.49 114.939 1070.08 115.338L1069.01 117.314C1068.39 116.898 1067.74 116.612 1067.06 116.456C1066.39 116.3 1065.71 116.222 1065.03 116.222C1063.94 116.222 1063.13 116.404 1062.59 116.768C1062.05 117.115 1061.78 117.565 1061.78 118.12C1061.78 118.588 1061.94 118.952 1062.25 119.212C1062.58 119.455 1063 119.645 1063.5 119.784C1064.02 119.923 1064.59 120.044 1065.22 120.148C1065.84 120.235 1066.46 120.356 1067.09 120.512C1067.71 120.651 1068.28 120.85 1068.78 121.11C1069.3 121.37 1069.71 121.734 1070.03 122.202C1070.36 122.67 1070.52 123.294 1070.52 124.074C1070.52 124.906 1070.28 125.625 1069.79 126.232C1069.31 126.839 1068.62 127.315 1067.74 127.662C1066.85 127.991 1065.8 128.156 1064.57 128.156ZM1081.34 128.156C1080.19 128.156 1079.14 127.896 1078.19 127.376C1077.25 126.839 1076.5 126.05 1075.93 125.01C1075.37 123.97 1075.1 122.67 1075.1 121.11C1075.1 119.55 1075.36 118.25 1075.9 117.21C1076.46 116.17 1077.2 115.39 1078.14 114.87C1079.09 114.35 1080.16 114.09 1081.34 114.09C1082.69 114.09 1083.88 114.385 1084.92 114.974C1085.96 115.563 1086.79 116.387 1087.39 117.444C1088 118.484 1088.3 119.706 1088.3 121.11C1088.3 122.514 1088 123.745 1087.39 124.802C1086.79 125.859 1085.96 126.683 1084.92 127.272C1083.88 127.861 1082.69 128.156 1081.34 128.156ZM1074.03 133.044V114.22H1076.42V117.938L1076.27 121.136L1076.53 124.334V133.044H1074.03ZM1081.13 125.972C1082.01 125.972 1082.8 125.773 1083.49 125.374C1084.2 124.975 1084.76 124.412 1085.16 123.684C1085.57 122.939 1085.78 122.081 1085.78 121.11C1085.78 120.122 1085.57 119.273 1085.16 118.562C1084.76 117.834 1084.2 117.271 1083.49 116.872C1082.8 116.473 1082.01 116.274 1081.13 116.274C1080.26 116.274 1079.47 116.473 1078.76 116.872C1078.07 117.271 1077.51 117.834 1077.1 118.562C1076.7 119.273 1076.5 120.122 1076.5 121.11C1076.5 122.081 1076.7 122.939 1077.1 123.684C1077.51 124.412 1078.07 124.975 1078.76 125.374C1079.47 125.773 1080.26 125.972 1081.13 125.972ZM1092.14 128V108.708H1094.64V128H1092.14ZM1108.35 128V125.088L1108.22 124.542V119.576C1108.22 118.519 1107.91 117.704 1107.28 117.132C1106.68 116.543 1105.76 116.248 1104.53 116.248C1103.71 116.248 1102.91 116.387 1102.13 116.664C1101.35 116.924 1100.7 117.279 1100.16 117.73L1099.12 115.858C1099.83 115.286 1100.68 114.853 1101.67 114.558C1102.67 114.246 1103.72 114.09 1104.81 114.09C1106.7 114.09 1108.16 114.549 1109.18 115.468C1110.2 116.387 1110.71 117.791 1110.71 119.68V128H1108.35ZM1103.82 128.156C1102.8 128.156 1101.9 127.983 1101.12 127.636C1100.36 127.289 1099.77 126.813 1099.35 126.206C1098.94 125.582 1098.73 124.88 1098.73 124.1C1098.73 123.355 1098.9 122.679 1099.25 122.072C1099.61 121.465 1100.19 120.98 1100.99 120.616C1101.81 120.252 1102.9 120.07 1104.27 120.07H1108.63V121.864H1104.37C1103.12 121.864 1102.28 122.072 1101.85 122.488C1101.42 122.904 1101.2 123.407 1101.2 123.996C1101.2 124.672 1101.47 125.218 1102 125.634C1102.54 126.033 1103.29 126.232 1104.24 126.232C1105.18 126.232 1105.99 126.024 1106.68 125.608C1107.4 125.192 1107.91 124.585 1108.22 123.788L1108.71 125.504C1108.38 126.319 1107.8 126.969 1106.97 127.454C1106.14 127.922 1105.09 128.156 1103.82 128.156ZM1116.07 133.2C1115.41 133.2 1114.77 133.087 1114.14 132.862C1113.52 132.654 1112.98 132.342 1112.53 131.926L1113.6 130.054C1113.94 130.383 1114.33 130.635 1114.74 130.808C1115.16 130.981 1115.6 131.068 1116.07 131.068C1116.67 131.068 1117.18 130.912 1117.58 130.6C1117.97 130.288 1118.35 129.733 1118.69 128.936L1119.55 127.038L1119.81 126.726L1125.22 114.22H1127.66L1120.98 129.378C1120.58 130.349 1120.13 131.111 1119.63 131.666C1119.14 132.221 1118.61 132.611 1118.02 132.836C1117.43 133.079 1116.78 133.2 1116.07 133.2ZM1119.34 128.442L1113.05 114.22H1115.65L1121.01 126.492L1119.34 128.442ZM1138.12 128V109.8H1145.79C1147.73 109.8 1149.44 110.181 1150.91 110.944C1152.4 111.707 1153.55 112.773 1154.37 114.142C1155.2 115.511 1155.62 117.097 1155.62 118.9C1155.62 120.703 1155.2 122.289 1154.37 123.658C1153.55 125.027 1152.4 126.093 1150.91 126.856C1149.44 127.619 1147.73 128 1145.79 128H1138.12ZM1140.72 125.738H1145.63C1147.14 125.738 1148.44 125.452 1149.53 124.88C1150.64 124.308 1151.5 123.511 1152.11 122.488C1152.71 121.448 1153.02 120.252 1153.02 118.9C1153.02 117.531 1152.71 116.335 1152.11 115.312C1151.5 114.289 1150.64 113.492 1149.53 112.92C1148.44 112.348 1147.14 112.062 1145.63 112.062H1140.72V125.738ZM1168.18 128V125.088L1168.05 124.542V119.576C1168.05 118.519 1167.74 117.704 1167.11 117.132C1166.51 116.543 1165.59 116.248 1164.36 116.248C1163.54 116.248 1162.75 116.387 1161.97 116.664C1161.19 116.924 1160.53 117.279 1159.99 117.73L1158.95 115.858C1159.66 115.286 1160.51 114.853 1161.5 114.558C1162.5 114.246 1163.55 114.09 1164.64 114.09C1166.53 114.09 1167.99 114.549 1169.01 115.468C1170.03 116.387 1170.55 117.791 1170.55 119.68V128H1168.18ZM1163.66 128.156C1162.63 128.156 1161.73 127.983 1160.95 127.636C1160.19 127.289 1159.6 126.813 1159.18 126.206C1158.77 125.582 1158.56 124.88 1158.56 124.1C1158.56 123.355 1158.73 122.679 1159.08 122.072C1159.44 121.465 1160.02 120.98 1160.82 120.616C1161.64 120.252 1162.73 120.07 1164.1 120.07H1168.47V121.864H1164.2C1162.95 121.864 1162.11 122.072 1161.68 122.488C1161.25 122.904 1161.03 123.407 1161.03 123.996C1161.03 124.672 1161.3 125.218 1161.84 125.634C1162.37 126.033 1163.12 126.232 1164.07 126.232C1165.01 126.232 1165.82 126.024 1166.52 125.608C1167.23 125.192 1167.74 124.585 1168.05 123.788L1168.54 125.504C1168.21 126.319 1167.63 126.969 1166.8 127.454C1165.97 127.922 1164.92 128.156 1163.66 128.156ZM1180.29 128.156C1178.9 128.156 1177.83 127.783 1177.06 127.038C1176.3 126.293 1175.92 125.227 1175.92 123.84V111.204H1178.41V123.736C1178.41 124.481 1178.6 125.053 1178.96 125.452C1179.34 125.851 1179.88 126.05 1180.57 126.05C1181.35 126.05 1182 125.833 1182.52 125.4L1183.3 127.194C1182.92 127.523 1182.46 127.766 1181.92 127.922C1181.4 128.078 1180.86 128.156 1180.29 128.156ZM1173.58 116.274V114.22H1182.37V116.274H1173.58ZM1195.26 128V125.088L1195.13 124.542V119.576C1195.13 118.519 1194.82 117.704 1194.2 117.132C1193.59 116.543 1192.67 116.248 1191.44 116.248C1190.63 116.248 1189.83 116.387 1189.05 116.664C1188.27 116.924 1187.61 117.279 1187.07 117.73L1186.03 115.858C1186.75 115.286 1187.59 114.853 1188.58 114.558C1189.59 114.246 1190.64 114.09 1191.73 114.09C1193.62 114.09 1195.07 114.549 1196.1 115.468C1197.12 116.387 1197.63 117.791 1197.63 119.68V128H1195.26ZM1190.74 128.156C1189.72 128.156 1188.82 127.983 1188.04 127.636C1187.27 127.289 1186.68 126.813 1186.27 126.206C1185.85 125.582 1185.64 124.88 1185.64 124.1C1185.64 123.355 1185.82 122.679 1186.16 122.072C1186.53 121.465 1187.11 120.98 1187.91 120.616C1188.72 120.252 1189.81 120.07 1191.18 120.07H1195.55V121.864H1191.29C1190.04 121.864 1189.2 122.072 1188.76 122.488C1188.33 122.904 1188.11 123.407 1188.11 123.996C1188.11 124.672 1188.38 125.218 1188.92 125.634C1189.46 126.033 1190.2 126.232 1191.16 126.232C1192.09 126.232 1192.91 126.024 1193.6 125.608C1194.31 125.192 1194.82 124.585 1195.13 123.788L1195.63 125.504C1195.3 126.319 1194.72 126.969 1193.89 127.454C1193.05 127.922 1192.01 128.156 1190.74 128.156ZM1067.64 169V150.8H1074.74C1076.33 150.8 1077.69 151.051 1078.82 151.554C1079.95 152.057 1080.81 152.785 1081.42 153.738C1082.03 154.691 1082.33 155.827 1082.33 157.144C1082.33 158.461 1082.03 159.597 1081.42 160.55C1080.81 161.486 1079.95 162.205 1078.82 162.708C1077.69 163.211 1076.33 163.462 1074.74 163.462H1069.07L1070.24 162.266V169H1067.64ZM1079.81 169L1075.18 162.396H1077.96L1082.64 169H1079.81ZM1070.24 162.526L1069.07 161.252H1074.66C1076.32 161.252 1077.58 160.897 1078.43 160.186C1079.3 159.458 1079.73 158.444 1079.73 157.144C1079.73 155.844 1079.3 154.839 1078.43 154.128C1077.58 153.417 1076.32 153.062 1074.66 153.062H1069.07L1070.24 151.762V162.526ZM1092.69 169.156C1091.22 169.156 1089.92 168.853 1088.79 168.246C1087.68 167.639 1086.82 166.807 1086.19 165.75C1085.59 164.693 1085.28 163.479 1085.28 162.11C1085.28 160.741 1085.58 159.527 1086.17 158.47C1086.77 157.413 1087.6 156.589 1088.64 156C1089.69 155.393 1090.88 155.09 1092.2 155.09C1093.53 155.09 1094.71 155.385 1095.73 155.974C1096.76 156.563 1097.55 157.395 1098.13 158.47C1098.72 159.527 1099.01 160.767 1099.01 162.188C1099.01 162.292 1099 162.413 1098.98 162.552C1098.98 162.691 1098.98 162.821 1098.96 162.942H1087.23V161.148H1097.66L1096.64 161.772C1096.66 160.888 1096.48 160.099 1096.1 159.406C1095.72 158.713 1095.19 158.175 1094.51 157.794C1093.85 157.395 1093.08 157.196 1092.2 157.196C1091.33 157.196 1090.56 157.395 1089.88 157.794C1089.21 158.175 1088.68 158.721 1088.3 159.432C1087.92 160.125 1087.73 160.923 1087.73 161.824V162.24C1087.73 163.159 1087.93 163.982 1088.35 164.71C1088.78 165.421 1089.38 165.975 1090.14 166.374C1090.91 166.773 1091.78 166.972 1092.77 166.972C1093.59 166.972 1094.32 166.833 1094.98 166.556C1095.66 166.279 1096.25 165.863 1096.75 165.308L1098.13 166.92C1097.5 167.648 1096.72 168.203 1095.79 168.584C1094.87 168.965 1093.84 169.156 1092.69 169.156ZM1106.82 169.156C1105.67 169.156 1104.58 169 1103.54 168.688C1102.52 168.376 1101.71 167.995 1101.12 167.544L1102.16 165.568C1102.75 165.967 1103.48 166.305 1104.35 166.582C1105.22 166.859 1106.1 166.998 1107 166.998C1108.16 166.998 1108.99 166.833 1109.5 166.504C1110.02 166.175 1110.28 165.715 1110.28 165.126C1110.28 164.693 1110.12 164.355 1109.81 164.112C1109.5 163.869 1109.08 163.687 1108.56 163.566C1108.06 163.445 1107.49 163.341 1106.87 163.254C1106.25 163.15 1105.62 163.029 1105 162.89C1104.37 162.734 1103.8 162.526 1103.28 162.266C1102.76 161.989 1102.35 161.616 1102.03 161.148C1101.72 160.663 1101.57 160.021 1101.57 159.224C1101.57 158.392 1101.8 157.664 1102.27 157.04C1102.74 156.416 1103.4 155.939 1104.24 155.61C1105.11 155.263 1106.13 155.09 1107.31 155.09C1108.21 155.09 1109.12 155.203 1110.04 155.428C1110.98 155.636 1111.74 155.939 1112.33 156.338L1111.26 158.314C1110.64 157.898 1109.99 157.612 1109.31 157.456C1108.64 157.3 1107.96 157.222 1107.29 157.222C1106.19 157.222 1105.38 157.404 1104.84 157.768C1104.31 158.115 1104.04 158.565 1104.04 159.12C1104.04 159.588 1104.19 159.952 1104.5 160.212C1104.83 160.455 1105.25 160.645 1105.75 160.784C1106.27 160.923 1106.84 161.044 1107.47 161.148C1108.09 161.235 1108.72 161.356 1109.34 161.512C1109.96 161.651 1110.53 161.85 1111.03 162.11C1111.55 162.37 1111.97 162.734 1112.28 163.202C1112.61 163.67 1112.77 164.294 1112.77 165.074C1112.77 165.906 1112.53 166.625 1112.04 167.232C1111.56 167.839 1110.87 168.315 1109.99 168.662C1109.11 168.991 1108.05 169.156 1106.82 169.156ZM1122.08 169.156C1120.9 169.156 1119.86 168.939 1118.96 168.506C1118.08 168.073 1117.38 167.414 1116.88 166.53C1116.39 165.629 1116.15 164.502 1116.15 163.15V155.22H1118.65V162.864C1118.65 164.216 1118.97 165.23 1119.61 165.906C1120.27 166.582 1121.19 166.92 1122.37 166.92C1123.23 166.92 1123.99 166.747 1124.63 166.4C1125.27 166.036 1125.76 165.516 1126.11 164.84C1126.46 164.147 1126.63 163.315 1126.63 162.344V155.22H1129.13V169H1126.76V165.282L1127.15 166.27C1126.7 167.189 1126.02 167.899 1125.12 168.402C1124.22 168.905 1123.21 169.156 1122.08 169.156ZM1134.27 169V149.708H1136.76V169H1134.27ZM1147.01 169.156C1145.62 169.156 1144.55 168.783 1143.78 168.038C1143.02 167.293 1142.64 166.227 1142.64 164.84V152.204H1145.13V164.736C1145.13 165.481 1145.32 166.053 1145.68 166.452C1146.06 166.851 1146.6 167.05 1147.29 167.05C1148.07 167.05 1148.72 166.833 1149.24 166.4L1150.02 168.194C1149.64 168.523 1149.18 168.766 1148.64 168.922C1148.12 169.078 1147.58 169.156 1147.01 169.156ZM1140.3 157.274V155.22H1149.09V157.274H1140.3ZM1157.38 169.156C1156.24 169.156 1155.15 169 1154.11 168.688C1153.08 168.376 1152.28 167.995 1151.69 167.544L1152.73 165.568C1153.32 165.967 1154.05 166.305 1154.91 166.582C1155.78 166.859 1156.66 166.998 1157.56 166.998C1158.73 166.998 1159.56 166.833 1160.06 166.504C1160.58 166.175 1160.84 165.715 1160.84 165.126C1160.84 164.693 1160.68 164.355 1160.37 164.112C1160.06 163.869 1159.64 163.687 1159.12 163.566C1158.62 163.445 1158.06 163.341 1157.43 163.254C1156.81 163.15 1156.19 163.029 1155.56 162.89C1154.94 162.734 1154.37 162.526 1153.85 162.266C1153.33 161.989 1152.91 161.616 1152.6 161.148C1152.29 160.663 1152.13 160.021 1152.13 159.224C1152.13 158.392 1152.36 157.664 1152.83 157.04C1153.3 156.416 1153.96 155.939 1154.81 155.61C1155.68 155.263 1156.7 155.09 1157.88 155.09C1158.78 155.09 1159.69 155.203 1160.61 155.428C1161.54 155.636 1162.31 155.939 1162.89 156.338L1161.83 158.314C1161.2 157.898 1160.55 157.612 1159.88 157.456C1159.2 157.3 1158.53 157.222 1157.85 157.222C1156.76 157.222 1155.94 157.404 1155.41 157.768C1154.87 158.115 1154.6 158.565 1154.6 159.12C1154.6 159.588 1154.76 159.952 1155.07 160.212C1155.4 160.455 1155.81 160.645 1156.32 160.784C1156.84 160.923 1157.41 161.044 1158.03 161.148C1158.66 161.235 1159.28 161.356 1159.9 161.512C1160.53 161.651 1161.09 161.85 1161.59 162.11C1162.11 162.37 1162.53 162.734 1162.84 163.202C1163.17 163.67 1163.34 164.294 1163.34 165.074C1163.34 165.906 1163.09 166.625 1162.61 167.232C1162.12 167.839 1161.44 168.315 1160.55 168.662C1159.67 168.991 1158.61 169.156 1157.38 169.156Z" fill="#0252CD"/>
<path d="M1058.33 443V424.8H1065.43C1067.02 424.8 1068.38 425.051 1069.51 425.554C1070.64 426.057 1071.5 426.785 1072.11 427.738C1072.72 428.691 1073.02 429.827 1073.02 431.144C1073.02 432.461 1072.72 433.597 1072.11 434.55C1071.5 435.486 1070.64 436.205 1069.51 436.708C1068.38 437.211 1067.02 437.462 1065.43 437.462H1059.76L1060.93 436.266V443H1058.33ZM1070.5 443L1065.87 436.396H1068.65L1073.33 443H1070.5ZM1060.93 436.526L1059.76 435.252H1065.35C1067.01 435.252 1068.27 434.897 1069.12 434.186C1069.99 433.458 1070.42 432.444 1070.42 431.144C1070.42 429.844 1069.99 428.839 1069.12 428.128C1068.27 427.417 1067.01 427.062 1065.35 427.062H1059.76L1060.93 425.762V436.526ZM1083.38 443.156C1081.91 443.156 1080.61 442.853 1079.48 442.246C1078.37 441.639 1077.51 440.807 1076.88 439.75C1076.28 438.693 1075.97 437.479 1075.97 436.11C1075.97 434.741 1076.27 433.527 1076.86 432.47C1077.46 431.413 1078.29 430.589 1079.33 430C1080.38 429.393 1081.57 429.09 1082.89 429.09C1084.22 429.09 1085.4 429.385 1086.42 429.974C1087.45 430.563 1088.24 431.395 1088.82 432.47C1089.41 433.527 1089.7 434.767 1089.7 436.188C1089.7 436.292 1089.69 436.413 1089.67 436.552C1089.67 436.691 1089.67 436.821 1089.65 436.942H1077.92V435.148H1088.35L1087.33 435.772C1087.35 434.888 1087.17 434.099 1086.79 433.406C1086.41 432.713 1085.88 432.175 1085.2 431.794C1084.54 431.395 1083.77 431.196 1082.89 431.196C1082.02 431.196 1081.25 431.395 1080.57 431.794C1079.9 432.175 1079.37 432.721 1078.99 433.432C1078.61 434.125 1078.42 434.923 1078.42 435.824V436.24C1078.42 437.159 1078.62 437.982 1079.04 438.71C1079.47 439.421 1080.07 439.975 1080.83 440.374C1081.6 440.773 1082.47 440.972 1083.46 440.972C1084.28 440.972 1085.01 440.833 1085.67 440.556C1086.35 440.279 1086.94 439.863 1087.44 439.308L1088.82 440.92C1088.19 441.648 1087.41 442.203 1086.48 442.584C1085.56 442.965 1084.53 443.156 1083.38 443.156ZM1100.91 429.09C1102.04 429.09 1103.03 429.307 1103.88 429.74C1104.75 430.173 1105.42 430.832 1105.91 431.716C1106.39 432.6 1106.63 433.718 1106.63 435.07V443H1104.14V435.356C1104.14 434.021 1103.81 433.016 1103.15 432.34C1102.51 431.664 1101.6 431.326 1100.42 431.326C1099.54 431.326 1098.77 431.499 1098.11 431.846C1097.45 432.193 1096.94 432.704 1096.57 433.38C1096.23 434.056 1096.05 434.897 1096.05 435.902V443H1093.56V429.22H1095.95V432.938L1095.56 431.95C1096.01 431.049 1096.7 430.347 1097.64 429.844C1098.57 429.341 1099.67 429.09 1100.91 429.09ZM1116.38 443.156C1114.99 443.156 1113.91 442.783 1113.15 442.038C1112.39 441.293 1112.01 440.227 1112.01 438.84V426.204H1114.5V438.736C1114.5 439.481 1114.69 440.053 1115.05 440.452C1115.43 440.851 1115.97 441.05 1116.66 441.05C1117.44 441.05 1118.09 440.833 1118.61 440.4L1119.39 442.194C1119.01 442.523 1118.55 442.766 1118.01 442.922C1117.49 443.078 1116.95 443.156 1116.38 443.156ZM1109.67 431.274V429.22H1118.46V431.274H1109.67ZM1138.67 443.208C1137.29 443.208 1136 442.983 1134.83 442.532C1133.66 442.064 1132.65 441.414 1131.78 440.582C1130.93 439.733 1130.27 438.745 1129.78 437.618C1129.3 436.491 1129.05 435.252 1129.05 433.9C1129.05 432.548 1129.3 431.309 1129.78 430.182C1130.27 429.055 1130.94 428.076 1131.81 427.244C1132.68 426.395 1133.69 425.745 1134.85 425.294C1136.03 424.826 1137.31 424.592 1138.7 424.592C1140.1 424.592 1141.4 424.835 1142.57 425.32C1143.77 425.788 1144.78 426.49 1145.62 427.426L1143.93 429.064C1143.23 428.336 1142.45 427.799 1141.59 427.452C1140.72 427.088 1139.79 426.906 1138.8 426.906C1137.78 426.906 1136.83 427.079 1135.94 427.426C1135.08 427.773 1134.32 428.258 1133.68 428.882C1133.04 429.506 1132.54 430.251 1132.17 431.118C1131.83 431.967 1131.65 432.895 1131.65 433.9C1131.65 434.905 1131.83 435.841 1132.17 436.708C1132.54 437.557 1133.04 438.294 1133.68 438.918C1134.32 439.542 1135.08 440.027 1135.94 440.374C1136.83 440.721 1137.78 440.894 1138.8 440.894C1139.79 440.894 1140.72 440.721 1141.59 440.374C1142.45 440.01 1143.23 439.455 1143.93 438.71L1145.62 440.348C1144.78 441.284 1143.77 441.995 1142.57 442.48C1141.4 442.965 1140.1 443.208 1138.67 443.208ZM1157.73 443V440.088L1157.6 439.542V434.576C1157.6 433.519 1157.29 432.704 1156.66 432.132C1156.05 431.543 1155.14 431.248 1153.91 431.248C1153.09 431.248 1152.29 431.387 1151.51 431.664C1150.73 431.924 1150.07 432.279 1149.54 432.73L1148.5 430.858C1149.21 430.286 1150.06 429.853 1151.05 429.558C1152.05 429.246 1153.1 429.09 1154.19 429.09C1156.08 429.09 1157.54 429.549 1158.56 430.468C1159.58 431.387 1160.09 432.791 1160.09 434.68V443H1157.73ZM1153.2 443.156C1152.18 443.156 1151.28 442.983 1150.5 442.636C1149.74 442.289 1149.15 441.813 1148.73 441.206C1148.32 440.582 1148.11 439.88 1148.11 439.1C1148.11 438.355 1148.28 437.679 1148.63 437.072C1148.99 436.465 1149.57 435.98 1150.37 435.616C1151.18 435.252 1152.28 435.07 1153.65 435.07H1158.01V436.864H1153.75C1152.5 436.864 1151.66 437.072 1151.23 437.488C1150.79 437.904 1150.58 438.407 1150.58 438.996C1150.58 439.672 1150.85 440.218 1151.38 440.634C1151.92 441.033 1152.67 441.232 1153.62 441.232C1154.56 441.232 1155.37 441.024 1156.06 440.608C1156.77 440.192 1157.29 439.585 1157.6 438.788L1158.09 440.504C1157.76 441.319 1157.18 441.969 1156.35 442.454C1155.52 442.922 1154.47 443.156 1153.2 443.156ZM1165.1 443V429.22H1167.49V432.964L1167.26 432.028C1167.64 431.075 1168.28 430.347 1169.18 429.844C1170.09 429.341 1171.19 429.09 1172.51 429.09V431.508C1172.41 431.491 1172.3 431.482 1172.2 431.482C1172.11 431.482 1172.03 431.482 1171.94 431.482C1170.61 431.482 1169.55 431.881 1168.77 432.678C1167.99 433.475 1167.6 434.628 1167.6 436.136V443H1165.1Z" fill="white"/>
<path d="M749.346 443.208C747.959 443.208 746.676 442.983 745.498 442.532C744.336 442.064 743.322 441.414 742.456 440.582C741.606 439.733 740.939 438.745 740.454 437.618C739.968 436.491 739.726 435.252 739.726 433.9C739.726 432.548 739.968 431.309 740.454 430.182C740.939 429.055 741.615 428.076 742.482 427.244C743.348 426.395 744.362 425.745 745.524 425.294C746.702 424.826 747.985 424.592 749.372 424.592C750.776 424.592 752.067 424.835 753.246 425.32C754.442 425.788 755.456 426.49 756.288 427.426L754.598 429.064C753.904 428.336 753.124 427.799 752.258 427.452C751.391 427.088 750.464 426.906 749.476 426.906C748.453 426.906 747.5 427.079 746.616 427.426C745.749 427.773 744.995 428.258 744.354 428.882C743.712 429.506 743.21 430.251 742.846 431.118C742.499 431.967 742.326 432.895 742.326 433.9C742.326 434.905 742.499 435.841 742.846 436.708C743.21 437.557 743.712 438.294 744.354 438.918C744.995 439.542 745.749 440.027 746.616 440.374C747.5 440.721 748.453 440.894 749.476 440.894C750.464 440.894 751.391 440.721 752.258 440.374C753.124 440.01 753.904 439.455 754.598 438.71L756.288 440.348C755.456 441.284 754.442 441.995 753.246 442.48C752.067 442.965 750.767 443.208 749.346 443.208ZM765.341 443.156C763.954 443.156 762.724 442.853 761.649 442.246C760.574 441.639 759.725 440.807 759.101 439.75C758.477 438.675 758.165 437.462 758.165 436.11C758.165 434.741 758.477 433.527 759.101 432.47C759.725 431.413 760.574 430.589 761.649 430C762.724 429.393 763.954 429.09 765.341 429.09C766.71 429.09 767.932 429.393 769.007 430C770.099 430.589 770.948 431.413 771.555 432.47C772.179 433.51 772.491 434.723 772.491 436.11C772.491 437.479 772.179 438.693 771.555 439.75C770.948 440.807 770.099 441.639 769.007 442.246C767.932 442.853 766.71 443.156 765.341 443.156ZM765.341 440.972C766.225 440.972 767.014 440.773 767.707 440.374C768.418 439.975 768.972 439.412 769.371 438.684C769.77 437.939 769.969 437.081 769.969 436.11C769.969 435.122 769.77 434.273 769.371 433.562C768.972 432.834 768.418 432.271 767.707 431.872C767.014 431.473 766.225 431.274 765.341 431.274C764.457 431.274 763.668 431.473 762.975 431.872C762.282 432.271 761.727 432.834 761.311 433.562C760.895 434.273 760.687 435.122 760.687 436.11C760.687 437.081 760.895 437.939 761.311 438.684C761.727 439.412 762.282 439.975 762.975 440.374C763.668 440.773 764.457 440.972 765.341 440.972ZM793.571 429.09C794.68 429.09 795.659 429.307 796.509 429.74C797.358 430.173 798.017 430.832 798.485 431.716C798.97 432.6 799.213 433.718 799.213 435.07V443H796.717V435.356C796.717 434.021 796.405 433.016 795.781 432.34C795.157 431.664 794.281 431.326 793.155 431.326C792.323 431.326 791.595 431.499 790.971 431.846C790.347 432.193 789.861 432.704 789.515 433.38C789.185 434.056 789.021 434.897 789.021 435.902V443H786.525V435.356C786.525 434.021 786.213 433.016 785.589 432.34C784.982 431.664 784.107 431.326 782.963 431.326C782.148 431.326 781.429 431.499 780.805 431.846C780.181 432.193 779.695 432.704 779.349 433.38C779.002 434.056 778.829 434.897 778.829 435.902V443H776.333V429.22H778.725V432.886L778.335 431.95C778.768 431.049 779.435 430.347 780.337 429.844C781.238 429.341 782.287 429.09 783.483 429.09C784.8 429.09 785.935 429.419 786.889 430.078C787.842 430.719 788.466 431.699 788.761 433.016L787.747 432.6C788.163 431.543 788.891 430.693 789.931 430.052C790.971 429.411 792.184 429.09 793.571 429.09ZM811.501 443.156C810.357 443.156 809.309 442.896 808.355 442.376C807.419 441.839 806.665 441.05 806.093 440.01C805.539 438.97 805.261 437.67 805.261 436.11C805.261 434.55 805.53 433.25 806.067 432.21C806.622 431.17 807.367 430.39 808.303 429.87C809.257 429.35 810.323 429.09 811.501 429.09C812.853 429.09 814.049 429.385 815.089 429.974C816.129 430.563 816.953 431.387 817.559 432.444C818.166 433.484 818.469 434.706 818.469 436.11C818.469 437.514 818.166 438.745 817.559 439.802C816.953 440.859 816.129 441.683 815.089 442.272C814.049 442.861 812.853 443.156 811.501 443.156ZM804.195 448.044V429.22H806.587V432.938L806.431 436.136L806.691 439.334V448.044H804.195ZM811.293 440.972C812.177 440.972 812.966 440.773 813.659 440.374C814.37 439.975 814.925 439.412 815.323 438.684C815.739 437.939 815.947 437.081 815.947 436.11C815.947 435.122 815.739 434.273 815.323 433.562C814.925 432.834 814.37 432.271 813.659 431.872C812.966 431.473 812.177 431.274 811.293 431.274C810.427 431.274 809.638 431.473 808.927 431.872C808.234 432.271 807.679 432.834 807.263 433.562C806.865 434.273 806.665 435.122 806.665 436.11C806.665 437.081 806.865 437.939 807.263 438.684C807.679 439.412 808.234 439.975 808.927 440.374C809.638 440.773 810.427 440.972 811.293 440.972ZM822.308 443V423.708H824.804V443H822.308ZM836.096 443.156C834.622 443.156 833.322 442.853 832.196 442.246C831.086 441.639 830.22 440.807 829.596 439.75C828.989 438.693 828.686 437.479 828.686 436.11C828.686 434.741 828.98 433.527 829.57 432.47C830.176 431.413 831 430.589 832.04 430C833.097 429.393 834.284 429.09 835.602 429.09C836.936 429.09 838.115 429.385 839.138 429.974C840.16 430.563 840.958 431.395 841.53 432.47C842.119 433.527 842.414 434.767 842.414 436.188C842.414 436.292 842.405 436.413 842.388 436.552C842.388 436.691 842.379 436.821 842.362 436.942H830.636V435.148H841.062L840.048 435.772C840.065 434.888 839.883 434.099 839.502 433.406C839.12 432.713 838.592 432.175 837.916 431.794C837.257 431.395 836.486 431.196 835.602 431.196C834.735 431.196 833.964 431.395 833.288 431.794C832.612 432.175 832.083 432.721 831.702 433.432C831.32 434.125 831.13 434.923 831.13 435.824V436.24C831.13 437.159 831.338 437.982 831.754 438.71C832.187 439.421 832.785 439.975 833.548 440.374C834.31 440.773 835.186 440.972 836.174 440.972C836.988 440.972 837.725 440.833 838.384 440.556C839.06 440.279 839.649 439.863 840.152 439.308L841.53 440.92C840.906 441.648 840.126 442.203 839.19 442.584C838.271 442.965 837.24 443.156 836.096 443.156ZM851.002 443.156C849.615 443.156 848.54 442.783 847.778 442.038C847.015 441.293 846.634 440.227 846.634 438.84V426.204H849.13V438.736C849.13 439.481 849.312 440.053 849.676 440.452C850.057 440.851 850.594 441.05 851.288 441.05C852.068 441.05 852.718 440.833 853.238 440.4L854.018 442.194C853.636 442.523 853.177 442.766 852.64 442.922C852.12 443.078 851.574 443.156 851.002 443.156ZM844.294 431.274V429.22H853.082V431.274H844.294ZM863.104 443.156C861.631 443.156 860.331 442.853 859.204 442.246C858.095 441.639 857.228 440.807 856.604 439.75C855.998 438.693 855.694 437.479 855.694 436.11C855.694 434.741 855.989 433.527 856.578 432.47C857.185 431.413 858.008 430.589 859.048 430C860.106 429.393 861.293 429.09 862.61 429.09C863.945 429.09 865.124 429.385 866.146 429.974C867.169 430.563 867.966 431.395 868.538 432.47C869.128 433.527 869.422 434.767 869.422 436.188C869.422 436.292 869.414 436.413 869.396 436.552C869.396 436.691 869.388 436.821 869.37 436.942H857.644V435.148H868.07L867.056 435.772C867.074 434.888 866.892 434.099 866.51 433.406C866.129 432.713 865.6 432.175 864.924 431.794C864.266 431.395 863.494 431.196 862.61 431.196C861.744 431.196 860.972 431.395 860.296 431.794C859.62 432.175 859.092 432.721 858.71 433.432C858.329 434.125 858.138 434.923 858.138 435.824V436.24C858.138 437.159 858.346 437.982 858.762 438.71C859.196 439.421 859.794 439.975 860.556 440.374C861.319 440.773 862.194 440.972 863.182 440.972C863.997 440.972 864.734 440.833 865.392 440.556C866.068 440.279 866.658 439.863 867.16 439.308L868.538 440.92C867.914 441.648 867.134 442.203 866.198 442.584C865.28 442.965 864.248 443.156 863.104 443.156Z" fill="#0252CD"/>
<path d="M415.528 442V423.8H422.626C424.221 423.8 425.581 424.051 426.708 424.554C427.835 425.057 428.701 425.785 429.308 426.738C429.915 427.691 430.218 428.827 430.218 430.144C430.218 431.461 429.915 432.597 429.308 433.55C428.701 434.486 427.835 435.214 426.708 435.734C425.581 436.237 424.221 436.488 422.626 436.488H416.958L418.128 435.266V442H415.528ZM418.128 435.526L416.958 434.226H422.548C424.212 434.226 425.469 433.871 426.318 433.16C427.185 432.449 427.618 431.444 427.618 430.144C427.618 428.844 427.185 427.839 426.318 427.128C425.469 426.417 424.212 426.062 422.548 426.062H416.958L418.128 424.762V435.526ZM433.81 442V428.22H436.202V431.964L435.968 431.028C436.349 430.075 436.991 429.347 437.892 428.844C438.793 428.341 439.903 428.09 441.22 428.09V430.508C441.116 430.491 441.012 430.482 440.908 430.482C440.821 430.482 440.735 430.482 440.648 430.482C439.313 430.482 438.256 430.881 437.476 431.678C436.696 432.475 436.306 433.628 436.306 435.136V442H433.81ZM450.461 442.156C449.075 442.156 447.844 441.853 446.769 441.246C445.695 440.639 444.845 439.807 444.221 438.75C443.597 437.675 443.285 436.462 443.285 435.11C443.285 433.741 443.597 432.527 444.221 431.47C444.845 430.413 445.695 429.589 446.769 429C447.844 428.393 449.075 428.09 450.461 428.09C451.831 428.09 453.053 428.393 454.127 429C455.219 429.589 456.069 430.413 456.675 431.47C457.299 432.51 457.611 433.723 457.611 435.11C457.611 436.479 457.299 437.693 456.675 438.75C456.069 439.807 455.219 440.639 454.127 441.246C453.053 441.853 451.831 442.156 450.461 442.156ZM450.461 439.972C451.345 439.972 452.134 439.773 452.827 439.374C453.538 438.975 454.093 438.412 454.491 437.684C454.89 436.939 455.089 436.081 455.089 435.11C455.089 434.122 454.89 433.273 454.491 432.562C454.093 431.834 453.538 431.271 452.827 430.872C452.134 430.473 451.345 430.274 450.461 430.274C449.577 430.274 448.789 430.473 448.095 430.872C447.402 431.271 446.847 431.834 446.431 432.562C446.015 433.273 445.807 434.122 445.807 435.11C445.807 436.081 446.015 436.939 446.431 437.684C446.847 438.412 447.402 438.975 448.095 439.374C448.789 439.773 449.577 439.972 450.461 439.972ZM461.817 442V426.998C461.817 425.646 462.207 424.571 462.987 423.774C463.785 422.959 464.911 422.552 466.367 422.552C466.905 422.552 467.416 422.621 467.901 422.76C468.404 422.881 468.829 423.081 469.175 423.358L468.421 425.256C468.161 425.048 467.867 424.892 467.537 424.788C467.208 424.667 466.861 424.606 466.497 424.606C465.769 424.606 465.215 424.814 464.833 425.23C464.452 425.629 464.261 426.227 464.261 427.024V428.87L464.313 430.014V442H461.817ZM459.477 430.274V428.22H468.265V430.274H459.477ZM470.631 442V428.22H473.127V442H470.631ZM471.879 425.568C471.394 425.568 470.987 425.412 470.657 425.1C470.345 424.788 470.189 424.407 470.189 423.956C470.189 423.488 470.345 423.098 470.657 422.786C470.987 422.474 471.394 422.318 471.879 422.318C472.365 422.318 472.763 422.474 473.075 422.786C473.405 423.081 473.569 423.453 473.569 423.904C473.569 424.372 473.413 424.771 473.101 425.1C472.789 425.412 472.382 425.568 471.879 425.568ZM478.271 442V422.708H480.767V442H478.271ZM492.059 442.156C490.585 442.156 489.285 441.853 488.159 441.246C487.049 440.639 486.183 439.807 485.559 438.75C484.952 437.693 484.649 436.479 484.649 435.11C484.649 433.741 484.943 432.527 485.533 431.47C486.139 430.413 486.963 429.589 488.003 429C489.06 428.393 490.247 428.09 491.565 428.09C492.899 428.09 494.078 428.385 495.101 428.974C496.123 429.563 496.921 430.395 497.493 431.47C498.082 432.527 498.377 433.767 498.377 435.188C498.377 435.292 498.368 435.413 498.351 435.552C498.351 435.691 498.342 435.821 498.325 435.942H486.599V434.148H497.025L496.011 434.772C496.028 433.888 495.846 433.099 495.465 432.406C495.083 431.713 494.555 431.175 493.879 430.794C493.22 430.395 492.449 430.196 491.565 430.196C490.698 430.196 489.927 430.395 489.251 430.794C488.575 431.175 488.046 431.721 487.665 432.432C487.283 433.125 487.093 433.923 487.093 434.824V435.24C487.093 436.159 487.301 436.982 487.717 437.71C488.15 438.421 488.748 438.975 489.511 439.374C490.273 439.773 491.149 439.972 492.137 439.972C492.951 439.972 493.688 439.833 494.347 439.556C495.023 439.279 495.612 438.863 496.115 438.308L497.493 439.92C496.869 440.648 496.089 441.203 495.153 441.584C494.234 441.965 493.203 442.156 492.059 442.156ZM509.969 442V423.8H517.067C518.662 423.8 520.022 424.051 521.149 424.554C522.276 425.057 523.142 425.785 523.749 426.738C524.356 427.691 524.659 428.827 524.659 430.144C524.659 431.461 524.356 432.597 523.749 433.55C523.142 434.486 522.276 435.214 521.149 435.734C520.022 436.237 518.662 436.488 517.067 436.488H511.399L512.569 435.266V442H509.969ZM512.569 435.526L511.399 434.226H516.989C518.653 434.226 519.91 433.871 520.759 433.16C521.626 432.449 522.059 431.444 522.059 430.144C522.059 428.844 521.626 427.839 520.759 427.128C519.91 426.417 518.653 426.062 516.989 426.062H511.399L512.569 424.762V435.526ZM536.932 442V439.088L536.802 438.542V433.576C536.802 432.519 536.49 431.704 535.866 431.132C535.259 430.543 534.34 430.248 533.11 430.248C532.295 430.248 531.498 430.387 530.718 430.664C529.938 430.924 529.279 431.279 528.742 431.73L527.702 429.858C528.412 429.286 529.262 428.853 530.25 428.558C531.255 428.246 532.304 428.09 533.396 428.09C535.285 428.09 536.741 428.549 537.764 429.468C538.786 430.387 539.298 431.791 539.298 433.68V442H536.932ZM532.408 442.156C531.385 442.156 530.484 441.983 529.704 441.636C528.941 441.289 528.352 440.813 527.936 440.206C527.52 439.582 527.312 438.88 527.312 438.1C527.312 437.355 527.485 436.679 527.832 436.072C528.196 435.465 528.776 434.98 529.574 434.616C530.388 434.252 531.48 434.07 532.85 434.07H537.218V435.864H532.954C531.706 435.864 530.865 436.072 530.432 436.488C529.998 436.904 529.782 437.407 529.782 437.996C529.782 438.672 530.05 439.218 530.588 439.634C531.125 440.033 531.87 440.232 532.824 440.232C533.76 440.232 534.574 440.024 535.268 439.608C535.978 439.192 536.49 438.585 536.802 437.788L537.296 439.504C536.966 440.319 536.386 440.969 535.554 441.454C534.722 441.922 533.673 442.156 532.408 442.156ZM550.339 447.2C549.074 447.2 547.843 447.018 546.647 446.654C545.468 446.307 544.506 445.805 543.761 445.146L544.957 443.222C545.598 443.777 546.387 444.21 547.323 444.522C548.259 444.851 549.238 445.016 550.261 445.016C551.89 445.016 553.086 444.635 553.849 443.872C554.612 443.109 554.993 441.948 554.993 440.388V437.476L555.253 434.746L555.123 431.99V428.22H557.489V440.128C557.489 442.555 556.882 444.34 555.669 445.484C554.456 446.628 552.679 447.2 550.339 447.2ZM550.027 441.428C548.692 441.428 547.496 441.151 546.439 440.596C545.399 440.024 544.567 439.235 543.943 438.23C543.336 437.225 543.033 436.063 543.033 434.746C543.033 433.411 543.336 432.25 543.943 431.262C544.567 430.257 545.399 429.477 546.439 428.922C547.496 428.367 548.692 428.09 550.027 428.09C551.206 428.09 552.28 428.333 553.251 428.818C554.222 429.286 554.993 430.014 555.565 431.002C556.154 431.99 556.449 433.238 556.449 434.746C556.449 436.237 556.154 437.476 555.565 438.464C554.993 439.452 554.222 440.197 553.251 440.7C552.28 441.185 551.206 441.428 550.027 441.428ZM550.313 439.244C551.232 439.244 552.046 439.053 552.757 438.672C553.468 438.291 554.022 437.762 554.421 437.086C554.837 436.41 555.045 435.63 555.045 434.746C555.045 433.862 554.837 433.082 554.421 432.406C554.022 431.73 553.468 431.21 552.757 430.846C552.046 430.465 551.232 430.274 550.313 430.274C549.394 430.274 548.571 430.465 547.843 430.846C547.132 431.21 546.569 431.73 546.153 432.406C545.754 433.082 545.555 433.862 545.555 434.746C545.555 435.63 545.754 436.41 546.153 437.086C546.569 437.762 547.132 438.291 547.843 438.672C548.571 439.053 549.394 439.244 550.313 439.244ZM568.784 442.156C567.311 442.156 566.011 441.853 564.884 441.246C563.775 440.639 562.908 439.807 562.284 438.75C561.677 437.693 561.374 436.479 561.374 435.11C561.374 433.741 561.669 432.527 562.258 431.47C562.865 430.413 563.688 429.589 564.728 429C565.785 428.393 566.973 428.09 568.29 428.09C569.625 428.09 570.803 428.385 571.826 428.974C572.849 429.563 573.646 430.395 574.218 431.47C574.807 432.527 575.102 433.767 575.102 435.188C575.102 435.292 575.093 435.413 575.076 435.552C575.076 435.691 575.067 435.821 575.05 435.942H563.324V434.148H573.75L572.736 434.772C572.753 433.888 572.571 433.099 572.19 432.406C571.809 431.713 571.28 431.175 570.604 430.794C569.945 430.395 569.174 430.196 568.29 430.196C567.423 430.196 566.652 430.395 565.976 430.794C565.3 431.175 564.771 431.721 564.39 432.432C564.009 433.125 563.818 433.923 563.818 434.824V435.24C563.818 436.159 564.026 436.982 564.442 437.71C564.875 438.421 565.473 438.975 566.236 439.374C566.999 439.773 567.874 439.972 568.862 439.972C569.677 439.972 570.413 439.833 571.072 439.556C571.748 439.279 572.337 438.863 572.84 438.308L574.218 439.92C573.594 440.648 572.814 441.203 571.878 441.584C570.959 441.965 569.928 442.156 568.784 442.156Z" fill="white"/>
<defs>
<filter id="filter0_d_1732_12019" x="0" y="0" width="268" height="268" filterUnits="userSpaceOnUse" color-interpolation-filters="sRGB">
<feFlood flood-opacity="0" result="BackgroundImageFix"/>
<feColorMatrix in="SourceAlpha" type="matrix" values="0 0 0 0 0 0 0 0 0 0 0 0 0 0 0 0 0 0 127 0" result="hardAlpha"/>
<feMorphology radius="12" operator="erode" in="SourceAlpha" result="effect1_dropShadow_1732_12019"/>
<feOffset dy="6"/>
<feGaussianBlur stdDeviation="23"/>
<feColorMatrix type="matrix" values="0 0 0 0 0.233333 0 0 0 0 0.233333 0 0 0 0 0.233333 0 0 0 0.15 0"/>
<feBlend mode="normal" in2="BackgroundImageFix" result="effect1_dropShadow_1732_12019"/>
<feBlend mode="normal" in="SourceGraphic" in2="effect1_dropShadow_1732_12019" result="shape"/>
</filter>
<filter id="filter1_d_1732_12019" x="360" y="37" width="268" height="269" filterUnits="userSpaceOnUse" color-interpolation-filters="sRGB">
<feFlood flood-opacity="0" result="BackgroundImageFix"/>
<feColorMatrix in="SourceAlpha" type="matrix" values="0 0 0 0 0 0 0 0 0 0 0 0 0 0 0 0 0 0 127 0" result="hardAlpha"/>
<feMorphology radius="12" operator="erode" in="SourceAlpha" result="effect1_dropShadow_1732_12019"/>
<feOffset dy="35"/>
<feGaussianBlur stdDeviation="23"/>
<feColorMatrix type="matrix" values="0 0 0 0 0.247917 0 0 0 0 0.590042 0 0 0 0 0.991667 0 0 0 0.15 0"/>
<feBlend mode="normal" in2="BackgroundImageFix" result="effect1_dropShadow_1732_12019"/>
<feBlend mode="normal" in="SourceGraphic" in2="effect1_dropShadow_1732_12019" result="shape"/>
</filter>
<filter id="filter2_d_1732_12019" x="670" y="37" width="268" height="269" filterUnits="userSpaceOnUse" color-interpolation-filters="sRGB">
<feFlood flood-opacity="0" result="BackgroundImageFix"/>
<feColorMatrix in="SourceAlpha" type="matrix" values="0 0 0 0 0 0 0 0 0 0 0 0 0 0 0 0 0 0 127 0" result="hardAlpha"/>
<feMorphology radius="12" operator="erode" in="SourceAlpha" result="effect1_dropShadow_1732_12019"/>
<feOffset dy="35"/>
<feGaussianBlur stdDeviation="23"/>
<feColorMatrix type="matrix" values="0 0 0 0 0.247917 0 0 0 0 0.590042 0 0 0 0 0.991667 0 0 0 0.15 0"/>
<feBlend mode="normal" in2="BackgroundImageFix" result="effect1_dropShadow_1732_12019"/>
<feBlend mode="normal" in="SourceGraphic" in2="effect1_dropShadow_1732_12019" result="shape"/>
</filter>
<filter id="filter3_d_1732_12019" x="980" y="37" width="268" height="269" filterUnits="userSpaceOnUse" color-interpolation-filters="sRGB">
<feFlood flood-opacity="0" result="BackgroundImageFix"/>
<feColorMatrix in="SourceAlpha" type="matrix" values="0 0 0 0 0 0 0 0 0 0 0 0 0 0 0 0 0 0 127 0" result="hardAlpha"/>
<feMorphology radius="12" operator="erode" in="SourceAlpha" result="effect1_dropShadow_1732_12019"/>
<feOffset dy="35"/>
<feGaussianBlur stdDeviation="23"/>
<feColorMatrix type="matrix" values="0 0 0 0 0.247917 0 0 0 0 0.590042 0 0 0 0 0.991667 0 0 0 0.15 0"/>
<feBlend mode="normal" in2="BackgroundImageFix" result="effect1_dropShadow_1732_12019"/>
<feBlend mode="normal" in="SourceGraphic" in2="effect1_dropShadow_1732_12019" result="shape"/>
</filter>
<filter id="filter4_d_1732_12019" x="980" y="333" width="268" height="269" filterUnits="userSpaceOnUse" color-interpolation-filters="sRGB">
<feFlood flood-opacity="0" result="BackgroundImageFix"/>
<feColorMatrix in="SourceAlpha" type="matrix" values="0 0 0 0 0 0 0 0 0 0 0 0 0 0 0 0 0 0 127 0" result="hardAlpha"/>
<feMorphology radius="12" operator="erode" in="SourceAlpha" result="effect1_dropShadow_1732_12019"/>
<feOffset dy="35"/>
<feGaussianBlur stdDeviation="23"/>
<feColorMatrix type="matrix" values="0 0 0 0 0.247917 0 0 0 0 0.590042 0 0 0 0 0.991667 0 0 0 0.15 0"/>
<feBlend mode="normal" in2="BackgroundImageFix" result="effect1_dropShadow_1732_12019"/>
<feBlend mode="normal" in="SourceGraphic" in2="effect1_dropShadow_1732_12019" result="shape"/>
</filter>
<filter id="filter5_d_1732_12019" x="670" y="333" width="268" height="269" filterUnits="userSpaceOnUse" color-interpolation-filters="sRGB">
<feFlood flood-opacity="0" result="BackgroundImageFix"/>
<feColorMatrix in="SourceAlpha" type="matrix" values="0 0 0 0 0 0 0 0 0 0 0 0 0 0 0 0 0 0 127 0" result="hardAlpha"/>
<feMorphology radius="12" operator="erode" in="SourceAlpha" result="effect1_dropShadow_1732_12019"/>
<feOffset dy="35"/>
<feGaussianBlur stdDeviation="23"/>
<feColorMatrix type="matrix" values="0 0 0 0 0.247917 0 0 0 0 0.590042 0 0 0 0 0.991667 0 0 0 0.15 0"/>
<feBlend mode="normal" in2="BackgroundImageFix" result="effect1_dropShadow_1732_12019"/>
<feBlend mode="normal" in="SourceGraphic" in2="effect1_dropShadow_1732_12019" result="shape"/>
</filter>
<filter id="filter6_d_1732_12019" x="360" y="333" width="268" height="269" filterUnits="userSpaceOnUse" color-interpolation-filters="sRGB">
<feFlood flood-opacity="0" result="BackgroundImageFix"/>
<feColorMatrix in="SourceAlpha" type="matrix" values="0 0 0 0 0 0 0 0 0 0 0 0 0 0 0 0 0 0 127 0" result="hardAlpha"/>
<feMorphology radius="12" operator="erode" in="SourceAlpha" result="effect1_dropShadow_1732_12019"/>
<feOffset dy="35"/>
<feGaussianBlur stdDeviation="23"/>
<feColorMatrix type="matrix" values="0 0 0 0 0.247917 0 0 0 0 0.590042 0 0 0 0 0.991667 0 0 0 0.15 0"/>
<feBlend mode="normal" in2="BackgroundImageFix" result="effect1_dropShadow_1732_12019"/>
<feBlend mode="normal" in="SourceGraphic" in2="effect1_dropShadow_1732_12019" result="shape"/>
</filter>
</defs>
</svg>
