<svg width="129" height="263" viewBox="0 0 129 263" fill="none" xmlns="http://www.w3.org/2000/svg">
<path d="M1.20801 21.9825C1.20801 14.688 2.86177 9.41221 6.32028 5.95843C9.77824 2.50459 15.0691 0.842773 22.4156 0.842773H107.139C114.486 0.842773 119.776 2.50459 123.239 5.95843C126.696 9.41221 128.351 14.688 128.351 21.9825V240.649C128.351 247.682 126.571 252.959 123.044 256.48C119.522 260 114.226 261.789 107.139 261.789H22.4156C15.0691 261.789 9.77824 260.127 6.32028 256.673C2.86177 253.219 1.20801 247.943 1.20801 240.649V21.9825Z" fill="url(#paint0_linear_1743_1357)" stroke="black" stroke-width="0.993822"/>
<defs>
<linearGradient id="paint0_linear_1743_1357" x1="1.05383" y1="0.689184" x2="1.05383" y2="261.942" gradientUnits="userSpaceOnUse">
<stop stop-color="#5F5F5F"/>
<stop offset="0.0101238" stop-color="#222222"/>
<stop offset="1" stop-color="#252525"/>
</linearGradient>
</defs>
</svg>
